G04 #@! TF.GenerationSoftware,KiCad,Pcbnew,(5.1.9)-1*
G04 #@! TF.CreationDate,2021-04-22T12:56:58-04:00*
G04 #@! TF.ProjectId,RoboRIO-IO-Link-Master,526f626f-5249-44f2-9d49-4f2d4c696e6b,rev?*
G04 #@! TF.SameCoordinates,Original*
G04 #@! TF.FileFunction,Soldermask,Bot*
G04 #@! TF.FilePolarity,Negative*
%FSLAX46Y46*%
G04 Gerber Fmt 4.6, Leading zero omitted, Abs format (unit mm)*
G04 Created by KiCad (PCBNEW (5.1.9)-1) date 2021-04-22 12:56:58*
%MOMM*%
%LPD*%
G01*
G04 APERTURE LIST*
%ADD10R,0.508000X0.406400*%
%ADD11R,0.558800X0.406400*%
%ADD12C,1.699999*%
%ADD13R,1.092200X1.193800*%
%ADD14C,1.778000*%
%ADD15R,1.397000X1.447800*%
%ADD16R,4.191000X5.613400*%
%ADD17C,1.000000*%
%ADD18R,0.500000X0.605600*%
%ADD19R,0.605600X0.500000*%
%ADD20R,1.100000X1.000000*%
%ADD21R,1.000000X1.100000*%
%ADD22R,0.870000X0.930000*%
%ADD23R,0.930000X0.870000*%
%ADD24R,4.510001X4.295000*%
%ADD25R,0.675000X0.655000*%
%ADD26R,0.675000X0.750001*%
%ADD27R,0.812800X0.762000*%
%ADD28R,0.762000X0.812800*%
%ADD29R,0.803200X1.450000*%
%ADD30R,1.450000X0.803200*%
%ADD31R,1.193800X1.092200*%
G04 APERTURE END LIST*
D10*
X45002300Y-89570199D03*
X45002300Y-88920201D03*
X45002300Y-88270199D03*
X45002300Y-87620201D03*
D11*
X41967300Y-87620201D03*
X41967300Y-88270199D03*
X41967300Y-88920201D03*
X41967300Y-89570199D03*
D10*
X46183700Y-87620201D03*
X46183700Y-88270199D03*
X46183700Y-88920201D03*
X46183700Y-89570199D03*
D11*
X49218700Y-89570199D03*
X49218700Y-88920201D03*
X49218700Y-88270199D03*
X49218700Y-87620201D03*
D10*
X46183700Y-91430201D03*
X46183700Y-92080199D03*
X46183700Y-92730201D03*
X46183700Y-93380199D03*
D11*
X49218700Y-93380199D03*
X49218700Y-92730201D03*
X49218700Y-92080199D03*
X49218700Y-91430201D03*
D10*
X45002300Y-93380199D03*
X45002300Y-92730201D03*
X45002300Y-92080199D03*
X45002300Y-91430201D03*
D11*
X41967300Y-91430201D03*
X41967300Y-92080199D03*
X41967300Y-92730201D03*
X41967300Y-93380199D03*
D10*
X66503700Y-87518601D03*
X66503700Y-88168599D03*
X66503700Y-88818601D03*
X66503700Y-89468599D03*
D11*
X69538700Y-89468599D03*
X69538700Y-88818601D03*
X69538700Y-88168599D03*
X69538700Y-87518601D03*
D10*
X65322300Y-89468599D03*
X65322300Y-88818601D03*
X65322300Y-88168599D03*
X65322300Y-87518601D03*
D11*
X62287300Y-87518601D03*
X62287300Y-88168599D03*
X62287300Y-88818601D03*
X62287300Y-89468599D03*
D10*
X65322300Y-93278599D03*
X65322300Y-92628601D03*
X65322300Y-91978599D03*
X65322300Y-91328601D03*
D11*
X62287300Y-91328601D03*
X62287300Y-91978599D03*
X62287300Y-92628601D03*
X62287300Y-93278599D03*
D10*
X66503700Y-91328601D03*
X66503700Y-91978599D03*
X66503700Y-92628601D03*
X66503700Y-93278599D03*
D11*
X69538700Y-93278599D03*
X69538700Y-92628601D03*
X69538700Y-91978599D03*
X69538700Y-91328601D03*
D10*
X65284500Y-120284601D03*
X65284500Y-120934599D03*
X65284500Y-121584601D03*
X65284500Y-122234599D03*
D11*
X68319500Y-122234599D03*
X68319500Y-121584601D03*
X68319500Y-120934599D03*
X68319500Y-120284601D03*
D12*
X80720006Y-94927997D03*
X75720006Y-91427999D03*
X75720006Y-101938397D03*
X80720006Y-87917597D03*
X80720006Y-84417599D03*
X75720006Y-98438399D03*
X75720006Y-80907197D03*
X75720006Y-87917597D03*
X80720006Y-98438399D03*
X80720006Y-80907197D03*
X75720006Y-84417599D03*
X75720006Y-77407199D03*
X80720006Y-77407199D03*
X75720006Y-94927997D03*
X80720006Y-91427999D03*
X80720006Y-108948797D03*
X75720006Y-105448799D03*
X75720006Y-115959197D03*
X75720006Y-112459199D03*
X80720006Y-115959197D03*
X80720006Y-112459199D03*
X75720006Y-108948797D03*
X80720006Y-105448799D03*
X75720006Y-122969597D03*
X75720006Y-119469599D03*
X80720006Y-122969597D03*
X80720006Y-119469599D03*
X75720006Y-129979997D03*
X80720006Y-129979997D03*
X80720006Y-126479999D03*
X75720006Y-126479999D03*
D10*
X65284500Y-124120001D03*
X65284500Y-124769999D03*
X65284500Y-125420001D03*
X65284500Y-126069999D03*
D11*
X68319500Y-126069999D03*
X68319500Y-125420001D03*
X68319500Y-124769999D03*
X68319500Y-124120001D03*
D10*
X63798300Y-126095399D03*
X63798300Y-125445401D03*
X63798300Y-124795399D03*
X63798300Y-124145401D03*
D11*
X60763300Y-124145401D03*
X60763300Y-124795399D03*
X60763300Y-125445401D03*
X60763300Y-126095399D03*
D10*
X63798300Y-122234599D03*
X63798300Y-121584601D03*
X63798300Y-120934599D03*
X63798300Y-120284601D03*
D11*
X60763300Y-120284601D03*
X60763300Y-120934599D03*
X60763300Y-121584601D03*
X60763300Y-122234599D03*
D13*
X73748900Y-112395000D03*
X70523100Y-112395000D03*
D14*
X35179000Y-137541000D03*
X35179000Y-135001000D03*
X75819000Y-137541000D03*
X75819000Y-135001000D03*
X37719000Y-135001000D03*
X37719000Y-137541000D03*
X40259000Y-135001000D03*
X40259000Y-137541000D03*
X42799000Y-137541000D03*
X42799000Y-135001000D03*
X52959000Y-137541000D03*
X47879000Y-135001000D03*
X52959000Y-135001000D03*
X50419000Y-137541000D03*
X45339000Y-137541000D03*
X50419000Y-135001000D03*
X45339000Y-135001000D03*
X47879000Y-137541000D03*
X63119000Y-137541000D03*
X58039000Y-135001000D03*
X63119000Y-135001000D03*
X60579000Y-137541000D03*
X55499000Y-137541000D03*
X60579000Y-135001000D03*
X55499000Y-135001000D03*
X58039000Y-137541000D03*
X68199000Y-137541000D03*
X65659000Y-135001000D03*
X65659000Y-137541000D03*
X68199000Y-135001000D03*
X73279000Y-137541000D03*
X70739000Y-135001000D03*
X70739000Y-137541000D03*
X73279000Y-135001000D03*
D15*
X46008000Y-73901300D03*
X43908000Y-73901300D03*
D16*
X44958000Y-77584300D03*
D17*
X40741600Y-82753200D03*
X41808400Y-84378800D03*
X58572400Y-81483200D03*
X60401200Y-81483200D03*
X40944800Y-130911600D03*
X40944800Y-129235200D03*
X70104000Y-129235200D03*
X70154800Y-130937000D03*
X50444400Y-80772000D03*
X62484000Y-64719200D03*
X82372200Y-74142600D03*
D18*
X66852800Y-68484400D03*
X66852800Y-69590000D03*
D19*
X63353600Y-100025200D03*
X64459200Y-100025200D03*
X61817600Y-99974400D03*
X60712000Y-99974400D03*
X62947200Y-131673600D03*
X64052800Y-131673600D03*
D20*
X65190000Y-130251200D03*
X66890000Y-130251200D03*
D21*
X73660000Y-131533000D03*
X73660000Y-129833000D03*
X71983600Y-130048000D03*
X71983600Y-131748000D03*
D19*
X72904000Y-127508000D03*
X74009600Y-127508000D03*
D22*
X40200800Y-124002800D03*
X38640800Y-124002800D03*
D19*
X42005600Y-131876800D03*
X40900000Y-131876800D03*
D23*
X38658800Y-120987600D03*
X38658800Y-122547600D03*
D21*
X43942000Y-133488800D03*
X43942000Y-131788800D03*
X46532800Y-133488800D03*
X46532800Y-131788800D03*
D18*
X48006000Y-131578000D03*
X48006000Y-132683600D03*
D22*
X70949600Y-90170000D03*
X72509600Y-90170000D03*
D18*
X69951600Y-84334000D03*
X69951600Y-85439600D03*
D22*
X72509600Y-91643200D03*
X70949600Y-91643200D03*
D20*
X66727600Y-83972400D03*
X68427600Y-83972400D03*
D21*
X69621400Y-79402200D03*
X69621400Y-81102200D03*
X66141600Y-80494400D03*
X66141600Y-82194400D03*
D20*
X66876400Y-85598000D03*
X65176400Y-85598000D03*
D18*
X62382400Y-84029200D03*
X62382400Y-85134800D03*
X48361600Y-82645600D03*
X48361600Y-81540000D03*
D22*
X52138800Y-89763600D03*
X50578800Y-89763600D03*
D20*
X45137600Y-82092800D03*
X46837600Y-82092800D03*
D21*
X44246800Y-83732000D03*
X44246800Y-85432000D03*
X39065200Y-81801600D03*
X39065200Y-83501600D03*
D18*
X37896800Y-87077200D03*
X37896800Y-88182800D03*
D12*
X39929999Y-66068001D03*
X39929999Y-69567999D03*
X44929999Y-66068001D03*
X44929999Y-69567999D03*
X30277994Y-112590003D03*
X35277994Y-116090001D03*
X35277994Y-105579603D03*
X30277994Y-119600403D03*
X30277994Y-123100401D03*
X35277994Y-109079601D03*
X35277994Y-126610803D03*
X35277994Y-119600403D03*
X30277994Y-109079601D03*
X30277994Y-126610803D03*
X35277994Y-123100401D03*
X35277994Y-130110801D03*
X30277994Y-130110801D03*
X35277994Y-112590003D03*
X30277994Y-116090001D03*
X30277994Y-98569203D03*
X35277994Y-102069201D03*
X35277994Y-91558803D03*
X35277994Y-95058801D03*
X30277994Y-91558803D03*
X30277994Y-95058801D03*
X35277994Y-98569203D03*
X30277994Y-102069201D03*
X35277994Y-84548403D03*
X35277994Y-88048401D03*
X30277994Y-84548403D03*
X30277994Y-88048401D03*
X35277994Y-77538003D03*
X30277994Y-77538003D03*
X30277994Y-81038001D03*
X35277994Y-81038001D03*
D24*
X54419500Y-72199500D03*
D25*
X52502006Y-74674499D03*
X53780337Y-74674499D03*
X55058668Y-74674499D03*
X56336999Y-74674499D03*
D26*
X56336999Y-69121899D03*
X55058668Y-69121899D03*
X53780337Y-69121899D03*
X52502006Y-69121899D03*
D27*
X64973200Y-76060300D03*
X64973200Y-74510900D03*
D28*
X63512700Y-80162400D03*
X61963300Y-80162400D03*
D23*
X56388000Y-66230500D03*
X56388000Y-67790500D03*
D28*
X65747900Y-98653600D03*
X64198500Y-98653600D03*
X56451500Y-140106400D03*
X54902100Y-140106400D03*
X58940700Y-64516000D03*
X57391300Y-64516000D03*
X51219100Y-77978000D03*
X49669700Y-77978000D03*
X54495700Y-115468400D03*
X56045100Y-115468400D03*
X54495700Y-116992400D03*
X56045100Y-116992400D03*
X54495700Y-118516400D03*
X56045100Y-118516400D03*
X54495700Y-120040400D03*
X56045100Y-120040400D03*
X54495700Y-121564400D03*
X56045100Y-121564400D03*
X59728100Y-130403600D03*
X61277500Y-130403600D03*
X59728100Y-131927600D03*
X61277500Y-131927600D03*
D29*
X59702800Y-128117600D03*
X61506000Y-128117600D03*
D27*
X63042800Y-130263900D03*
X63042800Y-128714500D03*
D28*
X67068700Y-128676400D03*
X65519300Y-128676400D03*
D27*
X68554600Y-130873500D03*
X68554600Y-129324100D03*
D28*
X71513700Y-127508000D03*
X69964300Y-127508000D03*
X71894700Y-120370600D03*
X73444100Y-120370600D03*
X71894700Y-121869200D03*
X73444100Y-121869200D03*
D27*
X71907400Y-118872000D03*
X71907400Y-117322600D03*
X73406000Y-118872000D03*
X73406000Y-117322600D03*
D30*
X73609200Y-125209200D03*
X73609200Y-123406000D03*
D28*
X54495700Y-123088400D03*
X56045100Y-123088400D03*
X54495700Y-124612400D03*
X56045100Y-124612400D03*
X54495700Y-126136400D03*
X56045100Y-126136400D03*
X54495700Y-127660400D03*
X56045100Y-127660400D03*
X54495700Y-129184400D03*
X56045100Y-129184400D03*
X52031900Y-130454400D03*
X50482500Y-130454400D03*
X52031900Y-131927600D03*
X50482500Y-131927600D03*
D30*
X37439600Y-125488800D03*
X37439600Y-127292000D03*
D27*
X42164000Y-130213100D03*
X42164000Y-128663700D03*
X43688000Y-130213100D03*
X43688000Y-128663700D03*
X46532800Y-130213100D03*
X46532800Y-128663700D03*
X48056800Y-130213100D03*
X48056800Y-128663700D03*
D28*
X54546500Y-82473800D03*
X56095900Y-82473800D03*
X54546500Y-83947000D03*
X56095900Y-83947000D03*
X54546500Y-86893400D03*
X56095900Y-86893400D03*
X54546500Y-85420200D03*
X56095900Y-85420200D03*
X54546500Y-88366600D03*
X56095900Y-88366600D03*
X59372500Y-83362800D03*
X60921900Y-83362800D03*
X59385200Y-84836000D03*
X60934600Y-84836000D03*
D30*
X72491600Y-88684000D03*
X72491600Y-86880800D03*
D28*
X54546500Y-89839800D03*
X56095900Y-89839800D03*
X54546500Y-91313000D03*
X56095900Y-91313000D03*
X54546500Y-94259400D03*
X56095900Y-94259400D03*
X54546500Y-92786200D03*
X56095900Y-92786200D03*
X54546500Y-95732600D03*
X56095900Y-95732600D03*
X51625500Y-83362800D03*
X50076100Y-83362800D03*
X51625500Y-84836000D03*
X50076100Y-84836000D03*
D30*
X52628800Y-88277600D03*
X52628800Y-86474400D03*
D28*
X39039800Y-85090000D03*
X40589200Y-85090000D03*
X39052500Y-86563200D03*
X40601900Y-86563200D03*
X39382700Y-97231200D03*
X37833300Y-97231200D03*
X39382700Y-95758000D03*
X37833300Y-95758000D03*
X39382700Y-94284800D03*
X37833300Y-94284800D03*
X39382700Y-92811600D03*
X37833300Y-92811600D03*
D30*
X38201600Y-89522400D03*
X38201600Y-91325600D03*
D13*
X73748900Y-109601000D03*
X70523100Y-109601000D03*
X73748900Y-115189000D03*
X70523100Y-115189000D03*
X68033900Y-115189000D03*
X64808100Y-115189000D03*
X68033900Y-109601000D03*
X64808100Y-109601000D03*
X68033900Y-112395000D03*
X64808100Y-112395000D03*
X43243500Y-106273600D03*
X46469300Y-106273600D03*
X43243500Y-111912400D03*
X46469300Y-111912400D03*
X43243500Y-109118400D03*
X46469300Y-109118400D03*
X37488299Y-111912400D03*
X40714099Y-111912400D03*
X37452300Y-106273600D03*
X40678100Y-106273600D03*
X37488299Y-109095699D03*
X40714099Y-109095699D03*
X57645300Y-103479600D03*
X54419500Y-103479600D03*
X57594500Y-97891600D03*
X54368700Y-97891600D03*
X57645300Y-100685600D03*
X54419500Y-100685600D03*
D31*
X71831200Y-98615500D03*
X71831200Y-101841300D03*
D13*
X74256900Y-106883200D03*
X71031100Y-106883200D03*
X74256900Y-104089200D03*
X71031100Y-104089200D03*
X43243500Y-103479600D03*
X46469300Y-103479600D03*
X43294300Y-97891600D03*
X46520100Y-97891600D03*
X43243500Y-100685600D03*
X46469300Y-100685600D03*
X49288700Y-103479600D03*
X52514500Y-103479600D03*
X49237900Y-97891600D03*
X52463700Y-97891600D03*
X49288700Y-100685600D03*
X52514500Y-100685600D03*
D10*
X45865900Y-122666399D03*
X45865900Y-122016401D03*
X45865900Y-121366399D03*
X45865900Y-120716401D03*
D11*
X42830900Y-120716401D03*
X42830900Y-121366399D03*
X42830900Y-122016401D03*
X42830900Y-122666399D03*
D10*
X45891300Y-126476399D03*
X45891300Y-125826401D03*
X45891300Y-125176399D03*
X45891300Y-124526401D03*
D11*
X42856300Y-124526401D03*
X42856300Y-125176399D03*
X42856300Y-125826401D03*
X42856300Y-126476399D03*
D10*
X47098100Y-120716401D03*
X47098100Y-121366399D03*
X47098100Y-122016401D03*
X47098100Y-122666399D03*
D11*
X50133100Y-122666399D03*
X50133100Y-122016401D03*
X50133100Y-121366399D03*
X50133100Y-120716401D03*
D10*
X47098100Y-124526401D03*
X47098100Y-125176399D03*
X47098100Y-125826401D03*
X47098100Y-126476399D03*
D11*
X50133100Y-126476399D03*
X50133100Y-125826401D03*
X50133100Y-125176399D03*
X50133100Y-124526401D03*
D28*
X51079400Y-112903000D03*
X52628800Y-112903000D03*
M02*
