G04 #@! TF.GenerationSoftware,KiCad,Pcbnew,(5.1.9)-1*
G04 #@! TF.CreationDate,2021-04-21T23:02:33-04:00*
G04 #@! TF.ProjectId,RoboRIO-IO-Link-Master,526f626f-5249-44f2-9d49-4f2d4c696e6b,rev?*
G04 #@! TF.SameCoordinates,Original*
G04 #@! TF.FileFunction,Legend,Bot*
G04 #@! TF.FilePolarity,Positive*
%FSLAX46Y46*%
G04 Gerber Fmt 4.6, Leading zero omitted, Abs format (unit mm)*
G04 Created by KiCad (PCBNEW (5.1.9)-1) date 2021-04-21 23:02:33*
%MOMM*%
%LPD*%
G01*
G04 APERTURE LIST*
%ADD10C,0.254000*%
%ADD11C,0.152400*%
%ADD12C,0.038100*%
%ADD13C,0.150000*%
%ADD14C,0.076200*%
%ADD15C,0.050800*%
%ADD16C,0.127000*%
G04 APERTURE END LIST*
D10*
X79756000Y-75009828D02*
X80481714Y-75009828D01*
X80481714Y-73485828D01*
X79248000Y-75009828D02*
X79248000Y-73993828D01*
X79248000Y-73485828D02*
X79320571Y-73558400D01*
X79248000Y-73630971D01*
X79175428Y-73558400D01*
X79248000Y-73485828D01*
X79248000Y-73630971D01*
X77869142Y-75009828D02*
X77869142Y-74211542D01*
X77941714Y-74066400D01*
X78086857Y-73993828D01*
X78377142Y-73993828D01*
X78522285Y-74066400D01*
X77869142Y-74937257D02*
X78014285Y-75009828D01*
X78377142Y-75009828D01*
X78522285Y-74937257D01*
X78594857Y-74792114D01*
X78594857Y-74646971D01*
X78522285Y-74501828D01*
X78377142Y-74429257D01*
X78014285Y-74429257D01*
X77869142Y-74356685D01*
X77143428Y-75009828D02*
X77143428Y-73993828D01*
X77143428Y-74138971D02*
X77070857Y-74066400D01*
X76925714Y-73993828D01*
X76708000Y-73993828D01*
X76562857Y-74066400D01*
X76490285Y-74211542D01*
X76490285Y-75009828D01*
X76490285Y-74211542D02*
X76417714Y-74066400D01*
X76272571Y-73993828D01*
X76054857Y-73993828D01*
X75909714Y-74066400D01*
X75837142Y-74211542D01*
X75837142Y-75009828D01*
X74022857Y-74937257D02*
X73805142Y-75009828D01*
X73442285Y-75009828D01*
X73297142Y-74937257D01*
X73224571Y-74864685D01*
X73152000Y-74719542D01*
X73152000Y-74574400D01*
X73224571Y-74429257D01*
X73297142Y-74356685D01*
X73442285Y-74284114D01*
X73732571Y-74211542D01*
X73877714Y-74138971D01*
X73950285Y-74066400D01*
X74022857Y-73921257D01*
X74022857Y-73776114D01*
X73950285Y-73630971D01*
X73877714Y-73558400D01*
X73732571Y-73485828D01*
X73369714Y-73485828D01*
X73152000Y-73558400D01*
X72498857Y-73993828D02*
X72498857Y-75009828D01*
X72498857Y-74138971D02*
X72426285Y-74066400D01*
X72281142Y-73993828D01*
X72063428Y-73993828D01*
X71918285Y-74066400D01*
X71845714Y-74211542D01*
X71845714Y-75009828D01*
X70902285Y-75009828D02*
X71047428Y-74937257D01*
X71120000Y-74864685D01*
X71192571Y-74719542D01*
X71192571Y-74284114D01*
X71120000Y-74138971D01*
X71047428Y-74066400D01*
X70902285Y-73993828D01*
X70684571Y-73993828D01*
X70539428Y-74066400D01*
X70466857Y-74138971D01*
X70394285Y-74284114D01*
X70394285Y-74719542D01*
X70466857Y-74864685D01*
X70539428Y-74937257D01*
X70684571Y-75009828D01*
X70902285Y-75009828D01*
X69886285Y-73993828D02*
X69596000Y-75009828D01*
X69305714Y-74284114D01*
X69015428Y-75009828D01*
X68725142Y-73993828D01*
D11*
X46913800Y-123990461D02*
X46913800Y-123799600D01*
X50317400Y-127012339D02*
X50317400Y-127203200D01*
X50317400Y-123799600D02*
X50317400Y-123990461D01*
X46913800Y-123799600D02*
X50317400Y-123799600D01*
X46913800Y-127203200D02*
X46913800Y-127012339D01*
X50317400Y-127203200D02*
X46913800Y-127203200D01*
X46913800Y-120180461D02*
X46913800Y-119989600D01*
X50317400Y-123202339D02*
X50317400Y-123393200D01*
X50317400Y-119989600D02*
X50317400Y-120180461D01*
X46913800Y-119989600D02*
X50317400Y-119989600D01*
X46913800Y-123393200D02*
X46913800Y-123202339D01*
X50317400Y-123393200D02*
X46913800Y-123393200D01*
X46075600Y-127012339D02*
X46075600Y-127203200D01*
X42672000Y-123990461D02*
X42672000Y-123799600D01*
X42672000Y-127203200D02*
X42672000Y-127012339D01*
X46075600Y-127203200D02*
X42672000Y-127203200D01*
X46075600Y-123799600D02*
X46075600Y-123990461D01*
X42672000Y-123799600D02*
X46075600Y-123799600D01*
X46050200Y-123202339D02*
X46050200Y-123393200D01*
X42646600Y-120180461D02*
X42646600Y-119989600D01*
X42646600Y-123393200D02*
X42646600Y-123202339D01*
X46050200Y-123393200D02*
X42646600Y-123393200D01*
X46050200Y-119989600D02*
X46050200Y-120180461D01*
X42646600Y-119989600D02*
X46050200Y-119989600D01*
X49326800Y-99755960D02*
X49326800Y-99555300D01*
X52476400Y-101615240D02*
X52476400Y-101815900D01*
X52476400Y-99555300D02*
X52476400Y-99755960D01*
X49326800Y-99555300D02*
X52476400Y-99555300D01*
X49326800Y-101815900D02*
X49326800Y-101615240D01*
X52476400Y-101815900D02*
X49326800Y-101815900D01*
X49276000Y-96961960D02*
X49276000Y-96761300D01*
X52425600Y-98821240D02*
X52425600Y-99021900D01*
X52425600Y-96761300D02*
X52425600Y-96961960D01*
X49276000Y-96761300D02*
X52425600Y-96761300D01*
X49276000Y-99021900D02*
X49276000Y-98821240D01*
X52425600Y-99021900D02*
X49276000Y-99021900D01*
X49326800Y-102549960D02*
X49326800Y-102349300D01*
X52476400Y-104409240D02*
X52476400Y-104609900D01*
X52476400Y-102349300D02*
X52476400Y-102549960D01*
X49326800Y-102349300D02*
X52476400Y-102349300D01*
X49326800Y-104609900D02*
X49326800Y-104409240D01*
X52476400Y-104609900D02*
X49326800Y-104609900D01*
X43281600Y-99755960D02*
X43281600Y-99555300D01*
X46431200Y-101615240D02*
X46431200Y-101815900D01*
X46431200Y-99555300D02*
X46431200Y-99755960D01*
X43281600Y-99555300D02*
X46431200Y-99555300D01*
X43281600Y-101815900D02*
X43281600Y-101615240D01*
X46431200Y-101815900D02*
X43281600Y-101815900D01*
X43332400Y-96961960D02*
X43332400Y-96761300D01*
X46482000Y-98821240D02*
X46482000Y-99021900D01*
X46482000Y-96761300D02*
X46482000Y-96961960D01*
X43332400Y-96761300D02*
X46482000Y-96761300D01*
X43332400Y-99021900D02*
X43332400Y-98821240D01*
X46482000Y-99021900D02*
X43332400Y-99021900D01*
X43281600Y-102549960D02*
X43281600Y-102349300D01*
X46431200Y-104409240D02*
X46431200Y-104609900D01*
X46431200Y-102349300D02*
X46431200Y-102549960D01*
X43281600Y-102349300D02*
X46431200Y-102349300D01*
X43281600Y-104609900D02*
X43281600Y-104409240D01*
X46431200Y-104609900D02*
X43281600Y-104609900D01*
X74218800Y-105018840D02*
X74218800Y-105219500D01*
X71069200Y-103159560D02*
X71069200Y-102958900D01*
X71069200Y-105219500D02*
X71069200Y-105018840D01*
X74218800Y-105219500D02*
X71069200Y-105219500D01*
X74218800Y-102958900D02*
X74218800Y-103159560D01*
X71069200Y-102958900D02*
X74218800Y-102958900D01*
X74218800Y-107812840D02*
X74218800Y-108013500D01*
X71069200Y-105953560D02*
X71069200Y-105752900D01*
X71069200Y-108013500D02*
X71069200Y-107812840D01*
X74218800Y-108013500D02*
X71069200Y-108013500D01*
X74218800Y-105752900D02*
X74218800Y-105953560D01*
X71069200Y-105752900D02*
X74218800Y-105752900D01*
X72760840Y-98653600D02*
X72961500Y-98653600D01*
X70901560Y-101803200D02*
X70700900Y-101803200D01*
X72961500Y-101803200D02*
X72760840Y-101803200D01*
X72961500Y-98653600D02*
X72961500Y-101803200D01*
X70700900Y-98653600D02*
X70901560Y-98653600D01*
X70700900Y-101803200D02*
X70700900Y-98653600D01*
X57607200Y-101615240D02*
X57607200Y-101815900D01*
X54457600Y-99755960D02*
X54457600Y-99555300D01*
X54457600Y-101815900D02*
X54457600Y-101615240D01*
X57607200Y-101815900D02*
X54457600Y-101815900D01*
X57607200Y-99555300D02*
X57607200Y-99755960D01*
X54457600Y-99555300D02*
X57607200Y-99555300D01*
X57556400Y-98821240D02*
X57556400Y-99021900D01*
X54406800Y-96961960D02*
X54406800Y-96761300D01*
X54406800Y-99021900D02*
X54406800Y-98821240D01*
X57556400Y-99021900D02*
X54406800Y-99021900D01*
X57556400Y-96761300D02*
X57556400Y-96961960D01*
X54406800Y-96761300D02*
X57556400Y-96761300D01*
X57607200Y-104409240D02*
X57607200Y-104609900D01*
X54457600Y-102549960D02*
X54457600Y-102349300D01*
X54457600Y-104609900D02*
X54457600Y-104409240D01*
X57607200Y-104609900D02*
X54457600Y-104609900D01*
X57607200Y-102349300D02*
X57607200Y-102549960D01*
X54457600Y-102349300D02*
X57607200Y-102349300D01*
X37526399Y-108166059D02*
X37526399Y-107965399D01*
X40675999Y-110025339D02*
X40675999Y-110225999D01*
X40675999Y-107965399D02*
X40675999Y-108166059D01*
X37526399Y-107965399D02*
X40675999Y-107965399D01*
X37526399Y-110225999D02*
X37526399Y-110025339D01*
X40675999Y-110225999D02*
X37526399Y-110225999D01*
X37490400Y-105343960D02*
X37490400Y-105143300D01*
X40640000Y-107203240D02*
X40640000Y-107403900D01*
X40640000Y-105143300D02*
X40640000Y-105343960D01*
X37490400Y-105143300D02*
X40640000Y-105143300D01*
X37490400Y-107403900D02*
X37490400Y-107203240D01*
X40640000Y-107403900D02*
X37490400Y-107403900D01*
X37526399Y-110982760D02*
X37526399Y-110782100D01*
X40675999Y-112842040D02*
X40675999Y-113042700D01*
X40675999Y-110782100D02*
X40675999Y-110982760D01*
X37526399Y-110782100D02*
X40675999Y-110782100D01*
X37526399Y-113042700D02*
X37526399Y-112842040D01*
X40675999Y-113042700D02*
X37526399Y-113042700D01*
X43281600Y-108188760D02*
X43281600Y-107988100D01*
X46431200Y-110048040D02*
X46431200Y-110248700D01*
X46431200Y-107988100D02*
X46431200Y-108188760D01*
X43281600Y-107988100D02*
X46431200Y-107988100D01*
X43281600Y-110248700D02*
X43281600Y-110048040D01*
X46431200Y-110248700D02*
X43281600Y-110248700D01*
X43281600Y-110982760D02*
X43281600Y-110782100D01*
X46431200Y-112842040D02*
X46431200Y-113042700D01*
X46431200Y-110782100D02*
X46431200Y-110982760D01*
X43281600Y-110782100D02*
X46431200Y-110782100D01*
X43281600Y-113042700D02*
X43281600Y-112842040D01*
X46431200Y-113042700D02*
X43281600Y-113042700D01*
X43281600Y-105343960D02*
X43281600Y-105143300D01*
X46431200Y-107203240D02*
X46431200Y-107403900D01*
X46431200Y-105143300D02*
X46431200Y-105343960D01*
X43281600Y-105143300D02*
X46431200Y-105143300D01*
X43281600Y-107403900D02*
X43281600Y-107203240D01*
X46431200Y-107403900D02*
X43281600Y-107403900D01*
X67995800Y-113324640D02*
X67995800Y-113525300D01*
X64846200Y-111465360D02*
X64846200Y-111264700D01*
X64846200Y-113525300D02*
X64846200Y-113324640D01*
X67995800Y-113525300D02*
X64846200Y-113525300D01*
X67995800Y-111264700D02*
X67995800Y-111465360D01*
X64846200Y-111264700D02*
X67995800Y-111264700D01*
X67995800Y-110530640D02*
X67995800Y-110731300D01*
X64846200Y-108671360D02*
X64846200Y-108470700D01*
X64846200Y-110731300D02*
X64846200Y-110530640D01*
X67995800Y-110731300D02*
X64846200Y-110731300D01*
X67995800Y-108470700D02*
X67995800Y-108671360D01*
X64846200Y-108470700D02*
X67995800Y-108470700D01*
X67995800Y-116118640D02*
X67995800Y-116319300D01*
X64846200Y-114259360D02*
X64846200Y-114058700D01*
X64846200Y-116319300D02*
X64846200Y-116118640D01*
X67995800Y-116319300D02*
X64846200Y-116319300D01*
X67995800Y-114058700D02*
X67995800Y-114259360D01*
X64846200Y-114058700D02*
X67995800Y-114058700D01*
X73710800Y-116118640D02*
X73710800Y-116319300D01*
X70561200Y-114259360D02*
X70561200Y-114058700D01*
X70561200Y-116319300D02*
X70561200Y-116118640D01*
X73710800Y-116319300D02*
X70561200Y-116319300D01*
X73710800Y-114058700D02*
X73710800Y-114259360D01*
X70561200Y-114058700D02*
X73710800Y-114058700D01*
X73710800Y-110530640D02*
X73710800Y-110731300D01*
X70561200Y-108671360D02*
X70561200Y-108470700D01*
X70561200Y-110731300D02*
X70561200Y-110530640D01*
X73710800Y-110731300D02*
X70561200Y-110731300D01*
X73710800Y-108470700D02*
X73710800Y-108671360D01*
X70561200Y-108470700D02*
X73710800Y-108470700D01*
X54419500Y-68498197D02*
X52029500Y-68498197D01*
X52029500Y-68498197D02*
X51624499Y-68903198D01*
X51624499Y-68903198D02*
X51624499Y-71898198D01*
X57214501Y-71898198D02*
X57214501Y-75298199D01*
X57214501Y-75298199D02*
X54419500Y-75298199D01*
X57214501Y-68498197D02*
X54419500Y-68498197D01*
X57214501Y-68498197D02*
X57214501Y-71898198D01*
X54419500Y-75298199D02*
X51624499Y-75298199D01*
X51624499Y-71898198D02*
X51624499Y-75298199D01*
X47039240Y-73507600D02*
X47396400Y-73507600D01*
X42519600Y-79908400D02*
X42519600Y-73507600D01*
X47396400Y-73507600D02*
X47396400Y-79908400D01*
X42519600Y-73507600D02*
X42876760Y-73507600D01*
X79629000Y-133273800D02*
X31369000Y-133273800D01*
X79629000Y-133273800D02*
X79629000Y-139268200D01*
X79629000Y-139268200D02*
X31369000Y-139268200D01*
X31369000Y-133273800D02*
X31369000Y-139268200D01*
X57353200Y-133273800D02*
X57353200Y-132283200D01*
X53644800Y-133273800D02*
X53644800Y-132283200D01*
X53644800Y-132283200D02*
X57353200Y-132283200D01*
X73710800Y-113324640D02*
X73710800Y-113525300D01*
X70561200Y-111465360D02*
X70561200Y-111264700D01*
X70561200Y-113525300D02*
X70561200Y-113324640D01*
X73710800Y-113525300D02*
X70561200Y-113525300D01*
X73710800Y-111264700D02*
X73710800Y-111465360D01*
X70561200Y-111264700D02*
X73710800Y-111264700D01*
X63982600Y-122770539D02*
X63982600Y-122961400D01*
X60579000Y-119748661D02*
X60579000Y-119557800D01*
X60579000Y-122961400D02*
X60579000Y-122770539D01*
X63982600Y-122961400D02*
X60579000Y-122961400D01*
X63982600Y-119557800D02*
X63982600Y-119748661D01*
X60579000Y-119557800D02*
X63982600Y-119557800D01*
X63982600Y-126631339D02*
X63982600Y-126822200D01*
X60579000Y-123609461D02*
X60579000Y-123418600D01*
X60579000Y-126822200D02*
X60579000Y-126631339D01*
X63982600Y-126822200D02*
X60579000Y-126822200D01*
X63982600Y-123418600D02*
X63982600Y-123609461D01*
X60579000Y-123418600D02*
X63982600Y-123418600D01*
X65100200Y-123584061D02*
X65100200Y-123393200D01*
X68503800Y-126605939D02*
X68503800Y-126796800D01*
X68503800Y-123393200D02*
X68503800Y-123584061D01*
X65100200Y-123393200D02*
X68503800Y-123393200D01*
X65100200Y-126796800D02*
X65100200Y-126605939D01*
X68503800Y-126796800D02*
X65100200Y-126796800D01*
X65100200Y-119748661D02*
X65100200Y-119557800D01*
X68503800Y-122770539D02*
X68503800Y-122961400D01*
X68503800Y-119557800D02*
X68503800Y-119748661D01*
X65100200Y-119557800D02*
X68503800Y-119557800D01*
X65100200Y-122961400D02*
X65100200Y-122770539D01*
X68503800Y-122961400D02*
X65100200Y-122961400D01*
X69723000Y-94005400D02*
X66319400Y-94005400D01*
X66319400Y-94005400D02*
X66319400Y-93814539D01*
X66319400Y-90601800D02*
X69723000Y-90601800D01*
X69723000Y-90601800D02*
X69723000Y-90792661D01*
X69723000Y-93814539D02*
X69723000Y-94005400D01*
X66319400Y-90792661D02*
X66319400Y-90601800D01*
X62103000Y-90601800D02*
X65506600Y-90601800D01*
X65506600Y-90601800D02*
X65506600Y-90792661D01*
X65506600Y-94005400D02*
X62103000Y-94005400D01*
X62103000Y-94005400D02*
X62103000Y-93814539D01*
X62103000Y-90792661D02*
X62103000Y-90601800D01*
X65506600Y-93814539D02*
X65506600Y-94005400D01*
X62103000Y-86791800D02*
X65506600Y-86791800D01*
X65506600Y-86791800D02*
X65506600Y-86982661D01*
X65506600Y-90195400D02*
X62103000Y-90195400D01*
X62103000Y-90195400D02*
X62103000Y-90004539D01*
X62103000Y-86982661D02*
X62103000Y-86791800D01*
X65506600Y-90004539D02*
X65506600Y-90195400D01*
X69723000Y-90195400D02*
X66319400Y-90195400D01*
X66319400Y-90195400D02*
X66319400Y-90004539D01*
X66319400Y-86791800D02*
X69723000Y-86791800D01*
X69723000Y-86791800D02*
X69723000Y-86982661D01*
X69723000Y-90004539D02*
X69723000Y-90195400D01*
X66319400Y-86982661D02*
X66319400Y-86791800D01*
X45186600Y-93916139D02*
X45186600Y-94107000D01*
X41783000Y-90894261D02*
X41783000Y-90703400D01*
X41783000Y-94107000D02*
X41783000Y-93916139D01*
X45186600Y-94107000D02*
X41783000Y-94107000D01*
X45186600Y-90703400D02*
X45186600Y-90894261D01*
X41783000Y-90703400D02*
X45186600Y-90703400D01*
X45999400Y-90894261D02*
X45999400Y-90703400D01*
X49403000Y-93916139D02*
X49403000Y-94107000D01*
X49403000Y-90703400D02*
X49403000Y-90894261D01*
X45999400Y-90703400D02*
X49403000Y-90703400D01*
X45999400Y-94107000D02*
X45999400Y-93916139D01*
X49403000Y-94107000D02*
X45999400Y-94107000D01*
X45999400Y-87084261D02*
X45999400Y-86893400D01*
X49403000Y-90106139D02*
X49403000Y-90297000D01*
X49403000Y-86893400D02*
X49403000Y-87084261D01*
X45999400Y-86893400D02*
X49403000Y-86893400D01*
X45999400Y-90297000D02*
X45999400Y-90106139D01*
X49403000Y-90297000D02*
X45999400Y-90297000D01*
X45186600Y-90106139D02*
X45186600Y-90297000D01*
X41783000Y-87084261D02*
X41783000Y-86893400D01*
X41783000Y-90297000D02*
X41783000Y-90106139D01*
X45186600Y-90297000D02*
X41783000Y-90297000D01*
X45186600Y-86893400D02*
X45186600Y-87084261D01*
X41783000Y-86893400D02*
X45186600Y-86893400D01*
D12*
X51953885Y-112484504D02*
X52038552Y-112363552D01*
X52099028Y-112484504D02*
X52099028Y-112230504D01*
X52002266Y-112230504D01*
X51978076Y-112242600D01*
X51965980Y-112254695D01*
X51953885Y-112278885D01*
X51953885Y-112315171D01*
X51965980Y-112339361D01*
X51978076Y-112351457D01*
X52002266Y-112363552D01*
X52099028Y-112363552D01*
X51808742Y-112339361D02*
X51832933Y-112327266D01*
X51845028Y-112315171D01*
X51857123Y-112290980D01*
X51857123Y-112278885D01*
X51845028Y-112254695D01*
X51832933Y-112242600D01*
X51808742Y-112230504D01*
X51760361Y-112230504D01*
X51736171Y-112242600D01*
X51724076Y-112254695D01*
X51711980Y-112278885D01*
X51711980Y-112290980D01*
X51724076Y-112315171D01*
X51736171Y-112327266D01*
X51760361Y-112339361D01*
X51808742Y-112339361D01*
X51832933Y-112351457D01*
X51845028Y-112363552D01*
X51857123Y-112387742D01*
X51857123Y-112436123D01*
X51845028Y-112460314D01*
X51832933Y-112472409D01*
X51808742Y-112484504D01*
X51760361Y-112484504D01*
X51736171Y-112472409D01*
X51724076Y-112460314D01*
X51711980Y-112436123D01*
X51711980Y-112387742D01*
X51724076Y-112363552D01*
X51736171Y-112351457D01*
X51760361Y-112339361D01*
X51470076Y-112484504D02*
X51615219Y-112484504D01*
X51542647Y-112484504D02*
X51542647Y-112230504D01*
X51566838Y-112266790D01*
X51591028Y-112290980D01*
X51615219Y-112303076D01*
D13*
X52108100Y-112609380D02*
X52108100Y-112847476D01*
X52346195Y-112752238D02*
X52108100Y-112847476D01*
X51870004Y-112752238D01*
X52250957Y-113037952D02*
X52108100Y-112847476D01*
X51965242Y-113037952D01*
D12*
X49340104Y-125072623D02*
X49545723Y-125072623D01*
X49569914Y-125084719D01*
X49582009Y-125096814D01*
X49594104Y-125121004D01*
X49594104Y-125169385D01*
X49582009Y-125193576D01*
X49569914Y-125205671D01*
X49545723Y-125217766D01*
X49340104Y-125217766D01*
X49594104Y-125471766D02*
X49594104Y-125326623D01*
X49594104Y-125399195D02*
X49340104Y-125399195D01*
X49376390Y-125375004D01*
X49400580Y-125350814D01*
X49412676Y-125326623D01*
X49364295Y-125568528D02*
X49352200Y-125580623D01*
X49340104Y-125604814D01*
X49340104Y-125665290D01*
X49352200Y-125689480D01*
X49364295Y-125701576D01*
X49388485Y-125713671D01*
X49412676Y-125713671D01*
X49448961Y-125701576D01*
X49594104Y-125556433D01*
X49594104Y-125713671D01*
D14*
X49631600Y-124207209D02*
X49631600Y-124328161D01*
X49752552Y-124279780D02*
X49631600Y-124328161D01*
X49510647Y-124279780D01*
X49704171Y-124424923D02*
X49631600Y-124328161D01*
X49559028Y-124424923D01*
D12*
X49340104Y-121262623D02*
X49545723Y-121262623D01*
X49569914Y-121274719D01*
X49582009Y-121286814D01*
X49594104Y-121311004D01*
X49594104Y-121359385D01*
X49582009Y-121383576D01*
X49569914Y-121395671D01*
X49545723Y-121407766D01*
X49340104Y-121407766D01*
X49594104Y-121661766D02*
X49594104Y-121516623D01*
X49594104Y-121589195D02*
X49340104Y-121589195D01*
X49376390Y-121565004D01*
X49400580Y-121540814D01*
X49412676Y-121516623D01*
X49594104Y-121903671D02*
X49594104Y-121758528D01*
X49594104Y-121831100D02*
X49340104Y-121831100D01*
X49376390Y-121806909D01*
X49400580Y-121782719D01*
X49412676Y-121758528D01*
D14*
X49631600Y-120397209D02*
X49631600Y-120518161D01*
X49752552Y-120469780D02*
X49631600Y-120518161D01*
X49510647Y-120469780D01*
X49704171Y-120614923D02*
X49631600Y-120518161D01*
X49559028Y-120614923D01*
D12*
X43649295Y-125809223D02*
X43443676Y-125809223D01*
X43419485Y-125797128D01*
X43407390Y-125785033D01*
X43395295Y-125760842D01*
X43395295Y-125712461D01*
X43407390Y-125688271D01*
X43419485Y-125676176D01*
X43443676Y-125664080D01*
X43649295Y-125664080D01*
X43395295Y-125531033D02*
X43395295Y-125482652D01*
X43407390Y-125458461D01*
X43419485Y-125446366D01*
X43455771Y-125422176D01*
X43504152Y-125410080D01*
X43600914Y-125410080D01*
X43625104Y-125422176D01*
X43637200Y-125434271D01*
X43649295Y-125458461D01*
X43649295Y-125506842D01*
X43637200Y-125531033D01*
X43625104Y-125543128D01*
X43600914Y-125555223D01*
X43540438Y-125555223D01*
X43516247Y-125543128D01*
X43504152Y-125531033D01*
X43492057Y-125506842D01*
X43492057Y-125458461D01*
X43504152Y-125434271D01*
X43516247Y-125422176D01*
X43540438Y-125410080D01*
D14*
X43357800Y-126239209D02*
X43357800Y-126360161D01*
X43478752Y-126311780D02*
X43357800Y-126360161D01*
X43236847Y-126311780D01*
X43430371Y-126456923D02*
X43357800Y-126360161D01*
X43285228Y-126456923D01*
D12*
X43623895Y-121999223D02*
X43418276Y-121999223D01*
X43394085Y-121987128D01*
X43381990Y-121975033D01*
X43369895Y-121950842D01*
X43369895Y-121902461D01*
X43381990Y-121878271D01*
X43394085Y-121866176D01*
X43418276Y-121854080D01*
X43623895Y-121854080D01*
X43515038Y-121696842D02*
X43527133Y-121721033D01*
X43539228Y-121733128D01*
X43563419Y-121745223D01*
X43575514Y-121745223D01*
X43599704Y-121733128D01*
X43611800Y-121721033D01*
X43623895Y-121696842D01*
X43623895Y-121648461D01*
X43611800Y-121624271D01*
X43599704Y-121612176D01*
X43575514Y-121600080D01*
X43563419Y-121600080D01*
X43539228Y-121612176D01*
X43527133Y-121624271D01*
X43515038Y-121648461D01*
X43515038Y-121696842D01*
X43502942Y-121721033D01*
X43490847Y-121733128D01*
X43466657Y-121745223D01*
X43418276Y-121745223D01*
X43394085Y-121733128D01*
X43381990Y-121721033D01*
X43369895Y-121696842D01*
X43369895Y-121648461D01*
X43381990Y-121624271D01*
X43394085Y-121612176D01*
X43418276Y-121600080D01*
X43466657Y-121600080D01*
X43490847Y-121612176D01*
X43502942Y-121624271D01*
X43515038Y-121648461D01*
D14*
X43332400Y-122429209D02*
X43332400Y-122550161D01*
X43453352Y-122501780D02*
X43332400Y-122550161D01*
X43211447Y-122501780D01*
X43404971Y-122646923D02*
X43332400Y-122550161D01*
X43259828Y-122646923D01*
D12*
X51433185Y-99886104D02*
X51288042Y-99886104D01*
X51360614Y-100140104D02*
X51360614Y-99886104D01*
X51239661Y-99886104D02*
X51154995Y-100140104D01*
X51070328Y-99886104D01*
X50997757Y-100128009D02*
X50961471Y-100140104D01*
X50900995Y-100140104D01*
X50876804Y-100128009D01*
X50864709Y-100115914D01*
X50852614Y-100091723D01*
X50852614Y-100067533D01*
X50864709Y-100043342D01*
X50876804Y-100031247D01*
X50900995Y-100019152D01*
X50949376Y-100007057D01*
X50973566Y-99994961D01*
X50985661Y-99982866D01*
X50997757Y-99958676D01*
X50997757Y-99934485D01*
X50985661Y-99910295D01*
X50973566Y-99898200D01*
X50949376Y-99886104D01*
X50888900Y-99886104D01*
X50852614Y-99898200D01*
X50755852Y-99910295D02*
X50743757Y-99898200D01*
X50719566Y-99886104D01*
X50659090Y-99886104D01*
X50634900Y-99898200D01*
X50622804Y-99910295D01*
X50610709Y-99934485D01*
X50610709Y-99958676D01*
X50622804Y-99994961D01*
X50767947Y-100140104D01*
X50610709Y-100140104D01*
X50392995Y-99886104D02*
X50441376Y-99886104D01*
X50465566Y-99898200D01*
X50477661Y-99910295D01*
X50501852Y-99946580D01*
X50513947Y-99994961D01*
X50513947Y-100091723D01*
X50501852Y-100115914D01*
X50489757Y-100128009D01*
X50465566Y-100140104D01*
X50417185Y-100140104D01*
X50392995Y-100128009D01*
X50380900Y-100115914D01*
X50368804Y-100091723D01*
X50368804Y-100031247D01*
X50380900Y-100007057D01*
X50392995Y-99994961D01*
X50417185Y-99982866D01*
X50465566Y-99982866D01*
X50489757Y-99994961D01*
X50501852Y-100007057D01*
X50513947Y-100031247D01*
D13*
X51663600Y-100391980D02*
X51663600Y-100630076D01*
X51901695Y-100534838D02*
X51663600Y-100630076D01*
X51425504Y-100534838D01*
X51806457Y-100820552D02*
X51663600Y-100630076D01*
X51520742Y-100820552D01*
D12*
X51382385Y-97092104D02*
X51237242Y-97092104D01*
X51309814Y-97346104D02*
X51309814Y-97092104D01*
X51188861Y-97092104D02*
X51104195Y-97346104D01*
X51019528Y-97092104D01*
X50946957Y-97334009D02*
X50910671Y-97346104D01*
X50850195Y-97346104D01*
X50826004Y-97334009D01*
X50813909Y-97321914D01*
X50801814Y-97297723D01*
X50801814Y-97273533D01*
X50813909Y-97249342D01*
X50826004Y-97237247D01*
X50850195Y-97225152D01*
X50898576Y-97213057D01*
X50922766Y-97200961D01*
X50934861Y-97188866D01*
X50946957Y-97164676D01*
X50946957Y-97140485D01*
X50934861Y-97116295D01*
X50922766Y-97104200D01*
X50898576Y-97092104D01*
X50838100Y-97092104D01*
X50801814Y-97104200D01*
X50705052Y-97116295D02*
X50692957Y-97104200D01*
X50668766Y-97092104D01*
X50608290Y-97092104D01*
X50584100Y-97104200D01*
X50572004Y-97116295D01*
X50559909Y-97140485D01*
X50559909Y-97164676D01*
X50572004Y-97200961D01*
X50717147Y-97346104D01*
X50559909Y-97346104D01*
X50330100Y-97092104D02*
X50451052Y-97092104D01*
X50463147Y-97213057D01*
X50451052Y-97200961D01*
X50426861Y-97188866D01*
X50366385Y-97188866D01*
X50342195Y-97200961D01*
X50330100Y-97213057D01*
X50318004Y-97237247D01*
X50318004Y-97297723D01*
X50330100Y-97321914D01*
X50342195Y-97334009D01*
X50366385Y-97346104D01*
X50426861Y-97346104D01*
X50451052Y-97334009D01*
X50463147Y-97321914D01*
D13*
X51612800Y-97597980D02*
X51612800Y-97836076D01*
X51850895Y-97740838D02*
X51612800Y-97836076D01*
X51374704Y-97740838D01*
X51755657Y-98026552D02*
X51612800Y-97836076D01*
X51469942Y-98026552D01*
D12*
X51433185Y-102680104D02*
X51288042Y-102680104D01*
X51360614Y-102934104D02*
X51360614Y-102680104D01*
X51239661Y-102680104D02*
X51154995Y-102934104D01*
X51070328Y-102680104D01*
X50997757Y-102922009D02*
X50961471Y-102934104D01*
X50900995Y-102934104D01*
X50876804Y-102922009D01*
X50864709Y-102909914D01*
X50852614Y-102885723D01*
X50852614Y-102861533D01*
X50864709Y-102837342D01*
X50876804Y-102825247D01*
X50900995Y-102813152D01*
X50949376Y-102801057D01*
X50973566Y-102788961D01*
X50985661Y-102776866D01*
X50997757Y-102752676D01*
X50997757Y-102728485D01*
X50985661Y-102704295D01*
X50973566Y-102692200D01*
X50949376Y-102680104D01*
X50888900Y-102680104D01*
X50852614Y-102692200D01*
X50755852Y-102704295D02*
X50743757Y-102692200D01*
X50719566Y-102680104D01*
X50659090Y-102680104D01*
X50634900Y-102692200D01*
X50622804Y-102704295D01*
X50610709Y-102728485D01*
X50610709Y-102752676D01*
X50622804Y-102788961D01*
X50767947Y-102934104D01*
X50610709Y-102934104D01*
X50392995Y-102764771D02*
X50392995Y-102934104D01*
X50453471Y-102668009D02*
X50513947Y-102849438D01*
X50356709Y-102849438D01*
D13*
X51663600Y-103185980D02*
X51663600Y-103424076D01*
X51901695Y-103328838D02*
X51663600Y-103424076D01*
X51425504Y-103328838D01*
X51806457Y-103614552D02*
X51663600Y-103424076D01*
X51520742Y-103614552D01*
D12*
X45387985Y-99886104D02*
X45242842Y-99886104D01*
X45315414Y-100140104D02*
X45315414Y-99886104D01*
X45194461Y-99886104D02*
X45109795Y-100140104D01*
X45025128Y-99886104D01*
X44952557Y-100128009D02*
X44916271Y-100140104D01*
X44855795Y-100140104D01*
X44831604Y-100128009D01*
X44819509Y-100115914D01*
X44807414Y-100091723D01*
X44807414Y-100067533D01*
X44819509Y-100043342D01*
X44831604Y-100031247D01*
X44855795Y-100019152D01*
X44904176Y-100007057D01*
X44928366Y-99994961D01*
X44940461Y-99982866D01*
X44952557Y-99958676D01*
X44952557Y-99934485D01*
X44940461Y-99910295D01*
X44928366Y-99898200D01*
X44904176Y-99886104D01*
X44843700Y-99886104D01*
X44807414Y-99898200D01*
X44710652Y-99910295D02*
X44698557Y-99898200D01*
X44674366Y-99886104D01*
X44613890Y-99886104D01*
X44589700Y-99898200D01*
X44577604Y-99910295D01*
X44565509Y-99934485D01*
X44565509Y-99958676D01*
X44577604Y-99994961D01*
X44722747Y-100140104D01*
X44565509Y-100140104D01*
X44480842Y-99886104D02*
X44323604Y-99886104D01*
X44408271Y-99982866D01*
X44371985Y-99982866D01*
X44347795Y-99994961D01*
X44335700Y-100007057D01*
X44323604Y-100031247D01*
X44323604Y-100091723D01*
X44335700Y-100115914D01*
X44347795Y-100128009D01*
X44371985Y-100140104D01*
X44444557Y-100140104D01*
X44468747Y-100128009D01*
X44480842Y-100115914D01*
D13*
X45618400Y-100391980D02*
X45618400Y-100630076D01*
X45856495Y-100534838D02*
X45618400Y-100630076D01*
X45380304Y-100534838D01*
X45761257Y-100820552D02*
X45618400Y-100630076D01*
X45475542Y-100820552D01*
D12*
X45438785Y-97092104D02*
X45293642Y-97092104D01*
X45366214Y-97346104D02*
X45366214Y-97092104D01*
X45245261Y-97092104D02*
X45160595Y-97346104D01*
X45075928Y-97092104D01*
X45003357Y-97334009D02*
X44967071Y-97346104D01*
X44906595Y-97346104D01*
X44882404Y-97334009D01*
X44870309Y-97321914D01*
X44858214Y-97297723D01*
X44858214Y-97273533D01*
X44870309Y-97249342D01*
X44882404Y-97237247D01*
X44906595Y-97225152D01*
X44954976Y-97213057D01*
X44979166Y-97200961D01*
X44991261Y-97188866D01*
X45003357Y-97164676D01*
X45003357Y-97140485D01*
X44991261Y-97116295D01*
X44979166Y-97104200D01*
X44954976Y-97092104D01*
X44894500Y-97092104D01*
X44858214Y-97104200D01*
X44761452Y-97116295D02*
X44749357Y-97104200D01*
X44725166Y-97092104D01*
X44664690Y-97092104D01*
X44640500Y-97104200D01*
X44628404Y-97116295D01*
X44616309Y-97140485D01*
X44616309Y-97164676D01*
X44628404Y-97200961D01*
X44773547Y-97346104D01*
X44616309Y-97346104D01*
X44519547Y-97116295D02*
X44507452Y-97104200D01*
X44483261Y-97092104D01*
X44422785Y-97092104D01*
X44398595Y-97104200D01*
X44386500Y-97116295D01*
X44374404Y-97140485D01*
X44374404Y-97164676D01*
X44386500Y-97200961D01*
X44531642Y-97346104D01*
X44374404Y-97346104D01*
D13*
X45669200Y-97597980D02*
X45669200Y-97836076D01*
X45907295Y-97740838D02*
X45669200Y-97836076D01*
X45431104Y-97740838D01*
X45812057Y-98026552D02*
X45669200Y-97836076D01*
X45526342Y-98026552D01*
D12*
X45387985Y-102680104D02*
X45242842Y-102680104D01*
X45315414Y-102934104D02*
X45315414Y-102680104D01*
X45194461Y-102680104D02*
X45109795Y-102934104D01*
X45025128Y-102680104D01*
X44952557Y-102922009D02*
X44916271Y-102934104D01*
X44855795Y-102934104D01*
X44831604Y-102922009D01*
X44819509Y-102909914D01*
X44807414Y-102885723D01*
X44807414Y-102861533D01*
X44819509Y-102837342D01*
X44831604Y-102825247D01*
X44855795Y-102813152D01*
X44904176Y-102801057D01*
X44928366Y-102788961D01*
X44940461Y-102776866D01*
X44952557Y-102752676D01*
X44952557Y-102728485D01*
X44940461Y-102704295D01*
X44928366Y-102692200D01*
X44904176Y-102680104D01*
X44843700Y-102680104D01*
X44807414Y-102692200D01*
X44710652Y-102704295D02*
X44698557Y-102692200D01*
X44674366Y-102680104D01*
X44613890Y-102680104D01*
X44589700Y-102692200D01*
X44577604Y-102704295D01*
X44565509Y-102728485D01*
X44565509Y-102752676D01*
X44577604Y-102788961D01*
X44722747Y-102934104D01*
X44565509Y-102934104D01*
X44323604Y-102934104D02*
X44468747Y-102934104D01*
X44396176Y-102934104D02*
X44396176Y-102680104D01*
X44420366Y-102716390D01*
X44444557Y-102740580D01*
X44468747Y-102752676D01*
D13*
X45618400Y-103185980D02*
X45618400Y-103424076D01*
X45856495Y-103328838D02*
X45618400Y-103424076D01*
X45380304Y-103328838D01*
X45761257Y-103614552D02*
X45618400Y-103424076D01*
X45475542Y-103614552D01*
D12*
X73200985Y-104610504D02*
X73055842Y-104610504D01*
X73128414Y-104864504D02*
X73128414Y-104610504D01*
X73007461Y-104610504D02*
X72922795Y-104864504D01*
X72838128Y-104610504D01*
X72765557Y-104852409D02*
X72729271Y-104864504D01*
X72668795Y-104864504D01*
X72644604Y-104852409D01*
X72632509Y-104840314D01*
X72620414Y-104816123D01*
X72620414Y-104791933D01*
X72632509Y-104767742D01*
X72644604Y-104755647D01*
X72668795Y-104743552D01*
X72717176Y-104731457D01*
X72741366Y-104719361D01*
X72753461Y-104707266D01*
X72765557Y-104683076D01*
X72765557Y-104658885D01*
X72753461Y-104634695D01*
X72741366Y-104622600D01*
X72717176Y-104610504D01*
X72656700Y-104610504D01*
X72620414Y-104622600D01*
X72523652Y-104634695D02*
X72511557Y-104622600D01*
X72487366Y-104610504D01*
X72426890Y-104610504D01*
X72402700Y-104622600D01*
X72390604Y-104634695D01*
X72378509Y-104658885D01*
X72378509Y-104683076D01*
X72390604Y-104719361D01*
X72535747Y-104864504D01*
X72378509Y-104864504D01*
X72221271Y-104610504D02*
X72197080Y-104610504D01*
X72172890Y-104622600D01*
X72160795Y-104634695D01*
X72148700Y-104658885D01*
X72136604Y-104707266D01*
X72136604Y-104767742D01*
X72148700Y-104816123D01*
X72160795Y-104840314D01*
X72172890Y-104852409D01*
X72197080Y-104864504D01*
X72221271Y-104864504D01*
X72245461Y-104852409D01*
X72257557Y-104840314D01*
X72269652Y-104816123D01*
X72281747Y-104767742D01*
X72281747Y-104707266D01*
X72269652Y-104658885D01*
X72257557Y-104634695D01*
X72245461Y-104622600D01*
X72221271Y-104610504D01*
D13*
X71882000Y-103287580D02*
X71882000Y-103525676D01*
X72120095Y-103430438D02*
X71882000Y-103525676D01*
X71643904Y-103430438D01*
X72024857Y-103716152D02*
X71882000Y-103525676D01*
X71739142Y-103716152D01*
D12*
X73200985Y-107404504D02*
X73055842Y-107404504D01*
X73128414Y-107658504D02*
X73128414Y-107404504D01*
X73007461Y-107404504D02*
X72922795Y-107658504D01*
X72838128Y-107404504D01*
X72765557Y-107646409D02*
X72729271Y-107658504D01*
X72668795Y-107658504D01*
X72644604Y-107646409D01*
X72632509Y-107634314D01*
X72620414Y-107610123D01*
X72620414Y-107585933D01*
X72632509Y-107561742D01*
X72644604Y-107549647D01*
X72668795Y-107537552D01*
X72717176Y-107525457D01*
X72741366Y-107513361D01*
X72753461Y-107501266D01*
X72765557Y-107477076D01*
X72765557Y-107452885D01*
X72753461Y-107428695D01*
X72741366Y-107416600D01*
X72717176Y-107404504D01*
X72656700Y-107404504D01*
X72620414Y-107416600D01*
X72378509Y-107658504D02*
X72523652Y-107658504D01*
X72451080Y-107658504D02*
X72451080Y-107404504D01*
X72475271Y-107440790D01*
X72499461Y-107464980D01*
X72523652Y-107477076D01*
X72257557Y-107658504D02*
X72209176Y-107658504D01*
X72184985Y-107646409D01*
X72172890Y-107634314D01*
X72148700Y-107598028D01*
X72136604Y-107549647D01*
X72136604Y-107452885D01*
X72148700Y-107428695D01*
X72160795Y-107416600D01*
X72184985Y-107404504D01*
X72233366Y-107404504D01*
X72257557Y-107416600D01*
X72269652Y-107428695D01*
X72281747Y-107452885D01*
X72281747Y-107513361D01*
X72269652Y-107537552D01*
X72257557Y-107549647D01*
X72233366Y-107561742D01*
X72184985Y-107561742D01*
X72160795Y-107549647D01*
X72148700Y-107537552D01*
X72136604Y-107513361D01*
D13*
X71882000Y-106081580D02*
X71882000Y-106319676D01*
X72120095Y-106224438D02*
X71882000Y-106319676D01*
X71643904Y-106224438D01*
X72024857Y-106510152D02*
X71882000Y-106319676D01*
X71739142Y-106510152D01*
D12*
X72352504Y-99671414D02*
X72352504Y-99816557D01*
X72606504Y-99743985D02*
X72352504Y-99743985D01*
X72352504Y-99864938D02*
X72606504Y-99949604D01*
X72352504Y-100034271D01*
X72594409Y-100106842D02*
X72606504Y-100143128D01*
X72606504Y-100203604D01*
X72594409Y-100227795D01*
X72582314Y-100239890D01*
X72558123Y-100251985D01*
X72533933Y-100251985D01*
X72509742Y-100239890D01*
X72497647Y-100227795D01*
X72485552Y-100203604D01*
X72473457Y-100155223D01*
X72461361Y-100131033D01*
X72449266Y-100118938D01*
X72425076Y-100106842D01*
X72400885Y-100106842D01*
X72376695Y-100118938D01*
X72364600Y-100131033D01*
X72352504Y-100155223D01*
X72352504Y-100215700D01*
X72364600Y-100251985D01*
X72606504Y-100493890D02*
X72606504Y-100348747D01*
X72606504Y-100421319D02*
X72352504Y-100421319D01*
X72388790Y-100397128D01*
X72412980Y-100372938D01*
X72425076Y-100348747D01*
X72461361Y-100639033D02*
X72449266Y-100614842D01*
X72437171Y-100602747D01*
X72412980Y-100590652D01*
X72400885Y-100590652D01*
X72376695Y-100602747D01*
X72364600Y-100614842D01*
X72352504Y-100639033D01*
X72352504Y-100687414D01*
X72364600Y-100711604D01*
X72376695Y-100723700D01*
X72400885Y-100735795D01*
X72412980Y-100735795D01*
X72437171Y-100723700D01*
X72449266Y-100711604D01*
X72461361Y-100687414D01*
X72461361Y-100639033D01*
X72473457Y-100614842D01*
X72485552Y-100602747D01*
X72509742Y-100590652D01*
X72558123Y-100590652D01*
X72582314Y-100602747D01*
X72594409Y-100614842D01*
X72606504Y-100639033D01*
X72606504Y-100687414D01*
X72594409Y-100711604D01*
X72582314Y-100723700D01*
X72558123Y-100735795D01*
X72509742Y-100735795D01*
X72485552Y-100723700D01*
X72473457Y-100711604D01*
X72461361Y-100687414D01*
D13*
X71029580Y-100990400D02*
X71267676Y-100990400D01*
X71172438Y-100752304D02*
X71267676Y-100990400D01*
X71172438Y-101228495D01*
X71458152Y-100847542D02*
X71267676Y-100990400D01*
X71458152Y-101133257D01*
D12*
X56589385Y-101206904D02*
X56444242Y-101206904D01*
X56516814Y-101460904D02*
X56516814Y-101206904D01*
X56395861Y-101206904D02*
X56311195Y-101460904D01*
X56226528Y-101206904D01*
X56153957Y-101448809D02*
X56117671Y-101460904D01*
X56057195Y-101460904D01*
X56033004Y-101448809D01*
X56020909Y-101436714D01*
X56008814Y-101412523D01*
X56008814Y-101388333D01*
X56020909Y-101364142D01*
X56033004Y-101352047D01*
X56057195Y-101339952D01*
X56105576Y-101327857D01*
X56129766Y-101315761D01*
X56141861Y-101303666D01*
X56153957Y-101279476D01*
X56153957Y-101255285D01*
X56141861Y-101231095D01*
X56129766Y-101219000D01*
X56105576Y-101206904D01*
X56045100Y-101206904D01*
X56008814Y-101219000D01*
X55766909Y-101460904D02*
X55912052Y-101460904D01*
X55839480Y-101460904D02*
X55839480Y-101206904D01*
X55863671Y-101243190D01*
X55887861Y-101267380D01*
X55912052Y-101279476D01*
X55682242Y-101206904D02*
X55512909Y-101206904D01*
X55621766Y-101460904D01*
D13*
X55270400Y-99883980D02*
X55270400Y-100122076D01*
X55508495Y-100026838D02*
X55270400Y-100122076D01*
X55032304Y-100026838D01*
X55413257Y-100312552D02*
X55270400Y-100122076D01*
X55127542Y-100312552D01*
D12*
X56538585Y-98412904D02*
X56393442Y-98412904D01*
X56466014Y-98666904D02*
X56466014Y-98412904D01*
X56345061Y-98412904D02*
X56260395Y-98666904D01*
X56175728Y-98412904D01*
X56103157Y-98654809D02*
X56066871Y-98666904D01*
X56006395Y-98666904D01*
X55982204Y-98654809D01*
X55970109Y-98642714D01*
X55958014Y-98618523D01*
X55958014Y-98594333D01*
X55970109Y-98570142D01*
X55982204Y-98558047D01*
X56006395Y-98545952D01*
X56054776Y-98533857D01*
X56078966Y-98521761D01*
X56091061Y-98509666D01*
X56103157Y-98485476D01*
X56103157Y-98461285D01*
X56091061Y-98437095D01*
X56078966Y-98425000D01*
X56054776Y-98412904D01*
X55994300Y-98412904D01*
X55958014Y-98425000D01*
X55716109Y-98666904D02*
X55861252Y-98666904D01*
X55788680Y-98666904D02*
X55788680Y-98412904D01*
X55812871Y-98449190D01*
X55837061Y-98473380D01*
X55861252Y-98485476D01*
X55498395Y-98412904D02*
X55546776Y-98412904D01*
X55570966Y-98425000D01*
X55583061Y-98437095D01*
X55607252Y-98473380D01*
X55619347Y-98521761D01*
X55619347Y-98618523D01*
X55607252Y-98642714D01*
X55595157Y-98654809D01*
X55570966Y-98666904D01*
X55522585Y-98666904D01*
X55498395Y-98654809D01*
X55486300Y-98642714D01*
X55474204Y-98618523D01*
X55474204Y-98558047D01*
X55486300Y-98533857D01*
X55498395Y-98521761D01*
X55522585Y-98509666D01*
X55570966Y-98509666D01*
X55595157Y-98521761D01*
X55607252Y-98533857D01*
X55619347Y-98558047D01*
D13*
X55219600Y-97089980D02*
X55219600Y-97328076D01*
X55457695Y-97232838D02*
X55219600Y-97328076D01*
X54981504Y-97232838D01*
X55362457Y-97518552D02*
X55219600Y-97328076D01*
X55076742Y-97518552D01*
D12*
X56589385Y-104000904D02*
X56444242Y-104000904D01*
X56516814Y-104254904D02*
X56516814Y-104000904D01*
X56395861Y-104000904D02*
X56311195Y-104254904D01*
X56226528Y-104000904D01*
X56153957Y-104242809D02*
X56117671Y-104254904D01*
X56057195Y-104254904D01*
X56033004Y-104242809D01*
X56020909Y-104230714D01*
X56008814Y-104206523D01*
X56008814Y-104182333D01*
X56020909Y-104158142D01*
X56033004Y-104146047D01*
X56057195Y-104133952D01*
X56105576Y-104121857D01*
X56129766Y-104109761D01*
X56141861Y-104097666D01*
X56153957Y-104073476D01*
X56153957Y-104049285D01*
X56141861Y-104025095D01*
X56129766Y-104013000D01*
X56105576Y-104000904D01*
X56045100Y-104000904D01*
X56008814Y-104013000D01*
X55766909Y-104254904D02*
X55912052Y-104254904D01*
X55839480Y-104254904D02*
X55839480Y-104000904D01*
X55863671Y-104037190D01*
X55887861Y-104061380D01*
X55912052Y-104073476D01*
X55537100Y-104000904D02*
X55658052Y-104000904D01*
X55670147Y-104121857D01*
X55658052Y-104109761D01*
X55633861Y-104097666D01*
X55573385Y-104097666D01*
X55549195Y-104109761D01*
X55537100Y-104121857D01*
X55525004Y-104146047D01*
X55525004Y-104206523D01*
X55537100Y-104230714D01*
X55549195Y-104242809D01*
X55573385Y-104254904D01*
X55633861Y-104254904D01*
X55658052Y-104242809D01*
X55670147Y-104230714D01*
D13*
X55270400Y-102677980D02*
X55270400Y-102916076D01*
X55508495Y-102820838D02*
X55270400Y-102916076D01*
X55032304Y-102820838D01*
X55413257Y-103106552D02*
X55270400Y-102916076D01*
X55127542Y-103106552D01*
D12*
X39632784Y-108296203D02*
X39487641Y-108296203D01*
X39560213Y-108550203D02*
X39560213Y-108296203D01*
X39439260Y-108296203D02*
X39354594Y-108550203D01*
X39269927Y-108296203D01*
X39197356Y-108538108D02*
X39161070Y-108550203D01*
X39100594Y-108550203D01*
X39076403Y-108538108D01*
X39064308Y-108526013D01*
X39052213Y-108501822D01*
X39052213Y-108477632D01*
X39064308Y-108453441D01*
X39076403Y-108441346D01*
X39100594Y-108429251D01*
X39148975Y-108417156D01*
X39173165Y-108405060D01*
X39185260Y-108392965D01*
X39197356Y-108368775D01*
X39197356Y-108344584D01*
X39185260Y-108320394D01*
X39173165Y-108308299D01*
X39148975Y-108296203D01*
X39088499Y-108296203D01*
X39052213Y-108308299D01*
X38810308Y-108550203D02*
X38955451Y-108550203D01*
X38882879Y-108550203D02*
X38882879Y-108296203D01*
X38907070Y-108332489D01*
X38931260Y-108356679D01*
X38955451Y-108368775D01*
X38592594Y-108380870D02*
X38592594Y-108550203D01*
X38653070Y-108284108D02*
X38713546Y-108465537D01*
X38556308Y-108465537D01*
D13*
X39863199Y-108802079D02*
X39863199Y-109040175D01*
X40101294Y-108944937D02*
X39863199Y-109040175D01*
X39625103Y-108944937D01*
X40006056Y-109230651D02*
X39863199Y-109040175D01*
X39720341Y-109230651D01*
D12*
X39596785Y-105474104D02*
X39451642Y-105474104D01*
X39524214Y-105728104D02*
X39524214Y-105474104D01*
X39403261Y-105474104D02*
X39318595Y-105728104D01*
X39233928Y-105474104D01*
X39161357Y-105716009D02*
X39125071Y-105728104D01*
X39064595Y-105728104D01*
X39040404Y-105716009D01*
X39028309Y-105703914D01*
X39016214Y-105679723D01*
X39016214Y-105655533D01*
X39028309Y-105631342D01*
X39040404Y-105619247D01*
X39064595Y-105607152D01*
X39112976Y-105595057D01*
X39137166Y-105582961D01*
X39149261Y-105570866D01*
X39161357Y-105546676D01*
X39161357Y-105522485D01*
X39149261Y-105498295D01*
X39137166Y-105486200D01*
X39112976Y-105474104D01*
X39052500Y-105474104D01*
X39016214Y-105486200D01*
X38774309Y-105728104D02*
X38919452Y-105728104D01*
X38846880Y-105728104D02*
X38846880Y-105474104D01*
X38871071Y-105510390D01*
X38895261Y-105534580D01*
X38919452Y-105546676D01*
X38689642Y-105474104D02*
X38532404Y-105474104D01*
X38617071Y-105570866D01*
X38580785Y-105570866D01*
X38556595Y-105582961D01*
X38544500Y-105595057D01*
X38532404Y-105619247D01*
X38532404Y-105679723D01*
X38544500Y-105703914D01*
X38556595Y-105716009D01*
X38580785Y-105728104D01*
X38653357Y-105728104D01*
X38677547Y-105716009D01*
X38689642Y-105703914D01*
D13*
X39827200Y-105979980D02*
X39827200Y-106218076D01*
X40065295Y-106122838D02*
X39827200Y-106218076D01*
X39589104Y-106122838D01*
X39970057Y-106408552D02*
X39827200Y-106218076D01*
X39684342Y-106408552D01*
D12*
X39632784Y-111112904D02*
X39487641Y-111112904D01*
X39560213Y-111366904D02*
X39560213Y-111112904D01*
X39439260Y-111112904D02*
X39354594Y-111366904D01*
X39269927Y-111112904D01*
X39197356Y-111354809D02*
X39161070Y-111366904D01*
X39100594Y-111366904D01*
X39076403Y-111354809D01*
X39064308Y-111342714D01*
X39052213Y-111318523D01*
X39052213Y-111294333D01*
X39064308Y-111270142D01*
X39076403Y-111258047D01*
X39100594Y-111245952D01*
X39148975Y-111233857D01*
X39173165Y-111221761D01*
X39185260Y-111209666D01*
X39197356Y-111185476D01*
X39197356Y-111161285D01*
X39185260Y-111137095D01*
X39173165Y-111125000D01*
X39148975Y-111112904D01*
X39088499Y-111112904D01*
X39052213Y-111125000D01*
X38810308Y-111366904D02*
X38955451Y-111366904D01*
X38882879Y-111366904D02*
X38882879Y-111112904D01*
X38907070Y-111149190D01*
X38931260Y-111173380D01*
X38955451Y-111185476D01*
X38713546Y-111137095D02*
X38701451Y-111125000D01*
X38677260Y-111112904D01*
X38616784Y-111112904D01*
X38592594Y-111125000D01*
X38580499Y-111137095D01*
X38568403Y-111161285D01*
X38568403Y-111185476D01*
X38580499Y-111221761D01*
X38725641Y-111366904D01*
X38568403Y-111366904D01*
D13*
X39863199Y-111618780D02*
X39863199Y-111856876D01*
X40101294Y-111761638D02*
X39863199Y-111856876D01*
X39625103Y-111761638D01*
X40006056Y-112047352D02*
X39863199Y-111856876D01*
X39720341Y-112047352D01*
D12*
X45387985Y-108318904D02*
X45242842Y-108318904D01*
X45315414Y-108572904D02*
X45315414Y-108318904D01*
X45194461Y-108318904D02*
X45109795Y-108572904D01*
X45025128Y-108318904D01*
X44952557Y-108560809D02*
X44916271Y-108572904D01*
X44855795Y-108572904D01*
X44831604Y-108560809D01*
X44819509Y-108548714D01*
X44807414Y-108524523D01*
X44807414Y-108500333D01*
X44819509Y-108476142D01*
X44831604Y-108464047D01*
X44855795Y-108451952D01*
X44904176Y-108439857D01*
X44928366Y-108427761D01*
X44940461Y-108415666D01*
X44952557Y-108391476D01*
X44952557Y-108367285D01*
X44940461Y-108343095D01*
X44928366Y-108331000D01*
X44904176Y-108318904D01*
X44843700Y-108318904D01*
X44807414Y-108331000D01*
X44565509Y-108572904D02*
X44710652Y-108572904D01*
X44638080Y-108572904D02*
X44638080Y-108318904D01*
X44662271Y-108355190D01*
X44686461Y-108379380D01*
X44710652Y-108391476D01*
X44323604Y-108572904D02*
X44468747Y-108572904D01*
X44396176Y-108572904D02*
X44396176Y-108318904D01*
X44420366Y-108355190D01*
X44444557Y-108379380D01*
X44468747Y-108391476D01*
D13*
X45618400Y-108824780D02*
X45618400Y-109062876D01*
X45856495Y-108967638D02*
X45618400Y-109062876D01*
X45380304Y-108967638D01*
X45761257Y-109253352D02*
X45618400Y-109062876D01*
X45475542Y-109253352D01*
D12*
X45387985Y-111112904D02*
X45242842Y-111112904D01*
X45315414Y-111366904D02*
X45315414Y-111112904D01*
X45194461Y-111112904D02*
X45109795Y-111366904D01*
X45025128Y-111112904D01*
X44952557Y-111354809D02*
X44916271Y-111366904D01*
X44855795Y-111366904D01*
X44831604Y-111354809D01*
X44819509Y-111342714D01*
X44807414Y-111318523D01*
X44807414Y-111294333D01*
X44819509Y-111270142D01*
X44831604Y-111258047D01*
X44855795Y-111245952D01*
X44904176Y-111233857D01*
X44928366Y-111221761D01*
X44940461Y-111209666D01*
X44952557Y-111185476D01*
X44952557Y-111161285D01*
X44940461Y-111137095D01*
X44928366Y-111125000D01*
X44904176Y-111112904D01*
X44843700Y-111112904D01*
X44807414Y-111125000D01*
X44565509Y-111366904D02*
X44710652Y-111366904D01*
X44638080Y-111366904D02*
X44638080Y-111112904D01*
X44662271Y-111149190D01*
X44686461Y-111173380D01*
X44710652Y-111185476D01*
X44408271Y-111112904D02*
X44384080Y-111112904D01*
X44359890Y-111125000D01*
X44347795Y-111137095D01*
X44335700Y-111161285D01*
X44323604Y-111209666D01*
X44323604Y-111270142D01*
X44335700Y-111318523D01*
X44347795Y-111342714D01*
X44359890Y-111354809D01*
X44384080Y-111366904D01*
X44408271Y-111366904D01*
X44432461Y-111354809D01*
X44444557Y-111342714D01*
X44456652Y-111318523D01*
X44468747Y-111270142D01*
X44468747Y-111209666D01*
X44456652Y-111161285D01*
X44444557Y-111137095D01*
X44432461Y-111125000D01*
X44408271Y-111112904D01*
D13*
X45618400Y-111618780D02*
X45618400Y-111856876D01*
X45856495Y-111761638D02*
X45618400Y-111856876D01*
X45380304Y-111761638D01*
X45761257Y-112047352D02*
X45618400Y-111856876D01*
X45475542Y-112047352D01*
D12*
X45267033Y-105474104D02*
X45121890Y-105474104D01*
X45194461Y-105728104D02*
X45194461Y-105474104D01*
X45073509Y-105474104D02*
X44988842Y-105728104D01*
X44904176Y-105474104D01*
X44831604Y-105716009D02*
X44795319Y-105728104D01*
X44734842Y-105728104D01*
X44710652Y-105716009D01*
X44698557Y-105703914D01*
X44686461Y-105679723D01*
X44686461Y-105655533D01*
X44698557Y-105631342D01*
X44710652Y-105619247D01*
X44734842Y-105607152D01*
X44783223Y-105595057D01*
X44807414Y-105582961D01*
X44819509Y-105570866D01*
X44831604Y-105546676D01*
X44831604Y-105522485D01*
X44819509Y-105498295D01*
X44807414Y-105486200D01*
X44783223Y-105474104D01*
X44722747Y-105474104D01*
X44686461Y-105486200D01*
X44565509Y-105728104D02*
X44517128Y-105728104D01*
X44492938Y-105716009D01*
X44480842Y-105703914D01*
X44456652Y-105667628D01*
X44444557Y-105619247D01*
X44444557Y-105522485D01*
X44456652Y-105498295D01*
X44468747Y-105486200D01*
X44492938Y-105474104D01*
X44541319Y-105474104D01*
X44565509Y-105486200D01*
X44577604Y-105498295D01*
X44589700Y-105522485D01*
X44589700Y-105582961D01*
X44577604Y-105607152D01*
X44565509Y-105619247D01*
X44541319Y-105631342D01*
X44492938Y-105631342D01*
X44468747Y-105619247D01*
X44456652Y-105607152D01*
X44444557Y-105582961D01*
D13*
X45618400Y-105979980D02*
X45618400Y-106218076D01*
X45856495Y-106122838D02*
X45618400Y-106218076D01*
X45380304Y-106122838D01*
X45761257Y-106408552D02*
X45618400Y-106218076D01*
X45475542Y-106408552D01*
D12*
X66857033Y-112916304D02*
X66711890Y-112916304D01*
X66784461Y-113170304D02*
X66784461Y-112916304D01*
X66663509Y-112916304D02*
X66578842Y-113170304D01*
X66494176Y-112916304D01*
X66421604Y-113158209D02*
X66385319Y-113170304D01*
X66324842Y-113170304D01*
X66300652Y-113158209D01*
X66288557Y-113146114D01*
X66276461Y-113121923D01*
X66276461Y-113097733D01*
X66288557Y-113073542D01*
X66300652Y-113061447D01*
X66324842Y-113049352D01*
X66373223Y-113037257D01*
X66397414Y-113025161D01*
X66409509Y-113013066D01*
X66421604Y-112988876D01*
X66421604Y-112964685D01*
X66409509Y-112940495D01*
X66397414Y-112928400D01*
X66373223Y-112916304D01*
X66312747Y-112916304D01*
X66276461Y-112928400D01*
X66131319Y-113025161D02*
X66155509Y-113013066D01*
X66167604Y-113000971D01*
X66179700Y-112976780D01*
X66179700Y-112964685D01*
X66167604Y-112940495D01*
X66155509Y-112928400D01*
X66131319Y-112916304D01*
X66082938Y-112916304D01*
X66058747Y-112928400D01*
X66046652Y-112940495D01*
X66034557Y-112964685D01*
X66034557Y-112976780D01*
X66046652Y-113000971D01*
X66058747Y-113013066D01*
X66082938Y-113025161D01*
X66131319Y-113025161D01*
X66155509Y-113037257D01*
X66167604Y-113049352D01*
X66179700Y-113073542D01*
X66179700Y-113121923D01*
X66167604Y-113146114D01*
X66155509Y-113158209D01*
X66131319Y-113170304D01*
X66082938Y-113170304D01*
X66058747Y-113158209D01*
X66046652Y-113146114D01*
X66034557Y-113121923D01*
X66034557Y-113073542D01*
X66046652Y-113049352D01*
X66058747Y-113037257D01*
X66082938Y-113025161D01*
D13*
X65659000Y-111593380D02*
X65659000Y-111831476D01*
X65897095Y-111736238D02*
X65659000Y-111831476D01*
X65420904Y-111736238D01*
X65801857Y-112021952D02*
X65659000Y-111831476D01*
X65516142Y-112021952D01*
D12*
X66857033Y-110122304D02*
X66711890Y-110122304D01*
X66784461Y-110376304D02*
X66784461Y-110122304D01*
X66663509Y-110122304D02*
X66578842Y-110376304D01*
X66494176Y-110122304D01*
X66421604Y-110364209D02*
X66385319Y-110376304D01*
X66324842Y-110376304D01*
X66300652Y-110364209D01*
X66288557Y-110352114D01*
X66276461Y-110327923D01*
X66276461Y-110303733D01*
X66288557Y-110279542D01*
X66300652Y-110267447D01*
X66324842Y-110255352D01*
X66373223Y-110243257D01*
X66397414Y-110231161D01*
X66409509Y-110219066D01*
X66421604Y-110194876D01*
X66421604Y-110170685D01*
X66409509Y-110146495D01*
X66397414Y-110134400D01*
X66373223Y-110122304D01*
X66312747Y-110122304D01*
X66276461Y-110134400D01*
X66191795Y-110122304D02*
X66022461Y-110122304D01*
X66131319Y-110376304D01*
D13*
X65659000Y-108799380D02*
X65659000Y-109037476D01*
X65897095Y-108942238D02*
X65659000Y-109037476D01*
X65420904Y-108942238D01*
X65801857Y-109227952D02*
X65659000Y-109037476D01*
X65516142Y-109227952D01*
D12*
X66857033Y-115710304D02*
X66711890Y-115710304D01*
X66784461Y-115964304D02*
X66784461Y-115710304D01*
X66663509Y-115710304D02*
X66578842Y-115964304D01*
X66494176Y-115710304D01*
X66421604Y-115952209D02*
X66385319Y-115964304D01*
X66324842Y-115964304D01*
X66300652Y-115952209D01*
X66288557Y-115940114D01*
X66276461Y-115915923D01*
X66276461Y-115891733D01*
X66288557Y-115867542D01*
X66300652Y-115855447D01*
X66324842Y-115843352D01*
X66373223Y-115831257D01*
X66397414Y-115819161D01*
X66409509Y-115807066D01*
X66421604Y-115782876D01*
X66421604Y-115758685D01*
X66409509Y-115734495D01*
X66397414Y-115722400D01*
X66373223Y-115710304D01*
X66312747Y-115710304D01*
X66276461Y-115722400D01*
X66058747Y-115710304D02*
X66107128Y-115710304D01*
X66131319Y-115722400D01*
X66143414Y-115734495D01*
X66167604Y-115770780D01*
X66179700Y-115819161D01*
X66179700Y-115915923D01*
X66167604Y-115940114D01*
X66155509Y-115952209D01*
X66131319Y-115964304D01*
X66082938Y-115964304D01*
X66058747Y-115952209D01*
X66046652Y-115940114D01*
X66034557Y-115915923D01*
X66034557Y-115855447D01*
X66046652Y-115831257D01*
X66058747Y-115819161D01*
X66082938Y-115807066D01*
X66131319Y-115807066D01*
X66155509Y-115819161D01*
X66167604Y-115831257D01*
X66179700Y-115855447D01*
D13*
X65659000Y-114387380D02*
X65659000Y-114625476D01*
X65897095Y-114530238D02*
X65659000Y-114625476D01*
X65420904Y-114530238D01*
X65801857Y-114815952D02*
X65659000Y-114625476D01*
X65516142Y-114815952D01*
D12*
X72572033Y-115710304D02*
X72426890Y-115710304D01*
X72499461Y-115964304D02*
X72499461Y-115710304D01*
X72378509Y-115710304D02*
X72293842Y-115964304D01*
X72209176Y-115710304D01*
X72136604Y-115952209D02*
X72100319Y-115964304D01*
X72039842Y-115964304D01*
X72015652Y-115952209D01*
X72003557Y-115940114D01*
X71991461Y-115915923D01*
X71991461Y-115891733D01*
X72003557Y-115867542D01*
X72015652Y-115855447D01*
X72039842Y-115843352D01*
X72088223Y-115831257D01*
X72112414Y-115819161D01*
X72124509Y-115807066D01*
X72136604Y-115782876D01*
X72136604Y-115758685D01*
X72124509Y-115734495D01*
X72112414Y-115722400D01*
X72088223Y-115710304D01*
X72027747Y-115710304D01*
X71991461Y-115722400D01*
X71773747Y-115794971D02*
X71773747Y-115964304D01*
X71834223Y-115698209D02*
X71894700Y-115879638D01*
X71737461Y-115879638D01*
D13*
X71374000Y-114387380D02*
X71374000Y-114625476D01*
X71612095Y-114530238D02*
X71374000Y-114625476D01*
X71135904Y-114530238D01*
X71516857Y-114815952D02*
X71374000Y-114625476D01*
X71231142Y-114815952D01*
D12*
X72572033Y-110122304D02*
X72426890Y-110122304D01*
X72499461Y-110376304D02*
X72499461Y-110122304D01*
X72378509Y-110122304D02*
X72293842Y-110376304D01*
X72209176Y-110122304D01*
X72136604Y-110364209D02*
X72100319Y-110376304D01*
X72039842Y-110376304D01*
X72015652Y-110364209D01*
X72003557Y-110352114D01*
X71991461Y-110327923D01*
X71991461Y-110303733D01*
X72003557Y-110279542D01*
X72015652Y-110267447D01*
X72039842Y-110255352D01*
X72088223Y-110243257D01*
X72112414Y-110231161D01*
X72124509Y-110219066D01*
X72136604Y-110194876D01*
X72136604Y-110170685D01*
X72124509Y-110146495D01*
X72112414Y-110134400D01*
X72088223Y-110122304D01*
X72027747Y-110122304D01*
X71991461Y-110134400D01*
X71906795Y-110122304D02*
X71749557Y-110122304D01*
X71834223Y-110219066D01*
X71797938Y-110219066D01*
X71773747Y-110231161D01*
X71761652Y-110243257D01*
X71749557Y-110267447D01*
X71749557Y-110327923D01*
X71761652Y-110352114D01*
X71773747Y-110364209D01*
X71797938Y-110376304D01*
X71870509Y-110376304D01*
X71894700Y-110364209D01*
X71906795Y-110352114D01*
D13*
X71374000Y-108799380D02*
X71374000Y-109037476D01*
X71612095Y-108942238D02*
X71374000Y-109037476D01*
X71135904Y-108942238D01*
X71516857Y-109227952D02*
X71374000Y-109037476D01*
X71231142Y-109227952D01*
D12*
X39180104Y-90248014D02*
X39059152Y-90163347D01*
X39180104Y-90102871D02*
X38926104Y-90102871D01*
X38926104Y-90199633D01*
X38938200Y-90223823D01*
X38950295Y-90235919D01*
X38974485Y-90248014D01*
X39010771Y-90248014D01*
X39034961Y-90235919D01*
X39047057Y-90223823D01*
X39059152Y-90199633D01*
X39059152Y-90102871D01*
X38926104Y-90332680D02*
X38926104Y-90502014D01*
X39180104Y-90393157D01*
X39180104Y-90610871D02*
X39180104Y-90659252D01*
X39168009Y-90683442D01*
X39155914Y-90695538D01*
X39119628Y-90719728D01*
X39071247Y-90731823D01*
X38974485Y-90731823D01*
X38950295Y-90719728D01*
X38938200Y-90707633D01*
X38926104Y-90683442D01*
X38926104Y-90635061D01*
X38938200Y-90610871D01*
X38950295Y-90598776D01*
X38974485Y-90586680D01*
X39034961Y-90586680D01*
X39059152Y-90598776D01*
X39071247Y-90610871D01*
X39083342Y-90635061D01*
X39083342Y-90683442D01*
X39071247Y-90707633D01*
X39059152Y-90719728D01*
X39034961Y-90731823D01*
D13*
X37399980Y-90678000D02*
X37638076Y-90678000D01*
X37542838Y-90439904D02*
X37638076Y-90678000D01*
X37542838Y-90916095D01*
X37828552Y-90535142D02*
X37638076Y-90678000D01*
X37828552Y-90820857D01*
D12*
X38872885Y-93472604D02*
X38957552Y-93351652D01*
X39018028Y-93472604D02*
X39018028Y-93218604D01*
X38921266Y-93218604D01*
X38897076Y-93230700D01*
X38884980Y-93242795D01*
X38872885Y-93266985D01*
X38872885Y-93303271D01*
X38884980Y-93327461D01*
X38897076Y-93339557D01*
X38921266Y-93351652D01*
X39018028Y-93351652D01*
X38788219Y-93218604D02*
X38618885Y-93218604D01*
X38727742Y-93472604D01*
X38485838Y-93327461D02*
X38510028Y-93315366D01*
X38522123Y-93303271D01*
X38534219Y-93279080D01*
X38534219Y-93266985D01*
X38522123Y-93242795D01*
X38510028Y-93230700D01*
X38485838Y-93218604D01*
X38437457Y-93218604D01*
X38413266Y-93230700D01*
X38401171Y-93242795D01*
X38389076Y-93266985D01*
X38389076Y-93279080D01*
X38401171Y-93303271D01*
X38413266Y-93315366D01*
X38437457Y-93327461D01*
X38485838Y-93327461D01*
X38510028Y-93339557D01*
X38522123Y-93351652D01*
X38534219Y-93375842D01*
X38534219Y-93424223D01*
X38522123Y-93448414D01*
X38510028Y-93460509D01*
X38485838Y-93472604D01*
X38437457Y-93472604D01*
X38413266Y-93460509D01*
X38401171Y-93448414D01*
X38389076Y-93424223D01*
X38389076Y-93375842D01*
X38401171Y-93351652D01*
X38413266Y-93339557D01*
X38437457Y-93327461D01*
D13*
X38354000Y-92009980D02*
X38354000Y-92248076D01*
X38592095Y-92152838D02*
X38354000Y-92248076D01*
X38115904Y-92152838D01*
X38496857Y-92438552D02*
X38354000Y-92248076D01*
X38211142Y-92438552D01*
D12*
X38872885Y-94945804D02*
X38957552Y-94824852D01*
X39018028Y-94945804D02*
X39018028Y-94691804D01*
X38921266Y-94691804D01*
X38897076Y-94703900D01*
X38884980Y-94715995D01*
X38872885Y-94740185D01*
X38872885Y-94776471D01*
X38884980Y-94800661D01*
X38897076Y-94812757D01*
X38921266Y-94824852D01*
X39018028Y-94824852D01*
X38788219Y-94691804D02*
X38618885Y-94691804D01*
X38727742Y-94945804D01*
X38546314Y-94691804D02*
X38376980Y-94691804D01*
X38485838Y-94945804D01*
D13*
X38354000Y-93483180D02*
X38354000Y-93721276D01*
X38592095Y-93626038D02*
X38354000Y-93721276D01*
X38115904Y-93626038D01*
X38496857Y-93911752D02*
X38354000Y-93721276D01*
X38211142Y-93911752D01*
D12*
X38872885Y-96419004D02*
X38957552Y-96298052D01*
X39018028Y-96419004D02*
X39018028Y-96165004D01*
X38921266Y-96165004D01*
X38897076Y-96177100D01*
X38884980Y-96189195D01*
X38872885Y-96213385D01*
X38872885Y-96249671D01*
X38884980Y-96273861D01*
X38897076Y-96285957D01*
X38921266Y-96298052D01*
X39018028Y-96298052D01*
X38788219Y-96165004D02*
X38618885Y-96165004D01*
X38727742Y-96419004D01*
X38413266Y-96165004D02*
X38461647Y-96165004D01*
X38485838Y-96177100D01*
X38497933Y-96189195D01*
X38522123Y-96225480D01*
X38534219Y-96273861D01*
X38534219Y-96370623D01*
X38522123Y-96394814D01*
X38510028Y-96406909D01*
X38485838Y-96419004D01*
X38437457Y-96419004D01*
X38413266Y-96406909D01*
X38401171Y-96394814D01*
X38389076Y-96370623D01*
X38389076Y-96310147D01*
X38401171Y-96285957D01*
X38413266Y-96273861D01*
X38437457Y-96261766D01*
X38485838Y-96261766D01*
X38510028Y-96273861D01*
X38522123Y-96285957D01*
X38534219Y-96310147D01*
D13*
X38354000Y-94956380D02*
X38354000Y-95194476D01*
X38592095Y-95099238D02*
X38354000Y-95194476D01*
X38115904Y-95099238D01*
X38496857Y-95384952D02*
X38354000Y-95194476D01*
X38211142Y-95384952D01*
D12*
X38872885Y-97892204D02*
X38957552Y-97771252D01*
X39018028Y-97892204D02*
X39018028Y-97638204D01*
X38921266Y-97638204D01*
X38897076Y-97650300D01*
X38884980Y-97662395D01*
X38872885Y-97686585D01*
X38872885Y-97722871D01*
X38884980Y-97747061D01*
X38897076Y-97759157D01*
X38921266Y-97771252D01*
X39018028Y-97771252D01*
X38788219Y-97638204D02*
X38618885Y-97638204D01*
X38727742Y-97892204D01*
X38401171Y-97638204D02*
X38522123Y-97638204D01*
X38534219Y-97759157D01*
X38522123Y-97747061D01*
X38497933Y-97734966D01*
X38437457Y-97734966D01*
X38413266Y-97747061D01*
X38401171Y-97759157D01*
X38389076Y-97783347D01*
X38389076Y-97843823D01*
X38401171Y-97868014D01*
X38413266Y-97880109D01*
X38437457Y-97892204D01*
X38497933Y-97892204D01*
X38522123Y-97880109D01*
X38534219Y-97868014D01*
D13*
X38354000Y-96429580D02*
X38354000Y-96667676D01*
X38592095Y-96572438D02*
X38354000Y-96667676D01*
X38115904Y-96572438D01*
X38496857Y-96858152D02*
X38354000Y-96667676D01*
X38211142Y-96858152D01*
D12*
X39901585Y-86132004D02*
X39986252Y-86011052D01*
X40046728Y-86132004D02*
X40046728Y-85878004D01*
X39949966Y-85878004D01*
X39925776Y-85890100D01*
X39913680Y-85902195D01*
X39901585Y-85926385D01*
X39901585Y-85962671D01*
X39913680Y-85986861D01*
X39925776Y-85998957D01*
X39949966Y-86011052D01*
X40046728Y-86011052D01*
X39816919Y-85878004D02*
X39647585Y-85878004D01*
X39756442Y-86132004D01*
X39441966Y-85962671D02*
X39441966Y-86132004D01*
X39502442Y-85865909D02*
X39562919Y-86047338D01*
X39405680Y-86047338D01*
D13*
X40081200Y-86269580D02*
X40081200Y-86507676D01*
X40319295Y-86412438D02*
X40081200Y-86507676D01*
X39843104Y-86412438D01*
X40224057Y-86698152D02*
X40081200Y-86507676D01*
X39938342Y-86698152D01*
D12*
X39888885Y-84658804D02*
X39973552Y-84537852D01*
X40034028Y-84658804D02*
X40034028Y-84404804D01*
X39937266Y-84404804D01*
X39913076Y-84416900D01*
X39900980Y-84428995D01*
X39888885Y-84453185D01*
X39888885Y-84489471D01*
X39900980Y-84513661D01*
X39913076Y-84525757D01*
X39937266Y-84537852D01*
X40034028Y-84537852D01*
X39804219Y-84404804D02*
X39634885Y-84404804D01*
X39743742Y-84658804D01*
X39562314Y-84404804D02*
X39405076Y-84404804D01*
X39489742Y-84501566D01*
X39453457Y-84501566D01*
X39429266Y-84513661D01*
X39417171Y-84525757D01*
X39405076Y-84549947D01*
X39405076Y-84610423D01*
X39417171Y-84634614D01*
X39429266Y-84646709D01*
X39453457Y-84658804D01*
X39526028Y-84658804D01*
X39550219Y-84646709D01*
X39562314Y-84634614D01*
D13*
X40068500Y-84796380D02*
X40068500Y-85034476D01*
X40306595Y-84939238D02*
X40068500Y-85034476D01*
X39830404Y-84939238D01*
X40211357Y-85224952D02*
X40068500Y-85034476D01*
X39925642Y-85224952D01*
D12*
X51880104Y-87225414D02*
X51759152Y-87140747D01*
X51880104Y-87080271D02*
X51626104Y-87080271D01*
X51626104Y-87177033D01*
X51638200Y-87201223D01*
X51650295Y-87213319D01*
X51674485Y-87225414D01*
X51710771Y-87225414D01*
X51734961Y-87213319D01*
X51747057Y-87201223D01*
X51759152Y-87177033D01*
X51759152Y-87080271D01*
X51626104Y-87310080D02*
X51626104Y-87479414D01*
X51880104Y-87370557D01*
X51626104Y-87624557D02*
X51626104Y-87648747D01*
X51638200Y-87672938D01*
X51650295Y-87685033D01*
X51674485Y-87697128D01*
X51722866Y-87709223D01*
X51783342Y-87709223D01*
X51831723Y-87697128D01*
X51855914Y-87685033D01*
X51868009Y-87672938D01*
X51880104Y-87648747D01*
X51880104Y-87624557D01*
X51868009Y-87600366D01*
X51855914Y-87588271D01*
X51831723Y-87576176D01*
X51783342Y-87564080D01*
X51722866Y-87564080D01*
X51674485Y-87576176D01*
X51650295Y-87588271D01*
X51638200Y-87600366D01*
X51626104Y-87624557D01*
D13*
X52335180Y-87122000D02*
X52573276Y-87122000D01*
X52478038Y-86883904D02*
X52573276Y-87122000D01*
X52478038Y-87360095D01*
X52763752Y-86979142D02*
X52573276Y-87122000D01*
X52763752Y-87264857D01*
D12*
X51141085Y-85484304D02*
X51225752Y-85363352D01*
X51286228Y-85484304D02*
X51286228Y-85230304D01*
X51189466Y-85230304D01*
X51165276Y-85242400D01*
X51153180Y-85254495D01*
X51141085Y-85278685D01*
X51141085Y-85314971D01*
X51153180Y-85339161D01*
X51165276Y-85351257D01*
X51189466Y-85363352D01*
X51286228Y-85363352D01*
X50923371Y-85230304D02*
X50971752Y-85230304D01*
X50995942Y-85242400D01*
X51008038Y-85254495D01*
X51032228Y-85290780D01*
X51044323Y-85339161D01*
X51044323Y-85435923D01*
X51032228Y-85460114D01*
X51020133Y-85472209D01*
X50995942Y-85484304D01*
X50947561Y-85484304D01*
X50923371Y-85472209D01*
X50911276Y-85460114D01*
X50899180Y-85435923D01*
X50899180Y-85375447D01*
X50911276Y-85351257D01*
X50923371Y-85339161D01*
X50947561Y-85327066D01*
X50995942Y-85327066D01*
X51020133Y-85339161D01*
X51032228Y-85351257D01*
X51044323Y-85375447D01*
X50778228Y-85484304D02*
X50729847Y-85484304D01*
X50705657Y-85472209D01*
X50693561Y-85460114D01*
X50669371Y-85423828D01*
X50657276Y-85375447D01*
X50657276Y-85278685D01*
X50669371Y-85254495D01*
X50681466Y-85242400D01*
X50705657Y-85230304D01*
X50754038Y-85230304D01*
X50778228Y-85242400D01*
X50790323Y-85254495D01*
X50802419Y-85278685D01*
X50802419Y-85339161D01*
X50790323Y-85363352D01*
X50778228Y-85375447D01*
X50754038Y-85387542D01*
X50705657Y-85387542D01*
X50681466Y-85375447D01*
X50669371Y-85363352D01*
X50657276Y-85339161D01*
D13*
X50546000Y-84542380D02*
X50546000Y-84780476D01*
X50784095Y-84685238D02*
X50546000Y-84780476D01*
X50307904Y-84685238D01*
X50688857Y-84970952D02*
X50546000Y-84780476D01*
X50403142Y-84970952D01*
D12*
X51064885Y-84087304D02*
X51149552Y-83966352D01*
X51210028Y-84087304D02*
X51210028Y-83833304D01*
X51113266Y-83833304D01*
X51089076Y-83845400D01*
X51076980Y-83857495D01*
X51064885Y-83881685D01*
X51064885Y-83917971D01*
X51076980Y-83942161D01*
X51089076Y-83954257D01*
X51113266Y-83966352D01*
X51210028Y-83966352D01*
X50847171Y-83833304D02*
X50895552Y-83833304D01*
X50919742Y-83845400D01*
X50931838Y-83857495D01*
X50956028Y-83893780D01*
X50968123Y-83942161D01*
X50968123Y-84038923D01*
X50956028Y-84063114D01*
X50943933Y-84075209D01*
X50919742Y-84087304D01*
X50871361Y-84087304D01*
X50847171Y-84075209D01*
X50835076Y-84063114D01*
X50822980Y-84038923D01*
X50822980Y-83978447D01*
X50835076Y-83954257D01*
X50847171Y-83942161D01*
X50871361Y-83930066D01*
X50919742Y-83930066D01*
X50943933Y-83942161D01*
X50956028Y-83954257D01*
X50968123Y-83978447D01*
X50677838Y-83942161D02*
X50702028Y-83930066D01*
X50714123Y-83917971D01*
X50726219Y-83893780D01*
X50726219Y-83881685D01*
X50714123Y-83857495D01*
X50702028Y-83845400D01*
X50677838Y-83833304D01*
X50629457Y-83833304D01*
X50605266Y-83845400D01*
X50593171Y-83857495D01*
X50581076Y-83881685D01*
X50581076Y-83893780D01*
X50593171Y-83917971D01*
X50605266Y-83930066D01*
X50629457Y-83942161D01*
X50677838Y-83942161D01*
X50702028Y-83954257D01*
X50714123Y-83966352D01*
X50726219Y-83990542D01*
X50726219Y-84038923D01*
X50714123Y-84063114D01*
X50702028Y-84075209D01*
X50677838Y-84087304D01*
X50629457Y-84087304D01*
X50605266Y-84075209D01*
X50593171Y-84063114D01*
X50581076Y-84038923D01*
X50581076Y-83990542D01*
X50593171Y-83966352D01*
X50605266Y-83954257D01*
X50629457Y-83942161D01*
D13*
X50660300Y-83069180D02*
X50660300Y-83307276D01*
X50898395Y-83212038D02*
X50660300Y-83307276D01*
X50422204Y-83212038D01*
X50803157Y-83497752D02*
X50660300Y-83307276D01*
X50517442Y-83497752D01*
D12*
X55433685Y-95301404D02*
X55518352Y-95180452D01*
X55578828Y-95301404D02*
X55578828Y-95047404D01*
X55482066Y-95047404D01*
X55457876Y-95059500D01*
X55445780Y-95071595D01*
X55433685Y-95095785D01*
X55433685Y-95132071D01*
X55445780Y-95156261D01*
X55457876Y-95168357D01*
X55482066Y-95180452D01*
X55578828Y-95180452D01*
X55215971Y-95047404D02*
X55264352Y-95047404D01*
X55288542Y-95059500D01*
X55300638Y-95071595D01*
X55324828Y-95107880D01*
X55336923Y-95156261D01*
X55336923Y-95253023D01*
X55324828Y-95277214D01*
X55312733Y-95289309D01*
X55288542Y-95301404D01*
X55240161Y-95301404D01*
X55215971Y-95289309D01*
X55203876Y-95277214D01*
X55191780Y-95253023D01*
X55191780Y-95192547D01*
X55203876Y-95168357D01*
X55215971Y-95156261D01*
X55240161Y-95144166D01*
X55288542Y-95144166D01*
X55312733Y-95156261D01*
X55324828Y-95168357D01*
X55336923Y-95192547D01*
X55107114Y-95047404D02*
X54937780Y-95047404D01*
X55046638Y-95301404D01*
D13*
X55575200Y-95438980D02*
X55575200Y-95677076D01*
X55813295Y-95581838D02*
X55575200Y-95677076D01*
X55337104Y-95581838D01*
X55718057Y-95867552D02*
X55575200Y-95677076D01*
X55432342Y-95867552D01*
D12*
X55433685Y-92355004D02*
X55518352Y-92234052D01*
X55578828Y-92355004D02*
X55578828Y-92101004D01*
X55482066Y-92101004D01*
X55457876Y-92113100D01*
X55445780Y-92125195D01*
X55433685Y-92149385D01*
X55433685Y-92185671D01*
X55445780Y-92209861D01*
X55457876Y-92221957D01*
X55482066Y-92234052D01*
X55578828Y-92234052D01*
X55215971Y-92101004D02*
X55264352Y-92101004D01*
X55288542Y-92113100D01*
X55300638Y-92125195D01*
X55324828Y-92161480D01*
X55336923Y-92209861D01*
X55336923Y-92306623D01*
X55324828Y-92330814D01*
X55312733Y-92342909D01*
X55288542Y-92355004D01*
X55240161Y-92355004D01*
X55215971Y-92342909D01*
X55203876Y-92330814D01*
X55191780Y-92306623D01*
X55191780Y-92246147D01*
X55203876Y-92221957D01*
X55215971Y-92209861D01*
X55240161Y-92197766D01*
X55288542Y-92197766D01*
X55312733Y-92209861D01*
X55324828Y-92221957D01*
X55336923Y-92246147D01*
X54974066Y-92101004D02*
X55022447Y-92101004D01*
X55046638Y-92113100D01*
X55058733Y-92125195D01*
X55082923Y-92161480D01*
X55095019Y-92209861D01*
X55095019Y-92306623D01*
X55082923Y-92330814D01*
X55070828Y-92342909D01*
X55046638Y-92355004D01*
X54998257Y-92355004D01*
X54974066Y-92342909D01*
X54961971Y-92330814D01*
X54949876Y-92306623D01*
X54949876Y-92246147D01*
X54961971Y-92221957D01*
X54974066Y-92209861D01*
X54998257Y-92197766D01*
X55046638Y-92197766D01*
X55070828Y-92209861D01*
X55082923Y-92221957D01*
X55095019Y-92246147D01*
D13*
X55575200Y-92492580D02*
X55575200Y-92730676D01*
X55813295Y-92635438D02*
X55575200Y-92730676D01*
X55337104Y-92635438D01*
X55718057Y-92921152D02*
X55575200Y-92730676D01*
X55432342Y-92921152D01*
D12*
X55433685Y-93828204D02*
X55518352Y-93707252D01*
X55578828Y-93828204D02*
X55578828Y-93574204D01*
X55482066Y-93574204D01*
X55457876Y-93586300D01*
X55445780Y-93598395D01*
X55433685Y-93622585D01*
X55433685Y-93658871D01*
X55445780Y-93683061D01*
X55457876Y-93695157D01*
X55482066Y-93707252D01*
X55578828Y-93707252D01*
X55215971Y-93574204D02*
X55264352Y-93574204D01*
X55288542Y-93586300D01*
X55300638Y-93598395D01*
X55324828Y-93634680D01*
X55336923Y-93683061D01*
X55336923Y-93779823D01*
X55324828Y-93804014D01*
X55312733Y-93816109D01*
X55288542Y-93828204D01*
X55240161Y-93828204D01*
X55215971Y-93816109D01*
X55203876Y-93804014D01*
X55191780Y-93779823D01*
X55191780Y-93719347D01*
X55203876Y-93695157D01*
X55215971Y-93683061D01*
X55240161Y-93670966D01*
X55288542Y-93670966D01*
X55312733Y-93683061D01*
X55324828Y-93695157D01*
X55336923Y-93719347D01*
X54961971Y-93574204D02*
X55082923Y-93574204D01*
X55095019Y-93695157D01*
X55082923Y-93683061D01*
X55058733Y-93670966D01*
X54998257Y-93670966D01*
X54974066Y-93683061D01*
X54961971Y-93695157D01*
X54949876Y-93719347D01*
X54949876Y-93779823D01*
X54961971Y-93804014D01*
X54974066Y-93816109D01*
X54998257Y-93828204D01*
X55058733Y-93828204D01*
X55082923Y-93816109D01*
X55095019Y-93804014D01*
D13*
X55575200Y-93965780D02*
X55575200Y-94203876D01*
X55813295Y-94108638D02*
X55575200Y-94203876D01*
X55337104Y-94108638D01*
X55718057Y-94394352D02*
X55575200Y-94203876D01*
X55432342Y-94394352D01*
D12*
X55433685Y-90881804D02*
X55518352Y-90760852D01*
X55578828Y-90881804D02*
X55578828Y-90627804D01*
X55482066Y-90627804D01*
X55457876Y-90639900D01*
X55445780Y-90651995D01*
X55433685Y-90676185D01*
X55433685Y-90712471D01*
X55445780Y-90736661D01*
X55457876Y-90748757D01*
X55482066Y-90760852D01*
X55578828Y-90760852D01*
X55215971Y-90627804D02*
X55264352Y-90627804D01*
X55288542Y-90639900D01*
X55300638Y-90651995D01*
X55324828Y-90688280D01*
X55336923Y-90736661D01*
X55336923Y-90833423D01*
X55324828Y-90857614D01*
X55312733Y-90869709D01*
X55288542Y-90881804D01*
X55240161Y-90881804D01*
X55215971Y-90869709D01*
X55203876Y-90857614D01*
X55191780Y-90833423D01*
X55191780Y-90772947D01*
X55203876Y-90748757D01*
X55215971Y-90736661D01*
X55240161Y-90724566D01*
X55288542Y-90724566D01*
X55312733Y-90736661D01*
X55324828Y-90748757D01*
X55336923Y-90772947D01*
X54974066Y-90712471D02*
X54974066Y-90881804D01*
X55034542Y-90615709D02*
X55095019Y-90797138D01*
X54937780Y-90797138D01*
D13*
X55575200Y-91019380D02*
X55575200Y-91257476D01*
X55813295Y-91162238D02*
X55575200Y-91257476D01*
X55337104Y-91162238D01*
X55718057Y-91447952D02*
X55575200Y-91257476D01*
X55432342Y-91447952D01*
D12*
X55433685Y-89408604D02*
X55518352Y-89287652D01*
X55578828Y-89408604D02*
X55578828Y-89154604D01*
X55482066Y-89154604D01*
X55457876Y-89166700D01*
X55445780Y-89178795D01*
X55433685Y-89202985D01*
X55433685Y-89239271D01*
X55445780Y-89263461D01*
X55457876Y-89275557D01*
X55482066Y-89287652D01*
X55578828Y-89287652D01*
X55215971Y-89154604D02*
X55264352Y-89154604D01*
X55288542Y-89166700D01*
X55300638Y-89178795D01*
X55324828Y-89215080D01*
X55336923Y-89263461D01*
X55336923Y-89360223D01*
X55324828Y-89384414D01*
X55312733Y-89396509D01*
X55288542Y-89408604D01*
X55240161Y-89408604D01*
X55215971Y-89396509D01*
X55203876Y-89384414D01*
X55191780Y-89360223D01*
X55191780Y-89299747D01*
X55203876Y-89275557D01*
X55215971Y-89263461D01*
X55240161Y-89251366D01*
X55288542Y-89251366D01*
X55312733Y-89263461D01*
X55324828Y-89275557D01*
X55336923Y-89299747D01*
X55107114Y-89154604D02*
X54949876Y-89154604D01*
X55034542Y-89251366D01*
X54998257Y-89251366D01*
X54974066Y-89263461D01*
X54961971Y-89275557D01*
X54949876Y-89299747D01*
X54949876Y-89360223D01*
X54961971Y-89384414D01*
X54974066Y-89396509D01*
X54998257Y-89408604D01*
X55070828Y-89408604D01*
X55095019Y-89396509D01*
X55107114Y-89384414D01*
D13*
X55575200Y-89546180D02*
X55575200Y-89784276D01*
X55813295Y-89689038D02*
X55575200Y-89784276D01*
X55337104Y-89689038D01*
X55718057Y-89974752D02*
X55575200Y-89784276D01*
X55432342Y-89974752D01*
D12*
X71742904Y-87631814D02*
X71621952Y-87547147D01*
X71742904Y-87486671D02*
X71488904Y-87486671D01*
X71488904Y-87583433D01*
X71501000Y-87607623D01*
X71513095Y-87619719D01*
X71537285Y-87631814D01*
X71573571Y-87631814D01*
X71597761Y-87619719D01*
X71609857Y-87607623D01*
X71621952Y-87583433D01*
X71621952Y-87486671D01*
X71488904Y-87861623D02*
X71488904Y-87740671D01*
X71609857Y-87728576D01*
X71597761Y-87740671D01*
X71585666Y-87764861D01*
X71585666Y-87825338D01*
X71597761Y-87849528D01*
X71609857Y-87861623D01*
X71634047Y-87873719D01*
X71694523Y-87873719D01*
X71718714Y-87861623D01*
X71730809Y-87849528D01*
X71742904Y-87825338D01*
X71742904Y-87764861D01*
X71730809Y-87740671D01*
X71718714Y-87728576D01*
X71488904Y-87958385D02*
X71488904Y-88115623D01*
X71585666Y-88030957D01*
X71585666Y-88067242D01*
X71597761Y-88091433D01*
X71609857Y-88103528D01*
X71634047Y-88115623D01*
X71694523Y-88115623D01*
X71718714Y-88103528D01*
X71730809Y-88091433D01*
X71742904Y-88067242D01*
X71742904Y-87994671D01*
X71730809Y-87970480D01*
X71718714Y-87958385D01*
D13*
X72197980Y-87528400D02*
X72436076Y-87528400D01*
X72340838Y-87290304D02*
X72436076Y-87528400D01*
X72340838Y-87766495D01*
X72626552Y-87385542D02*
X72436076Y-87528400D01*
X72626552Y-87671257D01*
D12*
X60196185Y-84417504D02*
X60280852Y-84296552D01*
X60341328Y-84417504D02*
X60341328Y-84163504D01*
X60244566Y-84163504D01*
X60220376Y-84175600D01*
X60208280Y-84187695D01*
X60196185Y-84211885D01*
X60196185Y-84248171D01*
X60208280Y-84272361D01*
X60220376Y-84284457D01*
X60244566Y-84296552D01*
X60341328Y-84296552D01*
X59966376Y-84163504D02*
X60087328Y-84163504D01*
X60099423Y-84284457D01*
X60087328Y-84272361D01*
X60063138Y-84260266D01*
X60002661Y-84260266D01*
X59978471Y-84272361D01*
X59966376Y-84284457D01*
X59954280Y-84308647D01*
X59954280Y-84369123D01*
X59966376Y-84393314D01*
X59978471Y-84405409D01*
X60002661Y-84417504D01*
X60063138Y-84417504D01*
X60087328Y-84405409D01*
X60099423Y-84393314D01*
X59857519Y-84187695D02*
X59845423Y-84175600D01*
X59821233Y-84163504D01*
X59760757Y-84163504D01*
X59736566Y-84175600D01*
X59724471Y-84187695D01*
X59712376Y-84211885D01*
X59712376Y-84236076D01*
X59724471Y-84272361D01*
X59869614Y-84417504D01*
X59712376Y-84417504D01*
D13*
X60413900Y-84542380D02*
X60413900Y-84780476D01*
X60651995Y-84685238D02*
X60413900Y-84780476D01*
X60175804Y-84685238D01*
X60556757Y-84970952D02*
X60413900Y-84780476D01*
X60271042Y-84970952D01*
D12*
X60183485Y-82944304D02*
X60268152Y-82823352D01*
X60328628Y-82944304D02*
X60328628Y-82690304D01*
X60231866Y-82690304D01*
X60207676Y-82702400D01*
X60195580Y-82714495D01*
X60183485Y-82738685D01*
X60183485Y-82774971D01*
X60195580Y-82799161D01*
X60207676Y-82811257D01*
X60231866Y-82823352D01*
X60328628Y-82823352D01*
X59953676Y-82690304D02*
X60074628Y-82690304D01*
X60086723Y-82811257D01*
X60074628Y-82799161D01*
X60050438Y-82787066D01*
X59989961Y-82787066D01*
X59965771Y-82799161D01*
X59953676Y-82811257D01*
X59941580Y-82835447D01*
X59941580Y-82895923D01*
X59953676Y-82920114D01*
X59965771Y-82932209D01*
X59989961Y-82944304D01*
X60050438Y-82944304D01*
X60074628Y-82932209D01*
X60086723Y-82920114D01*
X59699676Y-82944304D02*
X59844819Y-82944304D01*
X59772247Y-82944304D02*
X59772247Y-82690304D01*
X59796438Y-82726590D01*
X59820628Y-82750780D01*
X59844819Y-82762876D01*
D13*
X60401200Y-83069180D02*
X60401200Y-83307276D01*
X60639295Y-83212038D02*
X60401200Y-83307276D01*
X60163104Y-83212038D01*
X60544057Y-83497752D02*
X60401200Y-83307276D01*
X60258342Y-83497752D01*
D12*
X55433685Y-87935404D02*
X55518352Y-87814452D01*
X55578828Y-87935404D02*
X55578828Y-87681404D01*
X55482066Y-87681404D01*
X55457876Y-87693500D01*
X55445780Y-87705595D01*
X55433685Y-87729785D01*
X55433685Y-87766071D01*
X55445780Y-87790261D01*
X55457876Y-87802357D01*
X55482066Y-87814452D01*
X55578828Y-87814452D01*
X55203876Y-87681404D02*
X55324828Y-87681404D01*
X55336923Y-87802357D01*
X55324828Y-87790261D01*
X55300638Y-87778166D01*
X55240161Y-87778166D01*
X55215971Y-87790261D01*
X55203876Y-87802357D01*
X55191780Y-87826547D01*
X55191780Y-87887023D01*
X55203876Y-87911214D01*
X55215971Y-87923309D01*
X55240161Y-87935404D01*
X55300638Y-87935404D01*
X55324828Y-87923309D01*
X55336923Y-87911214D01*
X55034542Y-87681404D02*
X55010352Y-87681404D01*
X54986161Y-87693500D01*
X54974066Y-87705595D01*
X54961971Y-87729785D01*
X54949876Y-87778166D01*
X54949876Y-87838642D01*
X54961971Y-87887023D01*
X54974066Y-87911214D01*
X54986161Y-87923309D01*
X55010352Y-87935404D01*
X55034542Y-87935404D01*
X55058733Y-87923309D01*
X55070828Y-87911214D01*
X55082923Y-87887023D01*
X55095019Y-87838642D01*
X55095019Y-87778166D01*
X55082923Y-87729785D01*
X55070828Y-87705595D01*
X55058733Y-87693500D01*
X55034542Y-87681404D01*
D13*
X55575200Y-88072980D02*
X55575200Y-88311076D01*
X55813295Y-88215838D02*
X55575200Y-88311076D01*
X55337104Y-88215838D01*
X55718057Y-88501552D02*
X55575200Y-88311076D01*
X55432342Y-88501552D01*
D12*
X55433685Y-84989004D02*
X55518352Y-84868052D01*
X55578828Y-84989004D02*
X55578828Y-84735004D01*
X55482066Y-84735004D01*
X55457876Y-84747100D01*
X55445780Y-84759195D01*
X55433685Y-84783385D01*
X55433685Y-84819671D01*
X55445780Y-84843861D01*
X55457876Y-84855957D01*
X55482066Y-84868052D01*
X55578828Y-84868052D01*
X55215971Y-84819671D02*
X55215971Y-84989004D01*
X55276447Y-84722909D02*
X55336923Y-84904338D01*
X55179685Y-84904338D01*
X55070828Y-84989004D02*
X55022447Y-84989004D01*
X54998257Y-84976909D01*
X54986161Y-84964814D01*
X54961971Y-84928528D01*
X54949876Y-84880147D01*
X54949876Y-84783385D01*
X54961971Y-84759195D01*
X54974066Y-84747100D01*
X54998257Y-84735004D01*
X55046638Y-84735004D01*
X55070828Y-84747100D01*
X55082923Y-84759195D01*
X55095019Y-84783385D01*
X55095019Y-84843861D01*
X55082923Y-84868052D01*
X55070828Y-84880147D01*
X55046638Y-84892242D01*
X54998257Y-84892242D01*
X54974066Y-84880147D01*
X54961971Y-84868052D01*
X54949876Y-84843861D01*
D13*
X55575200Y-85126580D02*
X55575200Y-85364676D01*
X55813295Y-85269438D02*
X55575200Y-85364676D01*
X55337104Y-85269438D01*
X55718057Y-85555152D02*
X55575200Y-85364676D01*
X55432342Y-85555152D01*
D12*
X55433685Y-86462204D02*
X55518352Y-86341252D01*
X55578828Y-86462204D02*
X55578828Y-86208204D01*
X55482066Y-86208204D01*
X55457876Y-86220300D01*
X55445780Y-86232395D01*
X55433685Y-86256585D01*
X55433685Y-86292871D01*
X55445780Y-86317061D01*
X55457876Y-86329157D01*
X55482066Y-86341252D01*
X55578828Y-86341252D01*
X55215971Y-86292871D02*
X55215971Y-86462204D01*
X55276447Y-86196109D02*
X55336923Y-86377538D01*
X55179685Y-86377538D01*
X55046638Y-86317061D02*
X55070828Y-86304966D01*
X55082923Y-86292871D01*
X55095019Y-86268680D01*
X55095019Y-86256585D01*
X55082923Y-86232395D01*
X55070828Y-86220300D01*
X55046638Y-86208204D01*
X54998257Y-86208204D01*
X54974066Y-86220300D01*
X54961971Y-86232395D01*
X54949876Y-86256585D01*
X54949876Y-86268680D01*
X54961971Y-86292871D01*
X54974066Y-86304966D01*
X54998257Y-86317061D01*
X55046638Y-86317061D01*
X55070828Y-86329157D01*
X55082923Y-86341252D01*
X55095019Y-86365442D01*
X55095019Y-86413823D01*
X55082923Y-86438014D01*
X55070828Y-86450109D01*
X55046638Y-86462204D01*
X54998257Y-86462204D01*
X54974066Y-86450109D01*
X54961971Y-86438014D01*
X54949876Y-86413823D01*
X54949876Y-86365442D01*
X54961971Y-86341252D01*
X54974066Y-86329157D01*
X54998257Y-86317061D01*
D13*
X55575200Y-86599780D02*
X55575200Y-86837876D01*
X55813295Y-86742638D02*
X55575200Y-86837876D01*
X55337104Y-86742638D01*
X55718057Y-87028352D02*
X55575200Y-86837876D01*
X55432342Y-87028352D01*
D12*
X55433685Y-83515804D02*
X55518352Y-83394852D01*
X55578828Y-83515804D02*
X55578828Y-83261804D01*
X55482066Y-83261804D01*
X55457876Y-83273900D01*
X55445780Y-83285995D01*
X55433685Y-83310185D01*
X55433685Y-83346471D01*
X55445780Y-83370661D01*
X55457876Y-83382757D01*
X55482066Y-83394852D01*
X55578828Y-83394852D01*
X55215971Y-83346471D02*
X55215971Y-83515804D01*
X55276447Y-83249709D02*
X55336923Y-83431138D01*
X55179685Y-83431138D01*
X55107114Y-83261804D02*
X54937780Y-83261804D01*
X55046638Y-83515804D01*
D13*
X55575200Y-83653380D02*
X55575200Y-83891476D01*
X55813295Y-83796238D02*
X55575200Y-83891476D01*
X55337104Y-83796238D01*
X55718057Y-84081952D02*
X55575200Y-83891476D01*
X55432342Y-84081952D01*
D12*
X55433685Y-82042604D02*
X55518352Y-81921652D01*
X55578828Y-82042604D02*
X55578828Y-81788604D01*
X55482066Y-81788604D01*
X55457876Y-81800700D01*
X55445780Y-81812795D01*
X55433685Y-81836985D01*
X55433685Y-81873271D01*
X55445780Y-81897461D01*
X55457876Y-81909557D01*
X55482066Y-81921652D01*
X55578828Y-81921652D01*
X55215971Y-81873271D02*
X55215971Y-82042604D01*
X55276447Y-81776509D02*
X55336923Y-81957938D01*
X55179685Y-81957938D01*
X54974066Y-81788604D02*
X55022447Y-81788604D01*
X55046638Y-81800700D01*
X55058733Y-81812795D01*
X55082923Y-81849080D01*
X55095019Y-81897461D01*
X55095019Y-81994223D01*
X55082923Y-82018414D01*
X55070828Y-82030509D01*
X55046638Y-82042604D01*
X54998257Y-82042604D01*
X54974066Y-82030509D01*
X54961971Y-82018414D01*
X54949876Y-81994223D01*
X54949876Y-81933747D01*
X54961971Y-81909557D01*
X54974066Y-81897461D01*
X54998257Y-81885366D01*
X55046638Y-81885366D01*
X55070828Y-81897461D01*
X55082923Y-81909557D01*
X55095019Y-81933747D01*
D13*
X55575200Y-82180180D02*
X55575200Y-82418276D01*
X55813295Y-82323038D02*
X55575200Y-82418276D01*
X55337104Y-82323038D01*
X55718057Y-82608752D02*
X55575200Y-82418276D01*
X55432342Y-82608752D01*
D12*
X47625604Y-129364014D02*
X47504652Y-129279347D01*
X47625604Y-129218871D02*
X47371604Y-129218871D01*
X47371604Y-129315633D01*
X47383700Y-129339823D01*
X47395795Y-129351919D01*
X47419985Y-129364014D01*
X47456271Y-129364014D01*
X47480461Y-129351919D01*
X47492557Y-129339823D01*
X47504652Y-129315633D01*
X47504652Y-129218871D01*
X47456271Y-129581728D02*
X47625604Y-129581728D01*
X47359509Y-129521252D02*
X47540938Y-129460776D01*
X47540938Y-129618014D01*
X47371604Y-129763157D02*
X47371604Y-129787347D01*
X47383700Y-129811538D01*
X47395795Y-129823633D01*
X47419985Y-129835728D01*
X47468366Y-129847823D01*
X47528842Y-129847823D01*
X47577223Y-129835728D01*
X47601414Y-129823633D01*
X47613509Y-129811538D01*
X47625604Y-129787347D01*
X47625604Y-129763157D01*
X47613509Y-129738966D01*
X47601414Y-129726871D01*
X47577223Y-129714776D01*
X47528842Y-129702680D01*
X47468366Y-129702680D01*
X47419985Y-129714776D01*
X47395795Y-129726871D01*
X47383700Y-129738966D01*
X47371604Y-129763157D01*
D13*
X47763180Y-129184400D02*
X48001276Y-129184400D01*
X47906038Y-128946304D02*
X48001276Y-129184400D01*
X47906038Y-129422495D01*
X48191752Y-129041542D02*
X48001276Y-129184400D01*
X48191752Y-129327257D01*
D12*
X46101604Y-129364014D02*
X45980652Y-129279347D01*
X46101604Y-129218871D02*
X45847604Y-129218871D01*
X45847604Y-129315633D01*
X45859700Y-129339823D01*
X45871795Y-129351919D01*
X45895985Y-129364014D01*
X45932271Y-129364014D01*
X45956461Y-129351919D01*
X45968557Y-129339823D01*
X45980652Y-129315633D01*
X45980652Y-129218871D01*
X45847604Y-129448680D02*
X45847604Y-129605919D01*
X45944366Y-129521252D01*
X45944366Y-129557538D01*
X45956461Y-129581728D01*
X45968557Y-129593823D01*
X45992747Y-129605919D01*
X46053223Y-129605919D01*
X46077414Y-129593823D01*
X46089509Y-129581728D01*
X46101604Y-129557538D01*
X46101604Y-129484966D01*
X46089509Y-129460776D01*
X46077414Y-129448680D01*
X46101604Y-129726871D02*
X46101604Y-129775252D01*
X46089509Y-129799442D01*
X46077414Y-129811538D01*
X46041128Y-129835728D01*
X45992747Y-129847823D01*
X45895985Y-129847823D01*
X45871795Y-129835728D01*
X45859700Y-129823633D01*
X45847604Y-129799442D01*
X45847604Y-129751061D01*
X45859700Y-129726871D01*
X45871795Y-129714776D01*
X45895985Y-129702680D01*
X45956461Y-129702680D01*
X45980652Y-129714776D01*
X45992747Y-129726871D01*
X46004842Y-129751061D01*
X46004842Y-129799442D01*
X45992747Y-129823633D01*
X45980652Y-129835728D01*
X45956461Y-129847823D01*
D13*
X46239180Y-129184400D02*
X46477276Y-129184400D01*
X46382038Y-128946304D02*
X46477276Y-129184400D01*
X46382038Y-129422495D01*
X46667752Y-129041542D02*
X46477276Y-129184400D01*
X46667752Y-129327257D01*
D12*
X43256804Y-129364014D02*
X43135852Y-129279347D01*
X43256804Y-129218871D02*
X43002804Y-129218871D01*
X43002804Y-129315633D01*
X43014900Y-129339823D01*
X43026995Y-129351919D01*
X43051185Y-129364014D01*
X43087471Y-129364014D01*
X43111661Y-129351919D01*
X43123757Y-129339823D01*
X43135852Y-129315633D01*
X43135852Y-129218871D01*
X43002804Y-129448680D02*
X43002804Y-129605919D01*
X43099566Y-129521252D01*
X43099566Y-129557538D01*
X43111661Y-129581728D01*
X43123757Y-129593823D01*
X43147947Y-129605919D01*
X43208423Y-129605919D01*
X43232614Y-129593823D01*
X43244709Y-129581728D01*
X43256804Y-129557538D01*
X43256804Y-129484966D01*
X43244709Y-129460776D01*
X43232614Y-129448680D01*
X43111661Y-129751061D02*
X43099566Y-129726871D01*
X43087471Y-129714776D01*
X43063280Y-129702680D01*
X43051185Y-129702680D01*
X43026995Y-129714776D01*
X43014900Y-129726871D01*
X43002804Y-129751061D01*
X43002804Y-129799442D01*
X43014900Y-129823633D01*
X43026995Y-129835728D01*
X43051185Y-129847823D01*
X43063280Y-129847823D01*
X43087471Y-129835728D01*
X43099566Y-129823633D01*
X43111661Y-129799442D01*
X43111661Y-129751061D01*
X43123757Y-129726871D01*
X43135852Y-129714776D01*
X43160042Y-129702680D01*
X43208423Y-129702680D01*
X43232614Y-129714776D01*
X43244709Y-129726871D01*
X43256804Y-129751061D01*
X43256804Y-129799442D01*
X43244709Y-129823633D01*
X43232614Y-129835728D01*
X43208423Y-129847823D01*
X43160042Y-129847823D01*
X43135852Y-129835728D01*
X43123757Y-129823633D01*
X43111661Y-129799442D01*
D13*
X43394380Y-129184400D02*
X43632476Y-129184400D01*
X43537238Y-128946304D02*
X43632476Y-129184400D01*
X43537238Y-129422495D01*
X43822952Y-129041542D02*
X43632476Y-129184400D01*
X43822952Y-129327257D01*
D12*
X41732804Y-129364014D02*
X41611852Y-129279347D01*
X41732804Y-129218871D02*
X41478804Y-129218871D01*
X41478804Y-129315633D01*
X41490900Y-129339823D01*
X41502995Y-129351919D01*
X41527185Y-129364014D01*
X41563471Y-129364014D01*
X41587661Y-129351919D01*
X41599757Y-129339823D01*
X41611852Y-129315633D01*
X41611852Y-129218871D01*
X41478804Y-129448680D02*
X41478804Y-129605919D01*
X41575566Y-129521252D01*
X41575566Y-129557538D01*
X41587661Y-129581728D01*
X41599757Y-129593823D01*
X41623947Y-129605919D01*
X41684423Y-129605919D01*
X41708614Y-129593823D01*
X41720709Y-129581728D01*
X41732804Y-129557538D01*
X41732804Y-129484966D01*
X41720709Y-129460776D01*
X41708614Y-129448680D01*
X41478804Y-129690585D02*
X41478804Y-129859919D01*
X41732804Y-129751061D01*
D13*
X41870380Y-129184400D02*
X42108476Y-129184400D01*
X42013238Y-128946304D02*
X42108476Y-129184400D01*
X42013238Y-129422495D01*
X42298952Y-129041542D02*
X42108476Y-129184400D01*
X42298952Y-129327257D01*
D12*
X38418104Y-126214414D02*
X38297152Y-126129747D01*
X38418104Y-126069271D02*
X38164104Y-126069271D01*
X38164104Y-126166033D01*
X38176200Y-126190223D01*
X38188295Y-126202319D01*
X38212485Y-126214414D01*
X38248771Y-126214414D01*
X38272961Y-126202319D01*
X38285057Y-126190223D01*
X38297152Y-126166033D01*
X38297152Y-126069271D01*
X38164104Y-126299080D02*
X38164104Y-126456319D01*
X38260866Y-126371652D01*
X38260866Y-126407938D01*
X38272961Y-126432128D01*
X38285057Y-126444223D01*
X38309247Y-126456319D01*
X38369723Y-126456319D01*
X38393914Y-126444223D01*
X38406009Y-126432128D01*
X38418104Y-126407938D01*
X38418104Y-126335366D01*
X38406009Y-126311176D01*
X38393914Y-126299080D01*
X38164104Y-126674033D02*
X38164104Y-126625652D01*
X38176200Y-126601461D01*
X38188295Y-126589366D01*
X38224580Y-126565176D01*
X38272961Y-126553080D01*
X38369723Y-126553080D01*
X38393914Y-126565176D01*
X38406009Y-126577271D01*
X38418104Y-126601461D01*
X38418104Y-126649842D01*
X38406009Y-126674033D01*
X38393914Y-126686128D01*
X38369723Y-126698223D01*
X38309247Y-126698223D01*
X38285057Y-126686128D01*
X38272961Y-126674033D01*
X38260866Y-126649842D01*
X38260866Y-126601461D01*
X38272961Y-126577271D01*
X38285057Y-126565176D01*
X38309247Y-126553080D01*
D13*
X36637980Y-126644400D02*
X36876076Y-126644400D01*
X36780838Y-126406304D02*
X36876076Y-126644400D01*
X36780838Y-126882495D01*
X37066552Y-126501542D02*
X36876076Y-126644400D01*
X37066552Y-126787257D01*
D12*
X51547485Y-132575904D02*
X51632152Y-132454952D01*
X51692628Y-132575904D02*
X51692628Y-132321904D01*
X51595866Y-132321904D01*
X51571676Y-132334000D01*
X51559580Y-132346095D01*
X51547485Y-132370285D01*
X51547485Y-132406571D01*
X51559580Y-132430761D01*
X51571676Y-132442857D01*
X51595866Y-132454952D01*
X51692628Y-132454952D01*
X51462819Y-132321904D02*
X51305580Y-132321904D01*
X51390247Y-132418666D01*
X51353961Y-132418666D01*
X51329771Y-132430761D01*
X51317676Y-132442857D01*
X51305580Y-132467047D01*
X51305580Y-132527523D01*
X51317676Y-132551714D01*
X51329771Y-132563809D01*
X51353961Y-132575904D01*
X51426533Y-132575904D01*
X51450723Y-132563809D01*
X51462819Y-132551714D01*
X51075771Y-132321904D02*
X51196723Y-132321904D01*
X51208819Y-132442857D01*
X51196723Y-132430761D01*
X51172533Y-132418666D01*
X51112057Y-132418666D01*
X51087866Y-132430761D01*
X51075771Y-132442857D01*
X51063676Y-132467047D01*
X51063676Y-132527523D01*
X51075771Y-132551714D01*
X51087866Y-132563809D01*
X51112057Y-132575904D01*
X51172533Y-132575904D01*
X51196723Y-132563809D01*
X51208819Y-132551714D01*
D13*
X51003200Y-131633980D02*
X51003200Y-131872076D01*
X51241295Y-131776838D02*
X51003200Y-131872076D01*
X50765104Y-131776838D01*
X51146057Y-132062552D02*
X51003200Y-131872076D01*
X50860342Y-132062552D01*
D12*
X51547485Y-131102704D02*
X51632152Y-130981752D01*
X51692628Y-131102704D02*
X51692628Y-130848704D01*
X51595866Y-130848704D01*
X51571676Y-130860800D01*
X51559580Y-130872895D01*
X51547485Y-130897085D01*
X51547485Y-130933371D01*
X51559580Y-130957561D01*
X51571676Y-130969657D01*
X51595866Y-130981752D01*
X51692628Y-130981752D01*
X51462819Y-130848704D02*
X51305580Y-130848704D01*
X51390247Y-130945466D01*
X51353961Y-130945466D01*
X51329771Y-130957561D01*
X51317676Y-130969657D01*
X51305580Y-130993847D01*
X51305580Y-131054323D01*
X51317676Y-131078514D01*
X51329771Y-131090609D01*
X51353961Y-131102704D01*
X51426533Y-131102704D01*
X51450723Y-131090609D01*
X51462819Y-131078514D01*
X51087866Y-130933371D02*
X51087866Y-131102704D01*
X51148342Y-130836609D02*
X51208819Y-131018038D01*
X51051580Y-131018038D01*
D13*
X51003200Y-130160780D02*
X51003200Y-130398876D01*
X51241295Y-130303638D02*
X51003200Y-130398876D01*
X50765104Y-130303638D01*
X51146057Y-130589352D02*
X51003200Y-130398876D01*
X50860342Y-130589352D01*
D12*
X55382885Y-128753204D02*
X55467552Y-128632252D01*
X55528028Y-128753204D02*
X55528028Y-128499204D01*
X55431266Y-128499204D01*
X55407076Y-128511300D01*
X55394980Y-128523395D01*
X55382885Y-128547585D01*
X55382885Y-128583871D01*
X55394980Y-128608061D01*
X55407076Y-128620157D01*
X55431266Y-128632252D01*
X55528028Y-128632252D01*
X55298219Y-128499204D02*
X55140980Y-128499204D01*
X55225647Y-128595966D01*
X55189361Y-128595966D01*
X55165171Y-128608061D01*
X55153076Y-128620157D01*
X55140980Y-128644347D01*
X55140980Y-128704823D01*
X55153076Y-128729014D01*
X55165171Y-128741109D01*
X55189361Y-128753204D01*
X55261933Y-128753204D01*
X55286123Y-128741109D01*
X55298219Y-128729014D01*
X55056314Y-128499204D02*
X54899076Y-128499204D01*
X54983742Y-128595966D01*
X54947457Y-128595966D01*
X54923266Y-128608061D01*
X54911171Y-128620157D01*
X54899076Y-128644347D01*
X54899076Y-128704823D01*
X54911171Y-128729014D01*
X54923266Y-128741109D01*
X54947457Y-128753204D01*
X55020028Y-128753204D01*
X55044219Y-128741109D01*
X55056314Y-128729014D01*
D13*
X55524400Y-128890780D02*
X55524400Y-129128876D01*
X55762495Y-129033638D02*
X55524400Y-129128876D01*
X55286304Y-129033638D01*
X55667257Y-129319352D02*
X55524400Y-129128876D01*
X55381542Y-129319352D01*
D12*
X55382885Y-127229204D02*
X55467552Y-127108252D01*
X55528028Y-127229204D02*
X55528028Y-126975204D01*
X55431266Y-126975204D01*
X55407076Y-126987300D01*
X55394980Y-126999395D01*
X55382885Y-127023585D01*
X55382885Y-127059871D01*
X55394980Y-127084061D01*
X55407076Y-127096157D01*
X55431266Y-127108252D01*
X55528028Y-127108252D01*
X55298219Y-126975204D02*
X55140980Y-126975204D01*
X55225647Y-127071966D01*
X55189361Y-127071966D01*
X55165171Y-127084061D01*
X55153076Y-127096157D01*
X55140980Y-127120347D01*
X55140980Y-127180823D01*
X55153076Y-127205014D01*
X55165171Y-127217109D01*
X55189361Y-127229204D01*
X55261933Y-127229204D01*
X55286123Y-127217109D01*
X55298219Y-127205014D01*
X55044219Y-126999395D02*
X55032123Y-126987300D01*
X55007933Y-126975204D01*
X54947457Y-126975204D01*
X54923266Y-126987300D01*
X54911171Y-126999395D01*
X54899076Y-127023585D01*
X54899076Y-127047776D01*
X54911171Y-127084061D01*
X55056314Y-127229204D01*
X54899076Y-127229204D01*
D13*
X55524400Y-127366780D02*
X55524400Y-127604876D01*
X55762495Y-127509638D02*
X55524400Y-127604876D01*
X55286304Y-127509638D01*
X55667257Y-127795352D02*
X55524400Y-127604876D01*
X55381542Y-127795352D01*
D12*
X55382885Y-125705204D02*
X55467552Y-125584252D01*
X55528028Y-125705204D02*
X55528028Y-125451204D01*
X55431266Y-125451204D01*
X55407076Y-125463300D01*
X55394980Y-125475395D01*
X55382885Y-125499585D01*
X55382885Y-125535871D01*
X55394980Y-125560061D01*
X55407076Y-125572157D01*
X55431266Y-125584252D01*
X55528028Y-125584252D01*
X55298219Y-125451204D02*
X55140980Y-125451204D01*
X55225647Y-125547966D01*
X55189361Y-125547966D01*
X55165171Y-125560061D01*
X55153076Y-125572157D01*
X55140980Y-125596347D01*
X55140980Y-125656823D01*
X55153076Y-125681014D01*
X55165171Y-125693109D01*
X55189361Y-125705204D01*
X55261933Y-125705204D01*
X55286123Y-125693109D01*
X55298219Y-125681014D01*
X54899076Y-125705204D02*
X55044219Y-125705204D01*
X54971647Y-125705204D02*
X54971647Y-125451204D01*
X54995838Y-125487490D01*
X55020028Y-125511680D01*
X55044219Y-125523776D01*
D13*
X55524400Y-125842780D02*
X55524400Y-126080876D01*
X55762495Y-125985638D02*
X55524400Y-126080876D01*
X55286304Y-125985638D01*
X55667257Y-126271352D02*
X55524400Y-126080876D01*
X55381542Y-126271352D01*
D12*
X55382885Y-124181204D02*
X55467552Y-124060252D01*
X55528028Y-124181204D02*
X55528028Y-123927204D01*
X55431266Y-123927204D01*
X55407076Y-123939300D01*
X55394980Y-123951395D01*
X55382885Y-123975585D01*
X55382885Y-124011871D01*
X55394980Y-124036061D01*
X55407076Y-124048157D01*
X55431266Y-124060252D01*
X55528028Y-124060252D01*
X55298219Y-123927204D02*
X55140980Y-123927204D01*
X55225647Y-124023966D01*
X55189361Y-124023966D01*
X55165171Y-124036061D01*
X55153076Y-124048157D01*
X55140980Y-124072347D01*
X55140980Y-124132823D01*
X55153076Y-124157014D01*
X55165171Y-124169109D01*
X55189361Y-124181204D01*
X55261933Y-124181204D01*
X55286123Y-124169109D01*
X55298219Y-124157014D01*
X54983742Y-123927204D02*
X54959552Y-123927204D01*
X54935361Y-123939300D01*
X54923266Y-123951395D01*
X54911171Y-123975585D01*
X54899076Y-124023966D01*
X54899076Y-124084442D01*
X54911171Y-124132823D01*
X54923266Y-124157014D01*
X54935361Y-124169109D01*
X54959552Y-124181204D01*
X54983742Y-124181204D01*
X55007933Y-124169109D01*
X55020028Y-124157014D01*
X55032123Y-124132823D01*
X55044219Y-124084442D01*
X55044219Y-124023966D01*
X55032123Y-123975585D01*
X55020028Y-123951395D01*
X55007933Y-123939300D01*
X54983742Y-123927204D01*
D13*
X55524400Y-124318780D02*
X55524400Y-124556876D01*
X55762495Y-124461638D02*
X55524400Y-124556876D01*
X55286304Y-124461638D01*
X55667257Y-124747352D02*
X55524400Y-124556876D01*
X55381542Y-124747352D01*
D12*
X55382885Y-122657204D02*
X55467552Y-122536252D01*
X55528028Y-122657204D02*
X55528028Y-122403204D01*
X55431266Y-122403204D01*
X55407076Y-122415300D01*
X55394980Y-122427395D01*
X55382885Y-122451585D01*
X55382885Y-122487871D01*
X55394980Y-122512061D01*
X55407076Y-122524157D01*
X55431266Y-122536252D01*
X55528028Y-122536252D01*
X55286123Y-122427395D02*
X55274028Y-122415300D01*
X55249838Y-122403204D01*
X55189361Y-122403204D01*
X55165171Y-122415300D01*
X55153076Y-122427395D01*
X55140980Y-122451585D01*
X55140980Y-122475776D01*
X55153076Y-122512061D01*
X55298219Y-122657204D01*
X55140980Y-122657204D01*
X55020028Y-122657204D02*
X54971647Y-122657204D01*
X54947457Y-122645109D01*
X54935361Y-122633014D01*
X54911171Y-122596728D01*
X54899076Y-122548347D01*
X54899076Y-122451585D01*
X54911171Y-122427395D01*
X54923266Y-122415300D01*
X54947457Y-122403204D01*
X54995838Y-122403204D01*
X55020028Y-122415300D01*
X55032123Y-122427395D01*
X55044219Y-122451585D01*
X55044219Y-122512061D01*
X55032123Y-122536252D01*
X55020028Y-122548347D01*
X54995838Y-122560442D01*
X54947457Y-122560442D01*
X54923266Y-122548347D01*
X54911171Y-122536252D01*
X54899076Y-122512061D01*
D13*
X55524400Y-122794780D02*
X55524400Y-123032876D01*
X55762495Y-122937638D02*
X55524400Y-123032876D01*
X55286304Y-122937638D01*
X55667257Y-123223352D02*
X55524400Y-123032876D01*
X55381542Y-123223352D01*
D12*
X72860504Y-124157014D02*
X72739552Y-124072347D01*
X72860504Y-124011871D02*
X72606504Y-124011871D01*
X72606504Y-124108633D01*
X72618600Y-124132823D01*
X72630695Y-124144919D01*
X72654885Y-124157014D01*
X72691171Y-124157014D01*
X72715361Y-124144919D01*
X72727457Y-124132823D01*
X72739552Y-124108633D01*
X72739552Y-124011871D01*
X72630695Y-124253776D02*
X72618600Y-124265871D01*
X72606504Y-124290061D01*
X72606504Y-124350538D01*
X72618600Y-124374728D01*
X72630695Y-124386823D01*
X72654885Y-124398919D01*
X72679076Y-124398919D01*
X72715361Y-124386823D01*
X72860504Y-124241680D01*
X72860504Y-124398919D01*
X72715361Y-124544061D02*
X72703266Y-124519871D01*
X72691171Y-124507776D01*
X72666980Y-124495680D01*
X72654885Y-124495680D01*
X72630695Y-124507776D01*
X72618600Y-124519871D01*
X72606504Y-124544061D01*
X72606504Y-124592442D01*
X72618600Y-124616633D01*
X72630695Y-124628728D01*
X72654885Y-124640823D01*
X72666980Y-124640823D01*
X72691171Y-124628728D01*
X72703266Y-124616633D01*
X72715361Y-124592442D01*
X72715361Y-124544061D01*
X72727457Y-124519871D01*
X72739552Y-124507776D01*
X72763742Y-124495680D01*
X72812123Y-124495680D01*
X72836314Y-124507776D01*
X72848409Y-124519871D01*
X72860504Y-124544061D01*
X72860504Y-124592442D01*
X72848409Y-124616633D01*
X72836314Y-124628728D01*
X72812123Y-124640823D01*
X72763742Y-124640823D01*
X72739552Y-124628728D01*
X72727457Y-124616633D01*
X72715361Y-124592442D01*
D13*
X73315580Y-124053600D02*
X73553676Y-124053600D01*
X73458438Y-123815504D02*
X73553676Y-124053600D01*
X73458438Y-124291695D01*
X73744152Y-123910742D02*
X73553676Y-124053600D01*
X73744152Y-124196457D01*
D12*
X72974804Y-118035614D02*
X72853852Y-117950947D01*
X72974804Y-117890471D02*
X72720804Y-117890471D01*
X72720804Y-117987233D01*
X72732900Y-118011423D01*
X72744995Y-118023519D01*
X72769185Y-118035614D01*
X72805471Y-118035614D01*
X72829661Y-118023519D01*
X72841757Y-118011423D01*
X72853852Y-117987233D01*
X72853852Y-117890471D01*
X72744995Y-118132376D02*
X72732900Y-118144471D01*
X72720804Y-118168661D01*
X72720804Y-118229138D01*
X72732900Y-118253328D01*
X72744995Y-118265423D01*
X72769185Y-118277519D01*
X72793376Y-118277519D01*
X72829661Y-118265423D01*
X72974804Y-118120280D01*
X72974804Y-118277519D01*
X72720804Y-118362185D02*
X72720804Y-118531519D01*
X72974804Y-118422661D01*
D13*
X73112380Y-117843300D02*
X73350476Y-117843300D01*
X73255238Y-117605204D02*
X73350476Y-117843300D01*
X73255238Y-118081395D01*
X73540952Y-117700442D02*
X73350476Y-117843300D01*
X73540952Y-117986157D01*
D12*
X71476204Y-118035614D02*
X71355252Y-117950947D01*
X71476204Y-117890471D02*
X71222204Y-117890471D01*
X71222204Y-117987233D01*
X71234300Y-118011423D01*
X71246395Y-118023519D01*
X71270585Y-118035614D01*
X71306871Y-118035614D01*
X71331061Y-118023519D01*
X71343157Y-118011423D01*
X71355252Y-117987233D01*
X71355252Y-117890471D01*
X71246395Y-118132376D02*
X71234300Y-118144471D01*
X71222204Y-118168661D01*
X71222204Y-118229138D01*
X71234300Y-118253328D01*
X71246395Y-118265423D01*
X71270585Y-118277519D01*
X71294776Y-118277519D01*
X71331061Y-118265423D01*
X71476204Y-118120280D01*
X71476204Y-118277519D01*
X71222204Y-118495233D02*
X71222204Y-118446852D01*
X71234300Y-118422661D01*
X71246395Y-118410566D01*
X71282680Y-118386376D01*
X71331061Y-118374280D01*
X71427823Y-118374280D01*
X71452014Y-118386376D01*
X71464109Y-118398471D01*
X71476204Y-118422661D01*
X71476204Y-118471042D01*
X71464109Y-118495233D01*
X71452014Y-118507328D01*
X71427823Y-118519423D01*
X71367347Y-118519423D01*
X71343157Y-118507328D01*
X71331061Y-118495233D01*
X71318966Y-118471042D01*
X71318966Y-118422661D01*
X71331061Y-118398471D01*
X71343157Y-118386376D01*
X71367347Y-118374280D01*
D13*
X71613780Y-117843300D02*
X71851876Y-117843300D01*
X71756638Y-117605204D02*
X71851876Y-117843300D01*
X71756638Y-118081395D01*
X72042352Y-117700442D02*
X71851876Y-117843300D01*
X72042352Y-117986157D01*
D12*
X72731085Y-121438004D02*
X72815752Y-121317052D01*
X72876228Y-121438004D02*
X72876228Y-121184004D01*
X72779466Y-121184004D01*
X72755276Y-121196100D01*
X72743180Y-121208195D01*
X72731085Y-121232385D01*
X72731085Y-121268671D01*
X72743180Y-121292861D01*
X72755276Y-121304957D01*
X72779466Y-121317052D01*
X72876228Y-121317052D01*
X72634323Y-121208195D02*
X72622228Y-121196100D01*
X72598038Y-121184004D01*
X72537561Y-121184004D01*
X72513371Y-121196100D01*
X72501276Y-121208195D01*
X72489180Y-121232385D01*
X72489180Y-121256576D01*
X72501276Y-121292861D01*
X72646419Y-121438004D01*
X72489180Y-121438004D01*
X72259371Y-121184004D02*
X72380323Y-121184004D01*
X72392419Y-121304957D01*
X72380323Y-121292861D01*
X72356133Y-121280766D01*
X72295657Y-121280766D01*
X72271466Y-121292861D01*
X72259371Y-121304957D01*
X72247276Y-121329147D01*
X72247276Y-121389623D01*
X72259371Y-121413814D01*
X72271466Y-121425909D01*
X72295657Y-121438004D01*
X72356133Y-121438004D01*
X72380323Y-121425909D01*
X72392419Y-121413814D01*
D13*
X72923400Y-121575580D02*
X72923400Y-121813676D01*
X73161495Y-121718438D02*
X72923400Y-121813676D01*
X72685304Y-121718438D01*
X73066257Y-122004152D02*
X72923400Y-121813676D01*
X72780542Y-122004152D01*
D12*
X72731085Y-119939404D02*
X72815752Y-119818452D01*
X72876228Y-119939404D02*
X72876228Y-119685404D01*
X72779466Y-119685404D01*
X72755276Y-119697500D01*
X72743180Y-119709595D01*
X72731085Y-119733785D01*
X72731085Y-119770071D01*
X72743180Y-119794261D01*
X72755276Y-119806357D01*
X72779466Y-119818452D01*
X72876228Y-119818452D01*
X72634323Y-119709595D02*
X72622228Y-119697500D01*
X72598038Y-119685404D01*
X72537561Y-119685404D01*
X72513371Y-119697500D01*
X72501276Y-119709595D01*
X72489180Y-119733785D01*
X72489180Y-119757976D01*
X72501276Y-119794261D01*
X72646419Y-119939404D01*
X72489180Y-119939404D01*
X72271466Y-119770071D02*
X72271466Y-119939404D01*
X72331942Y-119673309D02*
X72392419Y-119854738D01*
X72235180Y-119854738D01*
D13*
X72923400Y-120076980D02*
X72923400Y-120315076D01*
X73161495Y-120219838D02*
X72923400Y-120315076D01*
X72685304Y-120219838D01*
X73066257Y-120505552D02*
X72923400Y-120315076D01*
X72780542Y-120505552D01*
D12*
X70991185Y-128169004D02*
X71075852Y-128048052D01*
X71136328Y-128169004D02*
X71136328Y-127915004D01*
X71039566Y-127915004D01*
X71015376Y-127927100D01*
X71003280Y-127939195D01*
X70991185Y-127963385D01*
X70991185Y-127999671D01*
X71003280Y-128023861D01*
X71015376Y-128035957D01*
X71039566Y-128048052D01*
X71136328Y-128048052D01*
X70894423Y-127939195D02*
X70882328Y-127927100D01*
X70858138Y-127915004D01*
X70797661Y-127915004D01*
X70773471Y-127927100D01*
X70761376Y-127939195D01*
X70749280Y-127963385D01*
X70749280Y-127987576D01*
X70761376Y-128023861D01*
X70906519Y-128169004D01*
X70749280Y-128169004D01*
X70664614Y-127915004D02*
X70507376Y-127915004D01*
X70592042Y-128011766D01*
X70555757Y-128011766D01*
X70531566Y-128023861D01*
X70519471Y-128035957D01*
X70507376Y-128060147D01*
X70507376Y-128120623D01*
X70519471Y-128144814D01*
X70531566Y-128156909D01*
X70555757Y-128169004D01*
X70628328Y-128169004D01*
X70652519Y-128156909D01*
X70664614Y-128144814D01*
D13*
X70485000Y-126706380D02*
X70485000Y-126944476D01*
X70723095Y-126849238D02*
X70485000Y-126944476D01*
X70246904Y-126849238D01*
X70627857Y-127134952D02*
X70485000Y-126944476D01*
X70342142Y-127134952D01*
D12*
X68123404Y-130024414D02*
X68002452Y-129939747D01*
X68123404Y-129879271D02*
X67869404Y-129879271D01*
X67869404Y-129976033D01*
X67881500Y-130000223D01*
X67893595Y-130012319D01*
X67917785Y-130024414D01*
X67954071Y-130024414D01*
X67978261Y-130012319D01*
X67990357Y-130000223D01*
X68002452Y-129976033D01*
X68002452Y-129879271D01*
X67893595Y-130121176D02*
X67881500Y-130133271D01*
X67869404Y-130157461D01*
X67869404Y-130217938D01*
X67881500Y-130242128D01*
X67893595Y-130254223D01*
X67917785Y-130266319D01*
X67941976Y-130266319D01*
X67978261Y-130254223D01*
X68123404Y-130109080D01*
X68123404Y-130266319D01*
X67893595Y-130363080D02*
X67881500Y-130375176D01*
X67869404Y-130399366D01*
X67869404Y-130459842D01*
X67881500Y-130484033D01*
X67893595Y-130496128D01*
X67917785Y-130508223D01*
X67941976Y-130508223D01*
X67978261Y-130496128D01*
X68123404Y-130350985D01*
X68123404Y-130508223D01*
D13*
X68260980Y-129844800D02*
X68499076Y-129844800D01*
X68403838Y-129606704D02*
X68499076Y-129844800D01*
X68403838Y-130082895D01*
X68689552Y-129701942D02*
X68499076Y-129844800D01*
X68689552Y-129987657D01*
D12*
X66546185Y-129337404D02*
X66630852Y-129216452D01*
X66691328Y-129337404D02*
X66691328Y-129083404D01*
X66594566Y-129083404D01*
X66570376Y-129095500D01*
X66558280Y-129107595D01*
X66546185Y-129131785D01*
X66546185Y-129168071D01*
X66558280Y-129192261D01*
X66570376Y-129204357D01*
X66594566Y-129216452D01*
X66691328Y-129216452D01*
X66449423Y-129107595D02*
X66437328Y-129095500D01*
X66413138Y-129083404D01*
X66352661Y-129083404D01*
X66328471Y-129095500D01*
X66316376Y-129107595D01*
X66304280Y-129131785D01*
X66304280Y-129155976D01*
X66316376Y-129192261D01*
X66461519Y-129337404D01*
X66304280Y-129337404D01*
X66062376Y-129337404D02*
X66207519Y-129337404D01*
X66134947Y-129337404D02*
X66134947Y-129083404D01*
X66159138Y-129119690D01*
X66183328Y-129143880D01*
X66207519Y-129155976D01*
D13*
X66040000Y-127874780D02*
X66040000Y-128112876D01*
X66278095Y-128017638D02*
X66040000Y-128112876D01*
X65801904Y-128017638D01*
X66182857Y-128303352D02*
X66040000Y-128112876D01*
X65897142Y-128303352D01*
D12*
X62611604Y-129414814D02*
X62490652Y-129330147D01*
X62611604Y-129269671D02*
X62357604Y-129269671D01*
X62357604Y-129366433D01*
X62369700Y-129390623D01*
X62381795Y-129402719D01*
X62405985Y-129414814D01*
X62442271Y-129414814D01*
X62466461Y-129402719D01*
X62478557Y-129390623D01*
X62490652Y-129366433D01*
X62490652Y-129269671D01*
X62381795Y-129511576D02*
X62369700Y-129523671D01*
X62357604Y-129547861D01*
X62357604Y-129608338D01*
X62369700Y-129632528D01*
X62381795Y-129644623D01*
X62405985Y-129656719D01*
X62430176Y-129656719D01*
X62466461Y-129644623D01*
X62611604Y-129499480D01*
X62611604Y-129656719D01*
X62357604Y-129813957D02*
X62357604Y-129838147D01*
X62369700Y-129862338D01*
X62381795Y-129874433D01*
X62405985Y-129886528D01*
X62454366Y-129898623D01*
X62514842Y-129898623D01*
X62563223Y-129886528D01*
X62587414Y-129874433D01*
X62599509Y-129862338D01*
X62611604Y-129838147D01*
X62611604Y-129813957D01*
X62599509Y-129789766D01*
X62587414Y-129777671D01*
X62563223Y-129765576D01*
X62514842Y-129753480D01*
X62454366Y-129753480D01*
X62405985Y-129765576D01*
X62381795Y-129777671D01*
X62369700Y-129789766D01*
X62357604Y-129813957D01*
D13*
X62749180Y-129235200D02*
X62987276Y-129235200D01*
X62892038Y-128997104D02*
X62987276Y-129235200D01*
X62892038Y-129473295D01*
X63177752Y-129092342D02*
X62987276Y-129235200D01*
X63177752Y-129378057D01*
D12*
X60754985Y-127368904D02*
X60839652Y-127247952D01*
X60900128Y-127368904D02*
X60900128Y-127114904D01*
X60803366Y-127114904D01*
X60779176Y-127127000D01*
X60767080Y-127139095D01*
X60754985Y-127163285D01*
X60754985Y-127199571D01*
X60767080Y-127223761D01*
X60779176Y-127235857D01*
X60803366Y-127247952D01*
X60900128Y-127247952D01*
X60513080Y-127368904D02*
X60658223Y-127368904D01*
X60585652Y-127368904D02*
X60585652Y-127114904D01*
X60609842Y-127151190D01*
X60634033Y-127175380D01*
X60658223Y-127187476D01*
X60392128Y-127368904D02*
X60343747Y-127368904D01*
X60319557Y-127356809D01*
X60307461Y-127344714D01*
X60283271Y-127308428D01*
X60271176Y-127260047D01*
X60271176Y-127163285D01*
X60283271Y-127139095D01*
X60295366Y-127127000D01*
X60319557Y-127114904D01*
X60367938Y-127114904D01*
X60392128Y-127127000D01*
X60404223Y-127139095D01*
X60416319Y-127163285D01*
X60416319Y-127223761D01*
X60404223Y-127247952D01*
X60392128Y-127260047D01*
X60367938Y-127272142D01*
X60319557Y-127272142D01*
X60295366Y-127260047D01*
X60283271Y-127247952D01*
X60271176Y-127223761D01*
D13*
X60858400Y-127315980D02*
X60858400Y-127554076D01*
X61096495Y-127458838D02*
X60858400Y-127554076D01*
X60620304Y-127458838D01*
X61001257Y-127744552D02*
X60858400Y-127554076D01*
X60715542Y-127744552D01*
D12*
X60539085Y-131509104D02*
X60623752Y-131388152D01*
X60684228Y-131509104D02*
X60684228Y-131255104D01*
X60587466Y-131255104D01*
X60563276Y-131267200D01*
X60551180Y-131279295D01*
X60539085Y-131303485D01*
X60539085Y-131339771D01*
X60551180Y-131363961D01*
X60563276Y-131376057D01*
X60587466Y-131388152D01*
X60684228Y-131388152D01*
X60297180Y-131509104D02*
X60442323Y-131509104D01*
X60369752Y-131509104D02*
X60369752Y-131255104D01*
X60393942Y-131291390D01*
X60418133Y-131315580D01*
X60442323Y-131327676D01*
X60152038Y-131363961D02*
X60176228Y-131351866D01*
X60188323Y-131339771D01*
X60200419Y-131315580D01*
X60200419Y-131303485D01*
X60188323Y-131279295D01*
X60176228Y-131267200D01*
X60152038Y-131255104D01*
X60103657Y-131255104D01*
X60079466Y-131267200D01*
X60067371Y-131279295D01*
X60055276Y-131303485D01*
X60055276Y-131315580D01*
X60067371Y-131339771D01*
X60079466Y-131351866D01*
X60103657Y-131363961D01*
X60152038Y-131363961D01*
X60176228Y-131376057D01*
X60188323Y-131388152D01*
X60200419Y-131412342D01*
X60200419Y-131460723D01*
X60188323Y-131484914D01*
X60176228Y-131497009D01*
X60152038Y-131509104D01*
X60103657Y-131509104D01*
X60079466Y-131497009D01*
X60067371Y-131484914D01*
X60055276Y-131460723D01*
X60055276Y-131412342D01*
X60067371Y-131388152D01*
X60079466Y-131376057D01*
X60103657Y-131363961D01*
D13*
X60706000Y-131633980D02*
X60706000Y-131872076D01*
X60944095Y-131776838D02*
X60706000Y-131872076D01*
X60467904Y-131776838D01*
X60848857Y-132062552D02*
X60706000Y-131872076D01*
X60563142Y-132062552D01*
D12*
X60539085Y-129985104D02*
X60623752Y-129864152D01*
X60684228Y-129985104D02*
X60684228Y-129731104D01*
X60587466Y-129731104D01*
X60563276Y-129743200D01*
X60551180Y-129755295D01*
X60539085Y-129779485D01*
X60539085Y-129815771D01*
X60551180Y-129839961D01*
X60563276Y-129852057D01*
X60587466Y-129864152D01*
X60684228Y-129864152D01*
X60297180Y-129985104D02*
X60442323Y-129985104D01*
X60369752Y-129985104D02*
X60369752Y-129731104D01*
X60393942Y-129767390D01*
X60418133Y-129791580D01*
X60442323Y-129803676D01*
X60212514Y-129731104D02*
X60043180Y-129731104D01*
X60152038Y-129985104D01*
D13*
X60655200Y-130109980D02*
X60655200Y-130348076D01*
X60893295Y-130252838D02*
X60655200Y-130348076D01*
X60417104Y-130252838D01*
X60798057Y-130538552D02*
X60655200Y-130348076D01*
X60512342Y-130538552D01*
D12*
X55382885Y-121133204D02*
X55467552Y-121012252D01*
X55528028Y-121133204D02*
X55528028Y-120879204D01*
X55431266Y-120879204D01*
X55407076Y-120891300D01*
X55394980Y-120903395D01*
X55382885Y-120927585D01*
X55382885Y-120963871D01*
X55394980Y-120988061D01*
X55407076Y-121000157D01*
X55431266Y-121012252D01*
X55528028Y-121012252D01*
X55140980Y-121133204D02*
X55286123Y-121133204D01*
X55213552Y-121133204D02*
X55213552Y-120879204D01*
X55237742Y-120915490D01*
X55261933Y-120939680D01*
X55286123Y-120951776D01*
X54923266Y-120879204D02*
X54971647Y-120879204D01*
X54995838Y-120891300D01*
X55007933Y-120903395D01*
X55032123Y-120939680D01*
X55044219Y-120988061D01*
X55044219Y-121084823D01*
X55032123Y-121109014D01*
X55020028Y-121121109D01*
X54995838Y-121133204D01*
X54947457Y-121133204D01*
X54923266Y-121121109D01*
X54911171Y-121109014D01*
X54899076Y-121084823D01*
X54899076Y-121024347D01*
X54911171Y-121000157D01*
X54923266Y-120988061D01*
X54947457Y-120975966D01*
X54995838Y-120975966D01*
X55020028Y-120988061D01*
X55032123Y-121000157D01*
X55044219Y-121024347D01*
D13*
X55473600Y-121270780D02*
X55473600Y-121508876D01*
X55711695Y-121413638D02*
X55473600Y-121508876D01*
X55235504Y-121413638D01*
X55616457Y-121699352D02*
X55473600Y-121508876D01*
X55330742Y-121699352D01*
D12*
X55382885Y-119609204D02*
X55467552Y-119488252D01*
X55528028Y-119609204D02*
X55528028Y-119355204D01*
X55431266Y-119355204D01*
X55407076Y-119367300D01*
X55394980Y-119379395D01*
X55382885Y-119403585D01*
X55382885Y-119439871D01*
X55394980Y-119464061D01*
X55407076Y-119476157D01*
X55431266Y-119488252D01*
X55528028Y-119488252D01*
X55140980Y-119609204D02*
X55286123Y-119609204D01*
X55213552Y-119609204D02*
X55213552Y-119355204D01*
X55237742Y-119391490D01*
X55261933Y-119415680D01*
X55286123Y-119427776D01*
X54911171Y-119355204D02*
X55032123Y-119355204D01*
X55044219Y-119476157D01*
X55032123Y-119464061D01*
X55007933Y-119451966D01*
X54947457Y-119451966D01*
X54923266Y-119464061D01*
X54911171Y-119476157D01*
X54899076Y-119500347D01*
X54899076Y-119560823D01*
X54911171Y-119585014D01*
X54923266Y-119597109D01*
X54947457Y-119609204D01*
X55007933Y-119609204D01*
X55032123Y-119597109D01*
X55044219Y-119585014D01*
D13*
X55473600Y-119746780D02*
X55473600Y-119984876D01*
X55711695Y-119889638D02*
X55473600Y-119984876D01*
X55235504Y-119889638D01*
X55616457Y-120175352D02*
X55473600Y-119984876D01*
X55330742Y-120175352D01*
D12*
X55382885Y-118085204D02*
X55467552Y-117964252D01*
X55528028Y-118085204D02*
X55528028Y-117831204D01*
X55431266Y-117831204D01*
X55407076Y-117843300D01*
X55394980Y-117855395D01*
X55382885Y-117879585D01*
X55382885Y-117915871D01*
X55394980Y-117940061D01*
X55407076Y-117952157D01*
X55431266Y-117964252D01*
X55528028Y-117964252D01*
X55140980Y-118085204D02*
X55286123Y-118085204D01*
X55213552Y-118085204D02*
X55213552Y-117831204D01*
X55237742Y-117867490D01*
X55261933Y-117891680D01*
X55286123Y-117903776D01*
X54923266Y-117915871D02*
X54923266Y-118085204D01*
X54983742Y-117819109D02*
X55044219Y-118000538D01*
X54886980Y-118000538D01*
D13*
X55473600Y-118222780D02*
X55473600Y-118460876D01*
X55711695Y-118365638D02*
X55473600Y-118460876D01*
X55235504Y-118365638D01*
X55616457Y-118651352D02*
X55473600Y-118460876D01*
X55330742Y-118651352D01*
D12*
X55382885Y-116561204D02*
X55467552Y-116440252D01*
X55528028Y-116561204D02*
X55528028Y-116307204D01*
X55431266Y-116307204D01*
X55407076Y-116319300D01*
X55394980Y-116331395D01*
X55382885Y-116355585D01*
X55382885Y-116391871D01*
X55394980Y-116416061D01*
X55407076Y-116428157D01*
X55431266Y-116440252D01*
X55528028Y-116440252D01*
X55140980Y-116561204D02*
X55286123Y-116561204D01*
X55213552Y-116561204D02*
X55213552Y-116307204D01*
X55237742Y-116343490D01*
X55261933Y-116367680D01*
X55286123Y-116379776D01*
X55056314Y-116307204D02*
X54899076Y-116307204D01*
X54983742Y-116403966D01*
X54947457Y-116403966D01*
X54923266Y-116416061D01*
X54911171Y-116428157D01*
X54899076Y-116452347D01*
X54899076Y-116512823D01*
X54911171Y-116537014D01*
X54923266Y-116549109D01*
X54947457Y-116561204D01*
X55020028Y-116561204D01*
X55044219Y-116549109D01*
X55056314Y-116537014D01*
D13*
X55473600Y-116698780D02*
X55473600Y-116936876D01*
X55711695Y-116841638D02*
X55473600Y-116936876D01*
X55235504Y-116841638D01*
X55616457Y-117127352D02*
X55473600Y-116936876D01*
X55330742Y-117127352D01*
D12*
X55382885Y-115037204D02*
X55467552Y-114916252D01*
X55528028Y-115037204D02*
X55528028Y-114783204D01*
X55431266Y-114783204D01*
X55407076Y-114795300D01*
X55394980Y-114807395D01*
X55382885Y-114831585D01*
X55382885Y-114867871D01*
X55394980Y-114892061D01*
X55407076Y-114904157D01*
X55431266Y-114916252D01*
X55528028Y-114916252D01*
X55140980Y-115037204D02*
X55286123Y-115037204D01*
X55213552Y-115037204D02*
X55213552Y-114783204D01*
X55237742Y-114819490D01*
X55261933Y-114843680D01*
X55286123Y-114855776D01*
X55044219Y-114807395D02*
X55032123Y-114795300D01*
X55007933Y-114783204D01*
X54947457Y-114783204D01*
X54923266Y-114795300D01*
X54911171Y-114807395D01*
X54899076Y-114831585D01*
X54899076Y-114855776D01*
X54911171Y-114892061D01*
X55056314Y-115037204D01*
X54899076Y-115037204D01*
D13*
X55524400Y-115174780D02*
X55524400Y-115412876D01*
X55762495Y-115317638D02*
X55524400Y-115412876D01*
X55286304Y-115317638D01*
X55667257Y-115603352D02*
X55524400Y-115412876D01*
X55381542Y-115603352D01*
D12*
X50671185Y-78639004D02*
X50755852Y-78518052D01*
X50816328Y-78639004D02*
X50816328Y-78385004D01*
X50719566Y-78385004D01*
X50695376Y-78397100D01*
X50683280Y-78409195D01*
X50671185Y-78433385D01*
X50671185Y-78469671D01*
X50683280Y-78493861D01*
X50695376Y-78505957D01*
X50719566Y-78518052D01*
X50816328Y-78518052D01*
X50429280Y-78639004D02*
X50574423Y-78639004D01*
X50501852Y-78639004D02*
X50501852Y-78385004D01*
X50526042Y-78421290D01*
X50550233Y-78445480D01*
X50574423Y-78457576D01*
X50187376Y-78639004D02*
X50332519Y-78639004D01*
X50259947Y-78639004D02*
X50259947Y-78385004D01*
X50284138Y-78421290D01*
X50308328Y-78445480D01*
X50332519Y-78457576D01*
D13*
X50241200Y-77684380D02*
X50241200Y-77922476D01*
X50479295Y-77827238D02*
X50241200Y-77922476D01*
X50003104Y-77827238D01*
X50384057Y-78112952D02*
X50241200Y-77922476D01*
X50098342Y-78112952D01*
D12*
X58430885Y-65177004D02*
X58515552Y-65056052D01*
X58576028Y-65177004D02*
X58576028Y-64923004D01*
X58479266Y-64923004D01*
X58455076Y-64935100D01*
X58442980Y-64947195D01*
X58430885Y-64971385D01*
X58430885Y-65007671D01*
X58442980Y-65031861D01*
X58455076Y-65043957D01*
X58479266Y-65056052D01*
X58576028Y-65056052D01*
X58188980Y-65177004D02*
X58334123Y-65177004D01*
X58261552Y-65177004D02*
X58261552Y-64923004D01*
X58285742Y-64959290D01*
X58309933Y-64983480D01*
X58334123Y-64995576D01*
X58031742Y-64923004D02*
X58007552Y-64923004D01*
X57983361Y-64935100D01*
X57971266Y-64947195D01*
X57959171Y-64971385D01*
X57947076Y-65019766D01*
X57947076Y-65080242D01*
X57959171Y-65128623D01*
X57971266Y-65152814D01*
X57983361Y-65164909D01*
X58007552Y-65177004D01*
X58031742Y-65177004D01*
X58055933Y-65164909D01*
X58068028Y-65152814D01*
X58080123Y-65128623D01*
X58092219Y-65080242D01*
X58092219Y-65019766D01*
X58080123Y-64971385D01*
X58068028Y-64947195D01*
X58055933Y-64935100D01*
X58031742Y-64923004D01*
D13*
X57912000Y-64222380D02*
X57912000Y-64460476D01*
X58150095Y-64365238D02*
X57912000Y-64460476D01*
X57673904Y-64365238D01*
X58054857Y-64650952D02*
X57912000Y-64460476D01*
X57769142Y-64650952D01*
D12*
X55808033Y-140767404D02*
X55892700Y-140646452D01*
X55953176Y-140767404D02*
X55953176Y-140513404D01*
X55856414Y-140513404D01*
X55832223Y-140525500D01*
X55820128Y-140537595D01*
X55808033Y-140561785D01*
X55808033Y-140598071D01*
X55820128Y-140622261D01*
X55832223Y-140634357D01*
X55856414Y-140646452D01*
X55953176Y-140646452D01*
X55687080Y-140767404D02*
X55638700Y-140767404D01*
X55614509Y-140755309D01*
X55602414Y-140743214D01*
X55578223Y-140706928D01*
X55566128Y-140658547D01*
X55566128Y-140561785D01*
X55578223Y-140537595D01*
X55590319Y-140525500D01*
X55614509Y-140513404D01*
X55662890Y-140513404D01*
X55687080Y-140525500D01*
X55699176Y-140537595D01*
X55711271Y-140561785D01*
X55711271Y-140622261D01*
X55699176Y-140646452D01*
X55687080Y-140658547D01*
X55662890Y-140670642D01*
X55614509Y-140670642D01*
X55590319Y-140658547D01*
X55578223Y-140646452D01*
X55566128Y-140622261D01*
D13*
X55422800Y-139812780D02*
X55422800Y-140050876D01*
X55660895Y-139955638D02*
X55422800Y-140050876D01*
X55184704Y-139955638D01*
X55565657Y-140241352D02*
X55422800Y-140050876D01*
X55279942Y-140241352D01*
D12*
X65117133Y-99314604D02*
X65201800Y-99193652D01*
X65262276Y-99314604D02*
X65262276Y-99060604D01*
X65165514Y-99060604D01*
X65141323Y-99072700D01*
X65129228Y-99084795D01*
X65117133Y-99108985D01*
X65117133Y-99145271D01*
X65129228Y-99169461D01*
X65141323Y-99181557D01*
X65165514Y-99193652D01*
X65262276Y-99193652D01*
X64971990Y-99169461D02*
X64996180Y-99157366D01*
X65008276Y-99145271D01*
X65020371Y-99121080D01*
X65020371Y-99108985D01*
X65008276Y-99084795D01*
X64996180Y-99072700D01*
X64971990Y-99060604D01*
X64923609Y-99060604D01*
X64899419Y-99072700D01*
X64887323Y-99084795D01*
X64875228Y-99108985D01*
X64875228Y-99121080D01*
X64887323Y-99145271D01*
X64899419Y-99157366D01*
X64923609Y-99169461D01*
X64971990Y-99169461D01*
X64996180Y-99181557D01*
X65008276Y-99193652D01*
X65020371Y-99217842D01*
X65020371Y-99266223D01*
X65008276Y-99290414D01*
X64996180Y-99302509D01*
X64971990Y-99314604D01*
X64923609Y-99314604D01*
X64899419Y-99302509D01*
X64887323Y-99290414D01*
X64875228Y-99266223D01*
X64875228Y-99217842D01*
X64887323Y-99193652D01*
X64899419Y-99181557D01*
X64923609Y-99169461D01*
D13*
X64770000Y-98359980D02*
X64770000Y-98598076D01*
X65008095Y-98502838D02*
X64770000Y-98598076D01*
X64531904Y-98502838D01*
X64912857Y-98788552D02*
X64770000Y-98598076D01*
X64627142Y-98788552D01*
D12*
X57099804Y-66879266D02*
X56978852Y-66794600D01*
X57099804Y-66734123D02*
X56845804Y-66734123D01*
X56845804Y-66830885D01*
X56857900Y-66855076D01*
X56869995Y-66867171D01*
X56894185Y-66879266D01*
X56930471Y-66879266D01*
X56954661Y-66867171D01*
X56966757Y-66855076D01*
X56978852Y-66830885D01*
X56978852Y-66734123D01*
X56845804Y-67096980D02*
X56845804Y-67048600D01*
X56857900Y-67024409D01*
X56869995Y-67012314D01*
X56906280Y-66988123D01*
X56954661Y-66976028D01*
X57051423Y-66976028D01*
X57075614Y-66988123D01*
X57087709Y-67000219D01*
X57099804Y-67024409D01*
X57099804Y-67072790D01*
X57087709Y-67096980D01*
X57075614Y-67109076D01*
X57051423Y-67121171D01*
X56990947Y-67121171D01*
X56966757Y-67109076D01*
X56954661Y-67096980D01*
X56942566Y-67072790D01*
X56942566Y-67024409D01*
X56954661Y-67000219D01*
X56966757Y-66988123D01*
X56990947Y-66976028D01*
X62856533Y-80823404D02*
X62941200Y-80702452D01*
X63001676Y-80823404D02*
X63001676Y-80569404D01*
X62904914Y-80569404D01*
X62880723Y-80581500D01*
X62868628Y-80593595D01*
X62856533Y-80617785D01*
X62856533Y-80654071D01*
X62868628Y-80678261D01*
X62880723Y-80690357D01*
X62904914Y-80702452D01*
X63001676Y-80702452D01*
X62771866Y-80569404D02*
X62614628Y-80569404D01*
X62699295Y-80666166D01*
X62663009Y-80666166D01*
X62638819Y-80678261D01*
X62626723Y-80690357D01*
X62614628Y-80714547D01*
X62614628Y-80775023D01*
X62626723Y-80799214D01*
X62638819Y-80811309D01*
X62663009Y-80823404D01*
X62735580Y-80823404D01*
X62759771Y-80811309D01*
X62771866Y-80799214D01*
D13*
X62484000Y-79868780D02*
X62484000Y-80106876D01*
X62722095Y-80011638D02*
X62484000Y-80106876D01*
X62245904Y-80011638D01*
X62626857Y-80297352D02*
X62484000Y-80106876D01*
X62341142Y-80297352D01*
D12*
X64554704Y-75306766D02*
X64433752Y-75222100D01*
X64554704Y-75161623D02*
X64300704Y-75161623D01*
X64300704Y-75258385D01*
X64312800Y-75282576D01*
X64324895Y-75294671D01*
X64349085Y-75306766D01*
X64385371Y-75306766D01*
X64409561Y-75294671D01*
X64421657Y-75282576D01*
X64433752Y-75258385D01*
X64433752Y-75161623D01*
X64324895Y-75403528D02*
X64312800Y-75415623D01*
X64300704Y-75439814D01*
X64300704Y-75500290D01*
X64312800Y-75524480D01*
X64324895Y-75536576D01*
X64349085Y-75548671D01*
X64373276Y-75548671D01*
X64409561Y-75536576D01*
X64554704Y-75391433D01*
X64554704Y-75548671D01*
D13*
X64679580Y-75031600D02*
X64917676Y-75031600D01*
X64822438Y-74793504D02*
X64917676Y-75031600D01*
X64822438Y-75269695D01*
X65108152Y-74888742D02*
X64917676Y-75031600D01*
X65108152Y-75174457D01*
D15*
X54628142Y-69877083D02*
X54628142Y-69572283D01*
X54526542Y-69789998D01*
X54424942Y-69572283D01*
X54424942Y-69877083D01*
X54120142Y-69877083D02*
X54294314Y-69877083D01*
X54207228Y-69877083D02*
X54207228Y-69572283D01*
X54236257Y-69615826D01*
X54265285Y-69644855D01*
X54294314Y-69659369D01*
D16*
X52351214Y-69739198D02*
X52532642Y-69739198D01*
X52460071Y-69557769D02*
X52532642Y-69739198D01*
X52460071Y-69920626D01*
X52677785Y-69630340D02*
X52532642Y-69739198D01*
X52677785Y-69848055D01*
D12*
X38368514Y-87415914D02*
X38380609Y-87403819D01*
X38392704Y-87367533D01*
X38392704Y-87343342D01*
X38380609Y-87307057D01*
X38356419Y-87282866D01*
X38332228Y-87270771D01*
X38283847Y-87258676D01*
X38247561Y-87258676D01*
X38199180Y-87270771D01*
X38174990Y-87282866D01*
X38150800Y-87307057D01*
X38138704Y-87343342D01*
X38138704Y-87367533D01*
X38150800Y-87403819D01*
X38162895Y-87415914D01*
X38223371Y-87633628D02*
X38392704Y-87633628D01*
X38126609Y-87573152D02*
X38308038Y-87512676D01*
X38308038Y-87669914D01*
X38392704Y-87778771D02*
X38392704Y-87827152D01*
X38380609Y-87851342D01*
X38368514Y-87863438D01*
X38332228Y-87887628D01*
X38283847Y-87899723D01*
X38187085Y-87899723D01*
X38162895Y-87887628D01*
X38150800Y-87875533D01*
X38138704Y-87851342D01*
X38138704Y-87802961D01*
X38150800Y-87778771D01*
X38162895Y-87766676D01*
X38187085Y-87754580D01*
X38247561Y-87754580D01*
X38271752Y-87766676D01*
X38283847Y-87778771D01*
X38295942Y-87802961D01*
X38295942Y-87851342D01*
X38283847Y-87875533D01*
X38271752Y-87887628D01*
X38247561Y-87899723D01*
D15*
X37561157Y-87757000D02*
X37651871Y-87757000D01*
X37615585Y-87666285D02*
X37651871Y-87757000D01*
X37615585Y-87847714D01*
X37724442Y-87702571D02*
X37651871Y-87757000D01*
X37724442Y-87811428D01*
D12*
X39790914Y-82412114D02*
X39803009Y-82400019D01*
X39815104Y-82363733D01*
X39815104Y-82339542D01*
X39803009Y-82303257D01*
X39778819Y-82279066D01*
X39754628Y-82266971D01*
X39706247Y-82254876D01*
X39669961Y-82254876D01*
X39621580Y-82266971D01*
X39597390Y-82279066D01*
X39573200Y-82303257D01*
X39561104Y-82339542D01*
X39561104Y-82363733D01*
X39573200Y-82400019D01*
X39585295Y-82412114D01*
X39645771Y-82629828D02*
X39815104Y-82629828D01*
X39549009Y-82569352D02*
X39730438Y-82508876D01*
X39730438Y-82666114D01*
X39669961Y-82799161D02*
X39657866Y-82774971D01*
X39645771Y-82762876D01*
X39621580Y-82750780D01*
X39609485Y-82750780D01*
X39585295Y-82762876D01*
X39573200Y-82774971D01*
X39561104Y-82799161D01*
X39561104Y-82847542D01*
X39573200Y-82871733D01*
X39585295Y-82883828D01*
X39609485Y-82895923D01*
X39621580Y-82895923D01*
X39645771Y-82883828D01*
X39657866Y-82871733D01*
X39669961Y-82847542D01*
X39669961Y-82799161D01*
X39682057Y-82774971D01*
X39694152Y-82762876D01*
X39718342Y-82750780D01*
X39766723Y-82750780D01*
X39790914Y-82762876D01*
X39803009Y-82774971D01*
X39815104Y-82799161D01*
X39815104Y-82847542D01*
X39803009Y-82871733D01*
X39790914Y-82883828D01*
X39766723Y-82895923D01*
X39718342Y-82895923D01*
X39694152Y-82883828D01*
X39682057Y-82871733D01*
X39669961Y-82847542D01*
X44972514Y-84342514D02*
X44984609Y-84330419D01*
X44996704Y-84294133D01*
X44996704Y-84269942D01*
X44984609Y-84233657D01*
X44960419Y-84209466D01*
X44936228Y-84197371D01*
X44887847Y-84185276D01*
X44851561Y-84185276D01*
X44803180Y-84197371D01*
X44778990Y-84209466D01*
X44754800Y-84233657D01*
X44742704Y-84269942D01*
X44742704Y-84294133D01*
X44754800Y-84330419D01*
X44766895Y-84342514D01*
X44827371Y-84560228D02*
X44996704Y-84560228D01*
X44730609Y-84499752D02*
X44912038Y-84439276D01*
X44912038Y-84596514D01*
X44742704Y-84802133D02*
X44742704Y-84753752D01*
X44754800Y-84729561D01*
X44766895Y-84717466D01*
X44803180Y-84693276D01*
X44851561Y-84681180D01*
X44948323Y-84681180D01*
X44972514Y-84693276D01*
X44984609Y-84705371D01*
X44996704Y-84729561D01*
X44996704Y-84777942D01*
X44984609Y-84802133D01*
X44972514Y-84814228D01*
X44948323Y-84826323D01*
X44887847Y-84826323D01*
X44863657Y-84814228D01*
X44851561Y-84802133D01*
X44839466Y-84777942D01*
X44839466Y-84729561D01*
X44851561Y-84705371D01*
X44863657Y-84693276D01*
X44887847Y-84681180D01*
X46074685Y-81548514D02*
X46086780Y-81560609D01*
X46123066Y-81572704D01*
X46147257Y-81572704D01*
X46183542Y-81560609D01*
X46207733Y-81536419D01*
X46219828Y-81512228D01*
X46231923Y-81463847D01*
X46231923Y-81427561D01*
X46219828Y-81379180D01*
X46207733Y-81354990D01*
X46183542Y-81330800D01*
X46147257Y-81318704D01*
X46123066Y-81318704D01*
X46086780Y-81330800D01*
X46074685Y-81342895D01*
X45856971Y-81403371D02*
X45856971Y-81572704D01*
X45917447Y-81306609D02*
X45977923Y-81488038D01*
X45820685Y-81488038D01*
X45602971Y-81318704D02*
X45723923Y-81318704D01*
X45736019Y-81439657D01*
X45723923Y-81427561D01*
X45699733Y-81415466D01*
X45639257Y-81415466D01*
X45615066Y-81427561D01*
X45602971Y-81439657D01*
X45590876Y-81463847D01*
X45590876Y-81524323D01*
X45602971Y-81548514D01*
X45615066Y-81560609D01*
X45639257Y-81572704D01*
X45699733Y-81572704D01*
X45723923Y-81560609D01*
X45736019Y-81548514D01*
X51649085Y-90451214D02*
X51661180Y-90463309D01*
X51697466Y-90475404D01*
X51721657Y-90475404D01*
X51757942Y-90463309D01*
X51782133Y-90439119D01*
X51794228Y-90414928D01*
X51806323Y-90366547D01*
X51806323Y-90330261D01*
X51794228Y-90281880D01*
X51782133Y-90257690D01*
X51757942Y-90233500D01*
X51721657Y-90221404D01*
X51697466Y-90221404D01*
X51661180Y-90233500D01*
X51649085Y-90245595D01*
X51431371Y-90306071D02*
X51431371Y-90475404D01*
X51491847Y-90209309D02*
X51552323Y-90390738D01*
X51395085Y-90390738D01*
X51189466Y-90306071D02*
X51189466Y-90475404D01*
X51249942Y-90209309D02*
X51310419Y-90390738D01*
X51153180Y-90390738D01*
X48071314Y-81980314D02*
X48083409Y-81968219D01*
X48095504Y-81931933D01*
X48095504Y-81907742D01*
X48083409Y-81871457D01*
X48059219Y-81847266D01*
X48035028Y-81835171D01*
X47986647Y-81823076D01*
X47950361Y-81823076D01*
X47901980Y-81835171D01*
X47877790Y-81847266D01*
X47853600Y-81871457D01*
X47841504Y-81907742D01*
X47841504Y-81931933D01*
X47853600Y-81968219D01*
X47865695Y-81980314D01*
X47926171Y-82198028D02*
X48095504Y-82198028D01*
X47829409Y-82137552D02*
X48010838Y-82077076D01*
X48010838Y-82234314D01*
X47841504Y-82306885D02*
X47841504Y-82464123D01*
X47938266Y-82379457D01*
X47938266Y-82415742D01*
X47950361Y-82439933D01*
X47962457Y-82452028D01*
X47986647Y-82464123D01*
X48047123Y-82464123D01*
X48071314Y-82452028D01*
X48083409Y-82439933D01*
X48095504Y-82415742D01*
X48095504Y-82343171D01*
X48083409Y-82318980D01*
X48071314Y-82306885D01*
D15*
X48279957Y-81965800D02*
X48370671Y-81965800D01*
X48334385Y-81875085D02*
X48370671Y-81965800D01*
X48334385Y-82056514D01*
X48443242Y-81911371D02*
X48370671Y-81965800D01*
X48443242Y-82020228D01*
D12*
X62672685Y-84694485D02*
X62660590Y-84706580D01*
X62648495Y-84742866D01*
X62648495Y-84767057D01*
X62660590Y-84803342D01*
X62684780Y-84827533D01*
X62708971Y-84839628D01*
X62757352Y-84851723D01*
X62793638Y-84851723D01*
X62842019Y-84839628D01*
X62866209Y-84827533D01*
X62890400Y-84803342D01*
X62902495Y-84767057D01*
X62902495Y-84742866D01*
X62890400Y-84706580D01*
X62878304Y-84694485D01*
X62902495Y-84609819D02*
X62902495Y-84452580D01*
X62805733Y-84537247D01*
X62805733Y-84500961D01*
X62793638Y-84476771D01*
X62781542Y-84464676D01*
X62757352Y-84452580D01*
X62696876Y-84452580D01*
X62672685Y-84464676D01*
X62660590Y-84476771D01*
X62648495Y-84500961D01*
X62648495Y-84573533D01*
X62660590Y-84597723D01*
X62672685Y-84609819D01*
X62648495Y-84331628D02*
X62648495Y-84283247D01*
X62660590Y-84259057D01*
X62672685Y-84246961D01*
X62708971Y-84222771D01*
X62757352Y-84210676D01*
X62854114Y-84210676D01*
X62878304Y-84222771D01*
X62890400Y-84234866D01*
X62902495Y-84259057D01*
X62902495Y-84307438D01*
X62890400Y-84331628D01*
X62878304Y-84343723D01*
X62854114Y-84355819D01*
X62793638Y-84355819D01*
X62769447Y-84343723D01*
X62757352Y-84331628D01*
X62745257Y-84307438D01*
X62745257Y-84259057D01*
X62757352Y-84234866D01*
X62769447Y-84222771D01*
X62793638Y-84210676D01*
D15*
X62464042Y-84709000D02*
X62373328Y-84709000D01*
X62409614Y-84799714D02*
X62373328Y-84709000D01*
X62409614Y-84618285D01*
X62300757Y-84763428D02*
X62373328Y-84709000D01*
X62300757Y-84654571D01*
D12*
X66265885Y-86323714D02*
X66277980Y-86335809D01*
X66314266Y-86347904D01*
X66338457Y-86347904D01*
X66374742Y-86335809D01*
X66398933Y-86311619D01*
X66411028Y-86287428D01*
X66423123Y-86239047D01*
X66423123Y-86202761D01*
X66411028Y-86154380D01*
X66398933Y-86130190D01*
X66374742Y-86106000D01*
X66338457Y-86093904D01*
X66314266Y-86093904D01*
X66277980Y-86106000D01*
X66265885Y-86118095D01*
X66181219Y-86093904D02*
X66023980Y-86093904D01*
X66108647Y-86190666D01*
X66072361Y-86190666D01*
X66048171Y-86202761D01*
X66036076Y-86214857D01*
X66023980Y-86239047D01*
X66023980Y-86299523D01*
X66036076Y-86323714D01*
X66048171Y-86335809D01*
X66072361Y-86347904D01*
X66144933Y-86347904D01*
X66169123Y-86335809D01*
X66181219Y-86323714D01*
X65878838Y-86202761D02*
X65903028Y-86190666D01*
X65915123Y-86178571D01*
X65927219Y-86154380D01*
X65927219Y-86142285D01*
X65915123Y-86118095D01*
X65903028Y-86106000D01*
X65878838Y-86093904D01*
X65830457Y-86093904D01*
X65806266Y-86106000D01*
X65794171Y-86118095D01*
X65782076Y-86142285D01*
X65782076Y-86154380D01*
X65794171Y-86178571D01*
X65806266Y-86190666D01*
X65830457Y-86202761D01*
X65878838Y-86202761D01*
X65903028Y-86214857D01*
X65915123Y-86226952D01*
X65927219Y-86251142D01*
X65927219Y-86299523D01*
X65915123Y-86323714D01*
X65903028Y-86335809D01*
X65878838Y-86347904D01*
X65830457Y-86347904D01*
X65806266Y-86335809D01*
X65794171Y-86323714D01*
X65782076Y-86299523D01*
X65782076Y-86251142D01*
X65794171Y-86226952D01*
X65806266Y-86214857D01*
X65830457Y-86202761D01*
X66867314Y-81104914D02*
X66879409Y-81092819D01*
X66891504Y-81056533D01*
X66891504Y-81032342D01*
X66879409Y-80996057D01*
X66855219Y-80971866D01*
X66831028Y-80959771D01*
X66782647Y-80947676D01*
X66746361Y-80947676D01*
X66697980Y-80959771D01*
X66673790Y-80971866D01*
X66649600Y-80996057D01*
X66637504Y-81032342D01*
X66637504Y-81056533D01*
X66649600Y-81092819D01*
X66661695Y-81104914D01*
X66637504Y-81189580D02*
X66637504Y-81346819D01*
X66734266Y-81262152D01*
X66734266Y-81298438D01*
X66746361Y-81322628D01*
X66758457Y-81334723D01*
X66782647Y-81346819D01*
X66843123Y-81346819D01*
X66867314Y-81334723D01*
X66879409Y-81322628D01*
X66891504Y-81298438D01*
X66891504Y-81225866D01*
X66879409Y-81201676D01*
X66867314Y-81189580D01*
X66637504Y-81431485D02*
X66637504Y-81600819D01*
X66891504Y-81491961D01*
X70347114Y-80012714D02*
X70359209Y-80000619D01*
X70371304Y-79964333D01*
X70371304Y-79940142D01*
X70359209Y-79903857D01*
X70335019Y-79879666D01*
X70310828Y-79867571D01*
X70262447Y-79855476D01*
X70226161Y-79855476D01*
X70177780Y-79867571D01*
X70153590Y-79879666D01*
X70129400Y-79903857D01*
X70117304Y-79940142D01*
X70117304Y-79964333D01*
X70129400Y-80000619D01*
X70141495Y-80012714D01*
X70117304Y-80097380D02*
X70117304Y-80254619D01*
X70214066Y-80169952D01*
X70214066Y-80206238D01*
X70226161Y-80230428D01*
X70238257Y-80242523D01*
X70262447Y-80254619D01*
X70322923Y-80254619D01*
X70347114Y-80242523D01*
X70359209Y-80230428D01*
X70371304Y-80206238D01*
X70371304Y-80133666D01*
X70359209Y-80109476D01*
X70347114Y-80097380D01*
X70117304Y-80472333D02*
X70117304Y-80423952D01*
X70129400Y-80399761D01*
X70141495Y-80387666D01*
X70177780Y-80363476D01*
X70226161Y-80351380D01*
X70322923Y-80351380D01*
X70347114Y-80363476D01*
X70359209Y-80375571D01*
X70371304Y-80399761D01*
X70371304Y-80448142D01*
X70359209Y-80472333D01*
X70347114Y-80484428D01*
X70322923Y-80496523D01*
X70262447Y-80496523D01*
X70238257Y-80484428D01*
X70226161Y-80472333D01*
X70214066Y-80448142D01*
X70214066Y-80399761D01*
X70226161Y-80375571D01*
X70238257Y-80363476D01*
X70262447Y-80351380D01*
X67664685Y-83428114D02*
X67676780Y-83440209D01*
X67713066Y-83452304D01*
X67737257Y-83452304D01*
X67773542Y-83440209D01*
X67797733Y-83416019D01*
X67809828Y-83391828D01*
X67821923Y-83343447D01*
X67821923Y-83307161D01*
X67809828Y-83258780D01*
X67797733Y-83234590D01*
X67773542Y-83210400D01*
X67737257Y-83198304D01*
X67713066Y-83198304D01*
X67676780Y-83210400D01*
X67664685Y-83222495D01*
X67580019Y-83198304D02*
X67422780Y-83198304D01*
X67507447Y-83295066D01*
X67471161Y-83295066D01*
X67446971Y-83307161D01*
X67434876Y-83319257D01*
X67422780Y-83343447D01*
X67422780Y-83403923D01*
X67434876Y-83428114D01*
X67446971Y-83440209D01*
X67471161Y-83452304D01*
X67543733Y-83452304D01*
X67567923Y-83440209D01*
X67580019Y-83428114D01*
X67192971Y-83198304D02*
X67313923Y-83198304D01*
X67326019Y-83319257D01*
X67313923Y-83307161D01*
X67289733Y-83295066D01*
X67229257Y-83295066D01*
X67205066Y-83307161D01*
X67192971Y-83319257D01*
X67180876Y-83343447D01*
X67180876Y-83403923D01*
X67192971Y-83428114D01*
X67205066Y-83440209D01*
X67229257Y-83452304D01*
X67289733Y-83452304D01*
X67313923Y-83440209D01*
X67326019Y-83428114D01*
X72019885Y-92330814D02*
X72031980Y-92342909D01*
X72068266Y-92355004D01*
X72092457Y-92355004D01*
X72128742Y-92342909D01*
X72152933Y-92318719D01*
X72165028Y-92294528D01*
X72177123Y-92246147D01*
X72177123Y-92209861D01*
X72165028Y-92161480D01*
X72152933Y-92137290D01*
X72128742Y-92113100D01*
X72092457Y-92101004D01*
X72068266Y-92101004D01*
X72031980Y-92113100D01*
X72019885Y-92125195D01*
X71935219Y-92101004D02*
X71777980Y-92101004D01*
X71862647Y-92197766D01*
X71826361Y-92197766D01*
X71802171Y-92209861D01*
X71790076Y-92221957D01*
X71777980Y-92246147D01*
X71777980Y-92306623D01*
X71790076Y-92330814D01*
X71802171Y-92342909D01*
X71826361Y-92355004D01*
X71898933Y-92355004D01*
X71923123Y-92342909D01*
X71935219Y-92330814D01*
X71560266Y-92185671D02*
X71560266Y-92355004D01*
X71620742Y-92088909D02*
X71681219Y-92270338D01*
X71523980Y-92270338D01*
X70423314Y-84672714D02*
X70435409Y-84660619D01*
X70447504Y-84624333D01*
X70447504Y-84600142D01*
X70435409Y-84563857D01*
X70411219Y-84539666D01*
X70387028Y-84527571D01*
X70338647Y-84515476D01*
X70302361Y-84515476D01*
X70253980Y-84527571D01*
X70229790Y-84539666D01*
X70205600Y-84563857D01*
X70193504Y-84600142D01*
X70193504Y-84624333D01*
X70205600Y-84660619D01*
X70217695Y-84672714D01*
X70193504Y-84757380D02*
X70193504Y-84914619D01*
X70290266Y-84829952D01*
X70290266Y-84866238D01*
X70302361Y-84890428D01*
X70314457Y-84902523D01*
X70338647Y-84914619D01*
X70399123Y-84914619D01*
X70423314Y-84902523D01*
X70435409Y-84890428D01*
X70447504Y-84866238D01*
X70447504Y-84793666D01*
X70435409Y-84769476D01*
X70423314Y-84757380D01*
X70193504Y-84999285D02*
X70193504Y-85156523D01*
X70290266Y-85071857D01*
X70290266Y-85108142D01*
X70302361Y-85132333D01*
X70314457Y-85144428D01*
X70338647Y-85156523D01*
X70399123Y-85156523D01*
X70423314Y-85144428D01*
X70435409Y-85132333D01*
X70447504Y-85108142D01*
X70447504Y-85035571D01*
X70435409Y-85011380D01*
X70423314Y-84999285D01*
D15*
X69615957Y-85013800D02*
X69706671Y-85013800D01*
X69670385Y-84923085D02*
X69706671Y-85013800D01*
X69670385Y-85104514D01*
X69779242Y-84959371D02*
X69706671Y-85013800D01*
X69779242Y-85068228D01*
D12*
X71765885Y-89663814D02*
X71777980Y-89675909D01*
X71814266Y-89688004D01*
X71838457Y-89688004D01*
X71874742Y-89675909D01*
X71898933Y-89651719D01*
X71911028Y-89627528D01*
X71923123Y-89579147D01*
X71923123Y-89542861D01*
X71911028Y-89494480D01*
X71898933Y-89470290D01*
X71874742Y-89446100D01*
X71838457Y-89434004D01*
X71814266Y-89434004D01*
X71777980Y-89446100D01*
X71765885Y-89458195D01*
X71681219Y-89434004D02*
X71523980Y-89434004D01*
X71608647Y-89530766D01*
X71572361Y-89530766D01*
X71548171Y-89542861D01*
X71536076Y-89554957D01*
X71523980Y-89579147D01*
X71523980Y-89639623D01*
X71536076Y-89663814D01*
X71548171Y-89675909D01*
X71572361Y-89688004D01*
X71644933Y-89688004D01*
X71669123Y-89675909D01*
X71681219Y-89663814D01*
X71427219Y-89458195D02*
X71415123Y-89446100D01*
X71390933Y-89434004D01*
X71330457Y-89434004D01*
X71306266Y-89446100D01*
X71294171Y-89458195D01*
X71282076Y-89482385D01*
X71282076Y-89506576D01*
X71294171Y-89542861D01*
X71439314Y-89688004D01*
X71282076Y-89688004D01*
X48477714Y-131916714D02*
X48489809Y-131904619D01*
X48501904Y-131868333D01*
X48501904Y-131844142D01*
X48489809Y-131807857D01*
X48465619Y-131783666D01*
X48441428Y-131771571D01*
X48393047Y-131759476D01*
X48356761Y-131759476D01*
X48308380Y-131771571D01*
X48284190Y-131783666D01*
X48260000Y-131807857D01*
X48247904Y-131844142D01*
X48247904Y-131868333D01*
X48260000Y-131904619D01*
X48272095Y-131916714D01*
X48272095Y-132013476D02*
X48260000Y-132025571D01*
X48247904Y-132049761D01*
X48247904Y-132110238D01*
X48260000Y-132134428D01*
X48272095Y-132146523D01*
X48296285Y-132158619D01*
X48320476Y-132158619D01*
X48356761Y-132146523D01*
X48501904Y-132001380D01*
X48501904Y-132158619D01*
X48501904Y-132279571D02*
X48501904Y-132327952D01*
X48489809Y-132352142D01*
X48477714Y-132364238D01*
X48441428Y-132388428D01*
X48393047Y-132400523D01*
X48296285Y-132400523D01*
X48272095Y-132388428D01*
X48260000Y-132376333D01*
X48247904Y-132352142D01*
X48247904Y-132303761D01*
X48260000Y-132279571D01*
X48272095Y-132267476D01*
X48296285Y-132255380D01*
X48356761Y-132255380D01*
X48380952Y-132267476D01*
X48393047Y-132279571D01*
X48405142Y-132303761D01*
X48405142Y-132352142D01*
X48393047Y-132376333D01*
X48380952Y-132388428D01*
X48356761Y-132400523D01*
D15*
X47670357Y-132257800D02*
X47761071Y-132257800D01*
X47724785Y-132167085D02*
X47761071Y-132257800D01*
X47724785Y-132348514D01*
X47833642Y-132203371D02*
X47761071Y-132257800D01*
X47833642Y-132312228D01*
D12*
X45988514Y-132551714D02*
X46000609Y-132539619D01*
X46012704Y-132503333D01*
X46012704Y-132479142D01*
X46000609Y-132442857D01*
X45976419Y-132418666D01*
X45952228Y-132406571D01*
X45903847Y-132394476D01*
X45867561Y-132394476D01*
X45819180Y-132406571D01*
X45794990Y-132418666D01*
X45770800Y-132442857D01*
X45758704Y-132479142D01*
X45758704Y-132503333D01*
X45770800Y-132539619D01*
X45782895Y-132551714D01*
X45782895Y-132648476D02*
X45770800Y-132660571D01*
X45758704Y-132684761D01*
X45758704Y-132745238D01*
X45770800Y-132769428D01*
X45782895Y-132781523D01*
X45807085Y-132793619D01*
X45831276Y-132793619D01*
X45867561Y-132781523D01*
X46012704Y-132636380D01*
X46012704Y-132793619D01*
X45867561Y-132938761D02*
X45855466Y-132914571D01*
X45843371Y-132902476D01*
X45819180Y-132890380D01*
X45807085Y-132890380D01*
X45782895Y-132902476D01*
X45770800Y-132914571D01*
X45758704Y-132938761D01*
X45758704Y-132987142D01*
X45770800Y-133011333D01*
X45782895Y-133023428D01*
X45807085Y-133035523D01*
X45819180Y-133035523D01*
X45843371Y-133023428D01*
X45855466Y-133011333D01*
X45867561Y-132987142D01*
X45867561Y-132938761D01*
X45879657Y-132914571D01*
X45891752Y-132902476D01*
X45915942Y-132890380D01*
X45964323Y-132890380D01*
X45988514Y-132902476D01*
X46000609Y-132914571D01*
X46012704Y-132938761D01*
X46012704Y-132987142D01*
X46000609Y-133011333D01*
X45988514Y-133023428D01*
X45964323Y-133035523D01*
X45915942Y-133035523D01*
X45891752Y-133023428D01*
X45879657Y-133011333D01*
X45867561Y-132987142D01*
X43397714Y-132551714D02*
X43409809Y-132539619D01*
X43421904Y-132503333D01*
X43421904Y-132479142D01*
X43409809Y-132442857D01*
X43385619Y-132418666D01*
X43361428Y-132406571D01*
X43313047Y-132394476D01*
X43276761Y-132394476D01*
X43228380Y-132406571D01*
X43204190Y-132418666D01*
X43180000Y-132442857D01*
X43167904Y-132479142D01*
X43167904Y-132503333D01*
X43180000Y-132539619D01*
X43192095Y-132551714D01*
X43192095Y-132648476D02*
X43180000Y-132660571D01*
X43167904Y-132684761D01*
X43167904Y-132745238D01*
X43180000Y-132769428D01*
X43192095Y-132781523D01*
X43216285Y-132793619D01*
X43240476Y-132793619D01*
X43276761Y-132781523D01*
X43421904Y-132636380D01*
X43421904Y-132793619D01*
X43167904Y-133023428D02*
X43167904Y-132902476D01*
X43288857Y-132890380D01*
X43276761Y-132902476D01*
X43264666Y-132926666D01*
X43264666Y-132987142D01*
X43276761Y-133011333D01*
X43288857Y-133023428D01*
X43313047Y-133035523D01*
X43373523Y-133035523D01*
X43397714Y-133023428D01*
X43409809Y-133011333D01*
X43421904Y-132987142D01*
X43421904Y-132926666D01*
X43409809Y-132902476D01*
X43397714Y-132890380D01*
X39346414Y-121477314D02*
X39358509Y-121465219D01*
X39370604Y-121428933D01*
X39370604Y-121404742D01*
X39358509Y-121368457D01*
X39334319Y-121344266D01*
X39310128Y-121332171D01*
X39261747Y-121320076D01*
X39225461Y-121320076D01*
X39177080Y-121332171D01*
X39152890Y-121344266D01*
X39128700Y-121368457D01*
X39116604Y-121404742D01*
X39116604Y-121428933D01*
X39128700Y-121465219D01*
X39140795Y-121477314D01*
X39140795Y-121574076D02*
X39128700Y-121586171D01*
X39116604Y-121610361D01*
X39116604Y-121670838D01*
X39128700Y-121695028D01*
X39140795Y-121707123D01*
X39164985Y-121719219D01*
X39189176Y-121719219D01*
X39225461Y-121707123D01*
X39370604Y-121561980D01*
X39370604Y-121719219D01*
X39201271Y-121936933D02*
X39370604Y-121936933D01*
X39104509Y-121876457D02*
X39285938Y-121815980D01*
X39285938Y-121973219D01*
X41666885Y-132348514D02*
X41678980Y-132360609D01*
X41715266Y-132372704D01*
X41739457Y-132372704D01*
X41775742Y-132360609D01*
X41799933Y-132336419D01*
X41812028Y-132312228D01*
X41824123Y-132263847D01*
X41824123Y-132227561D01*
X41812028Y-132179180D01*
X41799933Y-132154990D01*
X41775742Y-132130800D01*
X41739457Y-132118704D01*
X41715266Y-132118704D01*
X41678980Y-132130800D01*
X41666885Y-132142895D01*
X41570123Y-132142895D02*
X41558028Y-132130800D01*
X41533838Y-132118704D01*
X41473361Y-132118704D01*
X41449171Y-132130800D01*
X41437076Y-132142895D01*
X41424980Y-132167085D01*
X41424980Y-132191276D01*
X41437076Y-132227561D01*
X41582219Y-132372704D01*
X41424980Y-132372704D01*
X41340314Y-132118704D02*
X41183076Y-132118704D01*
X41267742Y-132215466D01*
X41231457Y-132215466D01*
X41207266Y-132227561D01*
X41195171Y-132239657D01*
X41183076Y-132263847D01*
X41183076Y-132324323D01*
X41195171Y-132348514D01*
X41207266Y-132360609D01*
X41231457Y-132372704D01*
X41304028Y-132372704D01*
X41328219Y-132360609D01*
X41340314Y-132348514D01*
D15*
X41325800Y-131541157D02*
X41325800Y-131631871D01*
X41416514Y-131595585D02*
X41325800Y-131631871D01*
X41235085Y-131595585D01*
X41380228Y-131704442D02*
X41325800Y-131631871D01*
X41271371Y-131704442D01*
D12*
X39711085Y-124690414D02*
X39723180Y-124702509D01*
X39759466Y-124714604D01*
X39783657Y-124714604D01*
X39819942Y-124702509D01*
X39844133Y-124678319D01*
X39856228Y-124654128D01*
X39868323Y-124605747D01*
X39868323Y-124569461D01*
X39856228Y-124521080D01*
X39844133Y-124496890D01*
X39819942Y-124472700D01*
X39783657Y-124460604D01*
X39759466Y-124460604D01*
X39723180Y-124472700D01*
X39711085Y-124484795D01*
X39614323Y-124484795D02*
X39602228Y-124472700D01*
X39578038Y-124460604D01*
X39517561Y-124460604D01*
X39493371Y-124472700D01*
X39481276Y-124484795D01*
X39469180Y-124508985D01*
X39469180Y-124533176D01*
X39481276Y-124569461D01*
X39626419Y-124714604D01*
X39469180Y-124714604D01*
X39372419Y-124484795D02*
X39360323Y-124472700D01*
X39336133Y-124460604D01*
X39275657Y-124460604D01*
X39251466Y-124472700D01*
X39239371Y-124484795D01*
X39227276Y-124508985D01*
X39227276Y-124533176D01*
X39239371Y-124569461D01*
X39384514Y-124714604D01*
X39227276Y-124714604D01*
X73569285Y-127217714D02*
X73581380Y-127229809D01*
X73617666Y-127241904D01*
X73641857Y-127241904D01*
X73678142Y-127229809D01*
X73702333Y-127205619D01*
X73714428Y-127181428D01*
X73726523Y-127133047D01*
X73726523Y-127096761D01*
X73714428Y-127048380D01*
X73702333Y-127024190D01*
X73678142Y-127000000D01*
X73641857Y-126987904D01*
X73617666Y-126987904D01*
X73581380Y-127000000D01*
X73569285Y-127012095D01*
X73327380Y-127241904D02*
X73472523Y-127241904D01*
X73399952Y-127241904D02*
X73399952Y-126987904D01*
X73424142Y-127024190D01*
X73448333Y-127048380D01*
X73472523Y-127060476D01*
X73206428Y-127241904D02*
X73158047Y-127241904D01*
X73133857Y-127229809D01*
X73121761Y-127217714D01*
X73097571Y-127181428D01*
X73085476Y-127133047D01*
X73085476Y-127036285D01*
X73097571Y-127012095D01*
X73109666Y-127000000D01*
X73133857Y-126987904D01*
X73182238Y-126987904D01*
X73206428Y-127000000D01*
X73218523Y-127012095D01*
X73230619Y-127036285D01*
X73230619Y-127096761D01*
X73218523Y-127120952D01*
X73206428Y-127133047D01*
X73182238Y-127145142D01*
X73133857Y-127145142D01*
X73109666Y-127133047D01*
X73097571Y-127120952D01*
X73085476Y-127096761D01*
D15*
X73583800Y-127426357D02*
X73583800Y-127517071D01*
X73674514Y-127480785D02*
X73583800Y-127517071D01*
X73493085Y-127480785D01*
X73638228Y-127589642D02*
X73583800Y-127517071D01*
X73529371Y-127589642D01*
D12*
X72709314Y-130658514D02*
X72721409Y-130646419D01*
X72733504Y-130610133D01*
X72733504Y-130585942D01*
X72721409Y-130549657D01*
X72697219Y-130525466D01*
X72673028Y-130513371D01*
X72624647Y-130501276D01*
X72588361Y-130501276D01*
X72539980Y-130513371D01*
X72515790Y-130525466D01*
X72491600Y-130549657D01*
X72479504Y-130585942D01*
X72479504Y-130610133D01*
X72491600Y-130646419D01*
X72503695Y-130658514D01*
X72733504Y-130900419D02*
X72733504Y-130755276D01*
X72733504Y-130827847D02*
X72479504Y-130827847D01*
X72515790Y-130803657D01*
X72539980Y-130779466D01*
X72552076Y-130755276D01*
X72588361Y-131045561D02*
X72576266Y-131021371D01*
X72564171Y-131009276D01*
X72539980Y-130997180D01*
X72527885Y-130997180D01*
X72503695Y-131009276D01*
X72491600Y-131021371D01*
X72479504Y-131045561D01*
X72479504Y-131093942D01*
X72491600Y-131118133D01*
X72503695Y-131130228D01*
X72527885Y-131142323D01*
X72539980Y-131142323D01*
X72564171Y-131130228D01*
X72576266Y-131118133D01*
X72588361Y-131093942D01*
X72588361Y-131045561D01*
X72600457Y-131021371D01*
X72612552Y-131009276D01*
X72636742Y-130997180D01*
X72685123Y-130997180D01*
X72709314Y-131009276D01*
X72721409Y-131021371D01*
X72733504Y-131045561D01*
X72733504Y-131093942D01*
X72721409Y-131118133D01*
X72709314Y-131130228D01*
X72685123Y-131142323D01*
X72636742Y-131142323D01*
X72612552Y-131130228D01*
X72600457Y-131118133D01*
X72588361Y-131093942D01*
X73115714Y-130595914D02*
X73127809Y-130583819D01*
X73139904Y-130547533D01*
X73139904Y-130523342D01*
X73127809Y-130487057D01*
X73103619Y-130462866D01*
X73079428Y-130450771D01*
X73031047Y-130438676D01*
X72994761Y-130438676D01*
X72946380Y-130450771D01*
X72922190Y-130462866D01*
X72898000Y-130487057D01*
X72885904Y-130523342D01*
X72885904Y-130547533D01*
X72898000Y-130583819D01*
X72910095Y-130595914D01*
X73139904Y-130837819D02*
X73139904Y-130692676D01*
X73139904Y-130765247D02*
X72885904Y-130765247D01*
X72922190Y-130741057D01*
X72946380Y-130716866D01*
X72958476Y-130692676D01*
X72885904Y-130922485D02*
X72885904Y-131091819D01*
X73139904Y-130982961D01*
X66127085Y-129706914D02*
X66139180Y-129719009D01*
X66175466Y-129731104D01*
X66199657Y-129731104D01*
X66235942Y-129719009D01*
X66260133Y-129694819D01*
X66272228Y-129670628D01*
X66284323Y-129622247D01*
X66284323Y-129585961D01*
X66272228Y-129537580D01*
X66260133Y-129513390D01*
X66235942Y-129489200D01*
X66199657Y-129477104D01*
X66175466Y-129477104D01*
X66139180Y-129489200D01*
X66127085Y-129501295D01*
X65885180Y-129731104D02*
X66030323Y-129731104D01*
X65957752Y-129731104D02*
X65957752Y-129477104D01*
X65981942Y-129513390D01*
X66006133Y-129537580D01*
X66030323Y-129549676D01*
X65655371Y-129477104D02*
X65776323Y-129477104D01*
X65788419Y-129598057D01*
X65776323Y-129585961D01*
X65752133Y-129573866D01*
X65691657Y-129573866D01*
X65667466Y-129585961D01*
X65655371Y-129598057D01*
X65643276Y-129622247D01*
X65643276Y-129682723D01*
X65655371Y-129706914D01*
X65667466Y-129719009D01*
X65691657Y-129731104D01*
X65752133Y-129731104D01*
X65776323Y-129719009D01*
X65788419Y-129706914D01*
X63612485Y-131383314D02*
X63624580Y-131395409D01*
X63660866Y-131407504D01*
X63685057Y-131407504D01*
X63721342Y-131395409D01*
X63745533Y-131371219D01*
X63757628Y-131347028D01*
X63769723Y-131298647D01*
X63769723Y-131262361D01*
X63757628Y-131213980D01*
X63745533Y-131189790D01*
X63721342Y-131165600D01*
X63685057Y-131153504D01*
X63660866Y-131153504D01*
X63624580Y-131165600D01*
X63612485Y-131177695D01*
X63370580Y-131407504D02*
X63515723Y-131407504D01*
X63443152Y-131407504D02*
X63443152Y-131153504D01*
X63467342Y-131189790D01*
X63491533Y-131213980D01*
X63515723Y-131226076D01*
X63285914Y-131153504D02*
X63128676Y-131153504D01*
X63213342Y-131250266D01*
X63177057Y-131250266D01*
X63152866Y-131262361D01*
X63140771Y-131274457D01*
X63128676Y-131298647D01*
X63128676Y-131359123D01*
X63140771Y-131383314D01*
X63152866Y-131395409D01*
X63177057Y-131407504D01*
X63249628Y-131407504D01*
X63273819Y-131395409D01*
X63285914Y-131383314D01*
D15*
X63627000Y-131591957D02*
X63627000Y-131682671D01*
X63717714Y-131646385D02*
X63627000Y-131682671D01*
X63536285Y-131646385D01*
X63681428Y-131755242D02*
X63627000Y-131682671D01*
X63572571Y-131755242D01*
D12*
X61440785Y-100446114D02*
X61452880Y-100458209D01*
X61489166Y-100470304D01*
X61513357Y-100470304D01*
X61549642Y-100458209D01*
X61573833Y-100434019D01*
X61585928Y-100409828D01*
X61598023Y-100361447D01*
X61598023Y-100325161D01*
X61585928Y-100276780D01*
X61573833Y-100252590D01*
X61549642Y-100228400D01*
X61513357Y-100216304D01*
X61489166Y-100216304D01*
X61452880Y-100228400D01*
X61440785Y-100240495D01*
X61198880Y-100470304D02*
X61344023Y-100470304D01*
X61271452Y-100470304D02*
X61271452Y-100216304D01*
X61295642Y-100252590D01*
X61319833Y-100276780D01*
X61344023Y-100288876D01*
X60956976Y-100470304D02*
X61102119Y-100470304D01*
X61029547Y-100470304D02*
X61029547Y-100216304D01*
X61053738Y-100252590D01*
X61077928Y-100276780D01*
X61102119Y-100288876D01*
D15*
X61137800Y-99638757D02*
X61137800Y-99729471D01*
X61228514Y-99693185D02*
X61137800Y-99729471D01*
X61047085Y-99693185D01*
X61192228Y-99802042D02*
X61137800Y-99729471D01*
X61083371Y-99802042D01*
D12*
X64056985Y-99734914D02*
X64069080Y-99747009D01*
X64105366Y-99759104D01*
X64129557Y-99759104D01*
X64165842Y-99747009D01*
X64190033Y-99722819D01*
X64202128Y-99698628D01*
X64214223Y-99650247D01*
X64214223Y-99613961D01*
X64202128Y-99565580D01*
X64190033Y-99541390D01*
X64165842Y-99517200D01*
X64129557Y-99505104D01*
X64105366Y-99505104D01*
X64069080Y-99517200D01*
X64056985Y-99529295D01*
X63815080Y-99759104D02*
X63960223Y-99759104D01*
X63887652Y-99759104D02*
X63887652Y-99505104D01*
X63911842Y-99541390D01*
X63936033Y-99565580D01*
X63960223Y-99577676D01*
X63657842Y-99505104D02*
X63633652Y-99505104D01*
X63609461Y-99517200D01*
X63597366Y-99529295D01*
X63585271Y-99553485D01*
X63573176Y-99601866D01*
X63573176Y-99662342D01*
X63585271Y-99710723D01*
X63597366Y-99734914D01*
X63609461Y-99747009D01*
X63633652Y-99759104D01*
X63657842Y-99759104D01*
X63682033Y-99747009D01*
X63694128Y-99734914D01*
X63706223Y-99710723D01*
X63718319Y-99662342D01*
X63718319Y-99601866D01*
X63706223Y-99553485D01*
X63694128Y-99529295D01*
X63682033Y-99517200D01*
X63657842Y-99505104D01*
D15*
X64033400Y-99943557D02*
X64033400Y-100034271D01*
X64124114Y-99997985D02*
X64033400Y-100034271D01*
X63942685Y-99997985D01*
X64087828Y-100106842D02*
X64033400Y-100034271D01*
X63978971Y-100106842D01*
D12*
X67324514Y-68994866D02*
X67336609Y-68982771D01*
X67348704Y-68946485D01*
X67348704Y-68922295D01*
X67336609Y-68886009D01*
X67312419Y-68861819D01*
X67288228Y-68849723D01*
X67239847Y-68837628D01*
X67203561Y-68837628D01*
X67155180Y-68849723D01*
X67130990Y-68861819D01*
X67106800Y-68886009D01*
X67094704Y-68922295D01*
X67094704Y-68946485D01*
X67106800Y-68982771D01*
X67118895Y-68994866D01*
X67179371Y-69212580D02*
X67348704Y-69212580D01*
X67082609Y-69152104D02*
X67264038Y-69091628D01*
X67264038Y-69248866D01*
D15*
X66517157Y-69164200D02*
X66607871Y-69164200D01*
X66571585Y-69073485D02*
X66607871Y-69164200D01*
X66571585Y-69254914D01*
X66680442Y-69109771D02*
X66607871Y-69164200D01*
X66680442Y-69218628D01*
D12*
X42431304Y-76380823D02*
X42177304Y-76380823D01*
X42177304Y-76441300D01*
X42189400Y-76477585D01*
X42213590Y-76501776D01*
X42237780Y-76513871D01*
X42286161Y-76525966D01*
X42322447Y-76525966D01*
X42370828Y-76513871D01*
X42395019Y-76501776D01*
X42419209Y-76477585D01*
X42431304Y-76441300D01*
X42431304Y-76380823D01*
X42431304Y-76767871D02*
X42431304Y-76622728D01*
X42431304Y-76695300D02*
X42177304Y-76695300D01*
X42213590Y-76671109D01*
X42237780Y-76646919D01*
X42249876Y-76622728D01*
D13*
X44704000Y-75906380D02*
X44704000Y-76144476D01*
X44942095Y-76049238D02*
X44704000Y-76144476D01*
X44465904Y-76049238D01*
X44846857Y-76334952D02*
X44704000Y-76144476D01*
X44561142Y-76334952D01*
D14*
X78464833Y-133579809D02*
X78464833Y-133942666D01*
X78489023Y-134015238D01*
X78537404Y-134063619D01*
X78609976Y-134087809D01*
X78658357Y-134087809D01*
X78247119Y-133628190D02*
X78222928Y-133604000D01*
X78174547Y-133579809D01*
X78053595Y-133579809D01*
X78005214Y-133604000D01*
X77981023Y-133628190D01*
X77956833Y-133676571D01*
X77956833Y-133724952D01*
X77981023Y-133797523D01*
X78271309Y-134087809D01*
X77956833Y-134087809D01*
D12*
X72572033Y-112916304D02*
X72426890Y-112916304D01*
X72499461Y-113170304D02*
X72499461Y-112916304D01*
X72378509Y-112916304D02*
X72293842Y-113170304D01*
X72209176Y-112916304D01*
X72136604Y-113158209D02*
X72100319Y-113170304D01*
X72039842Y-113170304D01*
X72015652Y-113158209D01*
X72003557Y-113146114D01*
X71991461Y-113121923D01*
X71991461Y-113097733D01*
X72003557Y-113073542D01*
X72015652Y-113061447D01*
X72039842Y-113049352D01*
X72088223Y-113037257D01*
X72112414Y-113025161D01*
X72124509Y-113013066D01*
X72136604Y-112988876D01*
X72136604Y-112964685D01*
X72124509Y-112940495D01*
X72112414Y-112928400D01*
X72088223Y-112916304D01*
X72027747Y-112916304D01*
X71991461Y-112928400D01*
X71761652Y-112916304D02*
X71882604Y-112916304D01*
X71894700Y-113037257D01*
X71882604Y-113025161D01*
X71858414Y-113013066D01*
X71797938Y-113013066D01*
X71773747Y-113025161D01*
X71761652Y-113037257D01*
X71749557Y-113061447D01*
X71749557Y-113121923D01*
X71761652Y-113146114D01*
X71773747Y-113158209D01*
X71797938Y-113170304D01*
X71858414Y-113170304D01*
X71882604Y-113158209D01*
X71894700Y-113146114D01*
D13*
X71374000Y-111593380D02*
X71374000Y-111831476D01*
X71612095Y-111736238D02*
X71374000Y-111831476D01*
X71135904Y-111736238D01*
X71516857Y-112021952D02*
X71374000Y-111831476D01*
X71231142Y-112021952D01*
D12*
X61556295Y-121567423D02*
X61350676Y-121567423D01*
X61326485Y-121555328D01*
X61314390Y-121543233D01*
X61302295Y-121519042D01*
X61302295Y-121470661D01*
X61314390Y-121446471D01*
X61326485Y-121434376D01*
X61350676Y-121422280D01*
X61556295Y-121422280D01*
X61556295Y-121325519D02*
X61556295Y-121168280D01*
X61459533Y-121252947D01*
X61459533Y-121216661D01*
X61447438Y-121192471D01*
X61435342Y-121180376D01*
X61411152Y-121168280D01*
X61350676Y-121168280D01*
X61326485Y-121180376D01*
X61314390Y-121192471D01*
X61302295Y-121216661D01*
X61302295Y-121289233D01*
X61314390Y-121313423D01*
X61326485Y-121325519D01*
D14*
X61264800Y-121997409D02*
X61264800Y-122118361D01*
X61385752Y-122069980D02*
X61264800Y-122118361D01*
X61143847Y-122069980D01*
X61337371Y-122215123D02*
X61264800Y-122118361D01*
X61192228Y-122215123D01*
D12*
X61556295Y-125428223D02*
X61350676Y-125428223D01*
X61326485Y-125416128D01*
X61314390Y-125404033D01*
X61302295Y-125379842D01*
X61302295Y-125331461D01*
X61314390Y-125307271D01*
X61326485Y-125295176D01*
X61350676Y-125283080D01*
X61556295Y-125283080D01*
X61471628Y-125053271D02*
X61302295Y-125053271D01*
X61568390Y-125113747D02*
X61386961Y-125174223D01*
X61386961Y-125016985D01*
D14*
X61264800Y-125858209D02*
X61264800Y-125979161D01*
X61385752Y-125930780D02*
X61264800Y-125979161D01*
X61143847Y-125930780D01*
X61337371Y-126075923D02*
X61264800Y-125979161D01*
X61192228Y-126075923D01*
D12*
X67526504Y-124787176D02*
X67732123Y-124787176D01*
X67756314Y-124799271D01*
X67768409Y-124811366D01*
X67780504Y-124835557D01*
X67780504Y-124883938D01*
X67768409Y-124908128D01*
X67756314Y-124920223D01*
X67732123Y-124932319D01*
X67526504Y-124932319D01*
X67526504Y-125029080D02*
X67526504Y-125198414D01*
X67780504Y-125089557D01*
D14*
X67818000Y-123800809D02*
X67818000Y-123921761D01*
X67938952Y-123873380D02*
X67818000Y-123921761D01*
X67697047Y-123873380D01*
X67890571Y-124018523D02*
X67818000Y-123921761D01*
X67745428Y-124018523D01*
D12*
X67526504Y-120951776D02*
X67732123Y-120951776D01*
X67756314Y-120963871D01*
X67768409Y-120975966D01*
X67780504Y-121000157D01*
X67780504Y-121048538D01*
X67768409Y-121072728D01*
X67756314Y-121084823D01*
X67732123Y-121096919D01*
X67526504Y-121096919D01*
X67526504Y-121326728D02*
X67526504Y-121278347D01*
X67538600Y-121254157D01*
X67550695Y-121242061D01*
X67586980Y-121217871D01*
X67635361Y-121205776D01*
X67732123Y-121205776D01*
X67756314Y-121217871D01*
X67768409Y-121229966D01*
X67780504Y-121254157D01*
X67780504Y-121302538D01*
X67768409Y-121326728D01*
X67756314Y-121338823D01*
X67732123Y-121350919D01*
X67671647Y-121350919D01*
X67647457Y-121338823D01*
X67635361Y-121326728D01*
X67623266Y-121302538D01*
X67623266Y-121254157D01*
X67635361Y-121229966D01*
X67647457Y-121217871D01*
X67671647Y-121205776D01*
D14*
X67818000Y-119965409D02*
X67818000Y-120086361D01*
X67938952Y-120037980D02*
X67818000Y-120086361D01*
X67697047Y-120037980D01*
X67890571Y-120183123D02*
X67818000Y-120086361D01*
X67745428Y-120183123D01*
D12*
X68745704Y-91874823D02*
X68951323Y-91874823D01*
X68975514Y-91886919D01*
X68987609Y-91899014D01*
X68999704Y-91923204D01*
X68999704Y-91971585D01*
X68987609Y-91995776D01*
X68975514Y-92007871D01*
X68951323Y-92019966D01*
X68745704Y-92019966D01*
X68999704Y-92273966D02*
X68999704Y-92128823D01*
X68999704Y-92201395D02*
X68745704Y-92201395D01*
X68781990Y-92177204D01*
X68806180Y-92153014D01*
X68818276Y-92128823D01*
X68745704Y-92358633D02*
X68745704Y-92515871D01*
X68842466Y-92431204D01*
X68842466Y-92467490D01*
X68854561Y-92491680D01*
X68866657Y-92503776D01*
X68890847Y-92515871D01*
X68951323Y-92515871D01*
X68975514Y-92503776D01*
X68987609Y-92491680D01*
X68999704Y-92467490D01*
X68999704Y-92394919D01*
X68987609Y-92370728D01*
X68975514Y-92358633D01*
D14*
X69037200Y-91009409D02*
X69037200Y-91130361D01*
X69158152Y-91081980D02*
X69037200Y-91130361D01*
X68916247Y-91081980D01*
X69109771Y-91227123D02*
X69037200Y-91130361D01*
X68964628Y-91227123D01*
D12*
X63080295Y-92732376D02*
X62874676Y-92732376D01*
X62850485Y-92720280D01*
X62838390Y-92708185D01*
X62826295Y-92683995D01*
X62826295Y-92635614D01*
X62838390Y-92611423D01*
X62850485Y-92599328D01*
X62874676Y-92587233D01*
X63080295Y-92587233D01*
X62826295Y-92333233D02*
X62826295Y-92478376D01*
X62826295Y-92405804D02*
X63080295Y-92405804D01*
X63044009Y-92429995D01*
X63019819Y-92454185D01*
X63007723Y-92478376D01*
X63080295Y-92115519D02*
X63080295Y-92163900D01*
X63068200Y-92188090D01*
X63056104Y-92200185D01*
X63019819Y-92224376D01*
X62971438Y-92236471D01*
X62874676Y-92236471D01*
X62850485Y-92224376D01*
X62838390Y-92212280D01*
X62826295Y-92188090D01*
X62826295Y-92139709D01*
X62838390Y-92115519D01*
X62850485Y-92103423D01*
X62874676Y-92091328D01*
X62935152Y-92091328D01*
X62959342Y-92103423D01*
X62971438Y-92115519D01*
X62983533Y-92139709D01*
X62983533Y-92188090D01*
X62971438Y-92212280D01*
X62959342Y-92224376D01*
X62935152Y-92236471D01*
D14*
X62788800Y-93041409D02*
X62788800Y-93162361D01*
X62909752Y-93113980D02*
X62788800Y-93162361D01*
X62667847Y-93113980D01*
X62861371Y-93259123D02*
X62788800Y-93162361D01*
X62716228Y-93259123D01*
D12*
X63080295Y-88922376D02*
X62874676Y-88922376D01*
X62850485Y-88910280D01*
X62838390Y-88898185D01*
X62826295Y-88873995D01*
X62826295Y-88825614D01*
X62838390Y-88801423D01*
X62850485Y-88789328D01*
X62874676Y-88777233D01*
X63080295Y-88777233D01*
X62826295Y-88523233D02*
X62826295Y-88668376D01*
X62826295Y-88595804D02*
X63080295Y-88595804D01*
X63044009Y-88619995D01*
X63019819Y-88644185D01*
X63007723Y-88668376D01*
X63080295Y-88438566D02*
X63080295Y-88269233D01*
X62826295Y-88378090D01*
D14*
X62788800Y-89231409D02*
X62788800Y-89352361D01*
X62909752Y-89303980D02*
X62788800Y-89352361D01*
X62667847Y-89303980D01*
X62861371Y-89449123D02*
X62788800Y-89352361D01*
X62716228Y-89449123D01*
D12*
X68745704Y-88064823D02*
X68951323Y-88064823D01*
X68975514Y-88076919D01*
X68987609Y-88089014D01*
X68999704Y-88113204D01*
X68999704Y-88161585D01*
X68987609Y-88185776D01*
X68975514Y-88197871D01*
X68951323Y-88209966D01*
X68745704Y-88209966D01*
X68999704Y-88463966D02*
X68999704Y-88318823D01*
X68999704Y-88391395D02*
X68745704Y-88391395D01*
X68781990Y-88367204D01*
X68806180Y-88343014D01*
X68818276Y-88318823D01*
X68830371Y-88681680D02*
X68999704Y-88681680D01*
X68733609Y-88621204D02*
X68915038Y-88560728D01*
X68915038Y-88717966D01*
D14*
X69037200Y-87199409D02*
X69037200Y-87320361D01*
X69158152Y-87271980D02*
X69037200Y-87320361D01*
X68916247Y-87271980D01*
X69109771Y-87417123D02*
X69037200Y-87320361D01*
X68964628Y-87417123D01*
D12*
X42760295Y-92833976D02*
X42554676Y-92833976D01*
X42530485Y-92821880D01*
X42518390Y-92809785D01*
X42506295Y-92785595D01*
X42506295Y-92737214D01*
X42518390Y-92713023D01*
X42530485Y-92700928D01*
X42554676Y-92688833D01*
X42760295Y-92688833D01*
X42736104Y-92579976D02*
X42748200Y-92567880D01*
X42760295Y-92543690D01*
X42760295Y-92483214D01*
X42748200Y-92459023D01*
X42736104Y-92446928D01*
X42711914Y-92434833D01*
X42687723Y-92434833D01*
X42651438Y-92446928D01*
X42506295Y-92592071D01*
X42506295Y-92434833D01*
X42506295Y-92192928D02*
X42506295Y-92338071D01*
X42506295Y-92265500D02*
X42760295Y-92265500D01*
X42724009Y-92289690D01*
X42699819Y-92313880D01*
X42687723Y-92338071D01*
D14*
X42468800Y-93143009D02*
X42468800Y-93263961D01*
X42589752Y-93215580D02*
X42468800Y-93263961D01*
X42347847Y-93215580D01*
X42541371Y-93360723D02*
X42468800Y-93263961D01*
X42396228Y-93360723D01*
D12*
X48425704Y-91976423D02*
X48631323Y-91976423D01*
X48655514Y-91988519D01*
X48667609Y-92000614D01*
X48679704Y-92024804D01*
X48679704Y-92073185D01*
X48667609Y-92097376D01*
X48655514Y-92109471D01*
X48631323Y-92121566D01*
X48425704Y-92121566D01*
X48679704Y-92375566D02*
X48679704Y-92230423D01*
X48679704Y-92302995D02*
X48425704Y-92302995D01*
X48461990Y-92278804D01*
X48486180Y-92254614D01*
X48498276Y-92230423D01*
X48534561Y-92520709D02*
X48522466Y-92496519D01*
X48510371Y-92484423D01*
X48486180Y-92472328D01*
X48474085Y-92472328D01*
X48449895Y-92484423D01*
X48437800Y-92496519D01*
X48425704Y-92520709D01*
X48425704Y-92569090D01*
X48437800Y-92593280D01*
X48449895Y-92605376D01*
X48474085Y-92617471D01*
X48486180Y-92617471D01*
X48510371Y-92605376D01*
X48522466Y-92593280D01*
X48534561Y-92569090D01*
X48534561Y-92520709D01*
X48546657Y-92496519D01*
X48558752Y-92484423D01*
X48582942Y-92472328D01*
X48631323Y-92472328D01*
X48655514Y-92484423D01*
X48667609Y-92496519D01*
X48679704Y-92520709D01*
X48679704Y-92569090D01*
X48667609Y-92593280D01*
X48655514Y-92605376D01*
X48631323Y-92617471D01*
X48582942Y-92617471D01*
X48558752Y-92605376D01*
X48546657Y-92593280D01*
X48534561Y-92569090D01*
D14*
X48717200Y-91111009D02*
X48717200Y-91231961D01*
X48838152Y-91183580D02*
X48717200Y-91231961D01*
X48596247Y-91183580D01*
X48789771Y-91328723D02*
X48717200Y-91231961D01*
X48644628Y-91328723D01*
D12*
X48425704Y-88166423D02*
X48631323Y-88166423D01*
X48655514Y-88178519D01*
X48667609Y-88190614D01*
X48679704Y-88214804D01*
X48679704Y-88263185D01*
X48667609Y-88287376D01*
X48655514Y-88299471D01*
X48631323Y-88311566D01*
X48425704Y-88311566D01*
X48679704Y-88565566D02*
X48679704Y-88420423D01*
X48679704Y-88492995D02*
X48425704Y-88492995D01*
X48461990Y-88468804D01*
X48486180Y-88444614D01*
X48498276Y-88420423D01*
X48679704Y-88686519D02*
X48679704Y-88734900D01*
X48667609Y-88759090D01*
X48655514Y-88771185D01*
X48619228Y-88795376D01*
X48570847Y-88807471D01*
X48474085Y-88807471D01*
X48449895Y-88795376D01*
X48437800Y-88783280D01*
X48425704Y-88759090D01*
X48425704Y-88710709D01*
X48437800Y-88686519D01*
X48449895Y-88674423D01*
X48474085Y-88662328D01*
X48534561Y-88662328D01*
X48558752Y-88674423D01*
X48570847Y-88686519D01*
X48582942Y-88710709D01*
X48582942Y-88759090D01*
X48570847Y-88783280D01*
X48558752Y-88795376D01*
X48534561Y-88807471D01*
D14*
X48717200Y-87301009D02*
X48717200Y-87421961D01*
X48838152Y-87373580D02*
X48717200Y-87421961D01*
X48596247Y-87373580D01*
X48789771Y-87518723D02*
X48717200Y-87421961D01*
X48644628Y-87518723D01*
D12*
X42760295Y-89023976D02*
X42554676Y-89023976D01*
X42530485Y-89011880D01*
X42518390Y-88999785D01*
X42506295Y-88975595D01*
X42506295Y-88927214D01*
X42518390Y-88903023D01*
X42530485Y-88890928D01*
X42554676Y-88878833D01*
X42760295Y-88878833D01*
X42736104Y-88769976D02*
X42748200Y-88757880D01*
X42760295Y-88733690D01*
X42760295Y-88673214D01*
X42748200Y-88649023D01*
X42736104Y-88636928D01*
X42711914Y-88624833D01*
X42687723Y-88624833D01*
X42651438Y-88636928D01*
X42506295Y-88782071D01*
X42506295Y-88624833D01*
X42736104Y-88528071D02*
X42748200Y-88515976D01*
X42760295Y-88491785D01*
X42760295Y-88431309D01*
X42748200Y-88407119D01*
X42736104Y-88395023D01*
X42711914Y-88382928D01*
X42687723Y-88382928D01*
X42651438Y-88395023D01*
X42506295Y-88540166D01*
X42506295Y-88382928D01*
D14*
X42468800Y-89333009D02*
X42468800Y-89453961D01*
X42589752Y-89405580D02*
X42468800Y-89453961D01*
X42347847Y-89405580D01*
X42541371Y-89550723D02*
X42468800Y-89453961D01*
X42396228Y-89550723D01*
M02*
