M48
; DRILL file {KiCad (5.1.9)-1} date 04/21/21 23:02:35
; FORMAT={-:-/ absolute / inch / decimal}
; #@! TF.CreationDate,2021-04-21T23:02:35-04:00
; #@! TF.GenerationSoftware,Kicad,Pcbnew,(5.1.9)-1
; #@! TF.FileFunction,Plated,1,2,PTH
FMAT,2
INCH
T1C0.0120
T2C0.0197
T3C0.0400
T4C0.0433
%
G90
G05
T1
X1.1Y-4.953
X1.101Y-4.997
X1.11Y-4.913
X1.11Y-5.05
X1.11Y-5.106
X1.111Y-5.256
X1.112Y-2.946
X1.116Y-5.162
X1.118Y-3.106
X1.12Y-3.038
X1.131Y-5.215
X1.138Y-3.937
X1.138Y-3.97
X1.138Y-5.075
X1.146Y-2.908
X1.146Y-2.986
X1.16Y-5.258
X1.165Y-4.773
X1.18Y-4.645
X1.182Y-2.872
X1.182Y-5.214
X1.183Y-4.227
X1.184Y-2.944
X1.185Y-4.496
X1.186Y-4.364
X1.19Y-3.81
X1.191Y-5.305
X1.192Y-3.54
X1.192Y-3.671
X1.193Y-3.393
X1.202Y-4.776
X1.209Y-4.646
X1.214Y-5.258
X1.215Y-4.227
X1.221Y-4.496
X1.221Y-5.496
X1.222Y-2.908
X1.222Y-2.986
X1.222Y-4.364
X1.222Y-5.347
X1.227Y-3.809
X1.231Y-4.755
X1.231Y-4.796
X1.235Y-3.672
X1.237Y-5.214
X1.238Y-3.419
X1.241Y-4.63
X1.241Y-5.447
X1.242Y-4.667
X1.243Y-3.516
X1.243Y-4.469
X1.244Y-4.334
X1.245Y-5.302
X1.247Y-4.197
X1.247Y-4.402
X1.248Y-3.938
X1.25Y-4.247
X1.25Y-4.522
X1.252Y-3.769
X1.252Y-5.39
X1.253Y-3.567
X1.253Y-3.638
X1.253Y-4.369
X1.254Y-3.849
X1.256Y-3.092
X1.256Y-5.015
X1.257Y-3.71
X1.257Y-4.775
X1.257Y-4.877
X1.257Y-4.953
X1.26Y-4.815
X1.261Y-4.592
X1.262Y-5.162
X1.263Y-5.091
X1.264Y-4.556
X1.268Y-4.743
X1.269Y-3.455
X1.269Y-5.517
X1.27Y-3.808
X1.27Y-5.259
X1.271Y-4.032
X1.274Y-2.946
X1.276Y-4.66
X1.277Y-4.625
X1.278Y-3.002
X1.278Y-3.672
X1.279Y-3.534
X1.279Y-4.475
X1.28Y-4.507
X1.281Y-5.347
X1.282Y-2.872
X1.282Y-4.35
X1.282Y-4.382
X1.288Y-3.262
X1.289Y-4.007
X1.289Y-4.252
X1.29Y-3.906
X1.29Y-4.223
X1.29Y-5.421
X1.293Y-3.492
X1.294Y-3.849
X1.295Y-4.575
X1.296Y-3.638
X1.296Y-4.54
X1.296Y-5.215
X1.298Y-3.709
X1.298Y-3.771
X1.307Y-4.191
X1.31Y-5.303
X1.31Y-5.488
X1.311Y-4.328
X1.312Y-4.404
X1.313Y-3.449
X1.313Y-4.366
X1.316Y-3.092
X1.316Y-3.809
X1.317Y-3.567
X1.317Y-3.673
X1.322Y-3.523
X1.322Y-4.04
X1.33Y-3.355
X1.332Y-2.908
X1.332Y-2.982
X1.332Y-3.85
X1.335Y-3.773
X1.335Y-5.258
X1.336Y-3.636
X1.341Y-3.708
X1.351Y-3.927
X1.354Y-5.51
X1.355Y-3.807
X1.358Y-3.548
X1.362Y-3.67
X1.366Y-2.872
X1.367Y-4.786
X1.37Y-5.052
X1.376Y-4.365
X1.378Y-4.232
X1.388Y-2.932
X1.388Y-4.642
X1.391Y-4.495
X1.398Y-5.052
X1.4Y-2.988
X1.4Y-3.671
X1.4Y-4.213
X1.401Y-4.771
X1.401Y-4.933
X1.406Y-4.367
X1.41Y-2.862
X1.422Y-5.052
X1.434Y-4.237
X1.434Y-5.276
X1.436Y-5.461
X1.442Y-4.48
X1.446Y-2.946
X1.45Y-5.152
X1.454Y-3.281
X1.456Y-2.79
X1.462Y-4.605
X1.463Y-4.548
X1.466Y-2.862
X1.466Y-3.062
X1.466Y-4.66
X1.466Y-5.119
X1.468Y-4.511
X1.468Y-4.692
X1.469Y-4.833
X1.469Y-5.178
X1.47Y-2.574
X1.472Y-4.455
X1.474Y-2.682
X1.475Y-4.238
X1.478Y-2.628
X1.478Y-4.35
X1.479Y-4.572
X1.479Y-4.632
X1.488Y-3.126
X1.49Y-3.0
X1.491Y-4.535
X1.492Y-2.734
X1.492Y-3.471
X1.492Y-4.485
X1.496Y-5.151
X1.499Y-4.606
X1.501Y-3.379
X1.501Y-4.656
X1.506Y-2.536
X1.507Y-4.457
X1.51Y-4.51
X1.512Y-4.571
X1.514Y-3.712
X1.514Y-3.77
X1.514Y-3.828
X1.515Y-4.251
X1.516Y-3.654
X1.517Y-4.362
X1.518Y-2.846
X1.518Y-2.916
X1.519Y-3.917
X1.52Y-2.786
X1.52Y-3.958
X1.52Y-4.766
X1.524Y-3.446
X1.525Y-4.637
X1.527Y-4.538
X1.527Y-5.178
X1.528Y-4.726
X1.53Y-3.07
X1.53Y-4.485
X1.53Y-4.919
X1.531Y-4.979
X1.532Y-5.467
X1.534Y-4.605
X1.534Y-5.277
X1.536Y-4.145
X1.537Y-4.182
X1.537Y-4.22
X1.538Y-4.289
X1.538Y-4.396
X1.538Y-4.435
X1.539Y-4.329
X1.544Y-4.513
X1.546Y-2.674
X1.55Y-3.654
X1.55Y-3.712
X1.55Y-3.77
X1.55Y-3.828
X1.55Y-4.702
X1.551Y-4.571
X1.554Y-3.516
X1.556Y-4.254
X1.556Y-4.937
X1.558Y-3.126
X1.56Y-2.976
X1.56Y-4.362
X1.562Y-3.964
X1.562Y-4.486
X1.562Y-4.828
X1.563Y-4.54
X1.564Y-3.918
X1.565Y-4.598
X1.566Y-5.088
X1.568Y-3.484
X1.571Y-4.982
X1.574Y-4.456
X1.574Y-4.68
X1.578Y-4.515
X1.584Y-2.81
X1.584Y-2.892
X1.584Y-3.036
X1.587Y-4.571
X1.592Y-3.462
X1.596Y-3.213
X1.597Y-4.486
X1.597Y-4.541
X1.598Y-4.658
X1.6Y-4.967
X1.606Y-3.882
X1.6065Y-4.8995
X1.608Y-3.92
X1.61Y-4.516
X1.6109Y-3.8129
X1.611Y-5.045
X1.618Y-3.444
X1.622Y-3.96
X1.622Y-4.636
X1.622Y-5.26
X1.629Y-4.487
X1.6319Y-3.7919
X1.634Y-3.212
X1.636Y-3.128
X1.636Y-3.41
X1.636Y-5.47
X1.64Y-3.062
X1.642Y-2.934
X1.642Y-3.004
X1.644Y-2.84
X1.645Y-4.517
X1.646Y-3.864
X1.648Y-4.386
X1.65Y-3.902
X1.65Y-4.603
X1.6519Y-3.772
X1.652Y-5.044
X1.656Y-3.264
X1.658Y-4.09
X1.659Y-4.289
X1.659Y-4.415
X1.66Y-3.231
X1.661Y-4.327
X1.662Y-4.487
X1.662Y-5.244
X1.668Y-2.662
X1.672Y-2.55
X1.672Y-2.602
X1.678Y-4.232
X1.682Y-3.754
X1.686Y-2.8
X1.686Y-4.35
X1.69Y-3.249
X1.69Y-3.398
X1.69Y-5.186
X1.693Y-4.125
X1.696Y-5.044
X1.697Y-4.253
X1.705Y-3.215
X1.706Y-3.754
X1.715Y-4.233
X1.716Y-4.836
X1.718Y-4.343
X1.723Y-4.782
X1.728Y-3.909
X1.73Y-3.754
X1.738Y-5.467
X1.739Y-4.255
X1.74Y-4.126
X1.744Y-4.303
X1.744Y-4.936
X1.745Y-4.159
X1.745Y-4.364
X1.746Y-3.946
X1.747Y-3.979
X1.747Y-4.208
X1.748Y-4.408
X1.75Y-3.866
X1.753Y-4.334
X1.756Y-4.827
X1.76Y-4.97
X1.762Y-4.788
X1.763Y-3.909
X1.764Y-4.234
X1.766Y-4.008
X1.767Y-4.263
X1.768Y-4.184
X1.775Y-4.903
X1.776Y-4.939
X1.781Y-4.04
X1.781Y-4.398
X1.782Y-3.867
X1.782Y-5.238
X1.783Y-4.32
X1.786Y-3.946
X1.788Y-3.979
X1.788Y-4.072
X1.788Y-4.286
X1.788Y-4.356
X1.789Y-4.16
X1.789Y-4.211
X1.794Y-3.352
X1.795Y-4.639
X1.797Y-3.298
X1.798Y-3.909
X1.798Y-4.012
X1.798Y-4.251
X1.806Y-3.398
X1.812Y-2.674
X1.815Y-4.867
X1.828Y-2.8
X1.828Y-4.6134
X1.828Y-4.64
X1.833Y-5.468
X1.844Y-3.272
X1.844Y-4.864
X1.85Y-3.608
X1.852Y-3.642
X1.856Y-5.056
X1.862Y-4.019
X1.862Y-4.354
X1.872Y-3.59
X1.872Y-3.843
X1.872Y-3.876
X1.874Y-3.977
X1.874Y-4.051
X1.875Y-3.945
X1.876Y-2.662
X1.876Y-3.532
X1.877Y-3.5
X1.877Y-3.622
X1.877Y-3.659
X1.878Y-2.616
X1.879Y-2.555
X1.88Y-4.608
X1.88Y-4.636
X1.892Y-5.04
X1.892Y-4.336
X1.895Y-2.9625
X1.895Y-3.0
X1.895Y-3.0375
X1.895Y-3.075
X1.895Y-3.11
X1.895Y-3.145
X1.904Y-3.278
X1.92Y-2.896
X1.922Y-4.322
X1.922Y-4.562
X1.9318Y-5.1802
X1.934Y-2.555
X1.934Y-2.654
X1.936Y-5.223
X1.938Y-2.602
X1.94Y-4.232
X1.941Y-5.468
X1.942Y-3.572
X1.948Y-4.2
X1.952Y-4.348
X1.956Y-3.722
X1.957Y-4.582
X1.959Y-4.539
X1.964Y-3.38
X1.97Y-3.458
X1.974Y-4.182
X1.974Y-4.952
X1.974Y-4.984
X1.98Y-3.124
X1.98Y-4.15
X1.981Y-4.444
X1.983Y-4.563
X1.986Y-3.696
X1.987Y-4.617
X1.99Y-2.556
X1.991Y-3.736
X1.992Y-3.432
X1.992Y-3.48
X1.992Y-3.768
X1.995Y-3.846
X1.996Y-2.736
X1.997Y-5.061
X2.0Y-3.945
X2.004Y-4.014
X2.004Y-4.042
X2.004Y-4.074
X2.004Y-4.912
X2.008Y-3.67
X2.009Y-4.59
X2.009Y-4.644
X2.012Y-4.539
X2.013Y-3.39
X2.02Y-2.596
X2.02Y-3.87
X2.022Y-3.973
X2.024Y-3.496
X2.024Y-3.784
X2.025Y-4.335
X2.026Y-3.741
X2.026Y-4.302
X2.026Y-4.368
X2.028Y-4.934
X2.03Y-3.282
X2.03Y-5.467
X2.032Y-3.34
X2.039Y-4.617
X2.042Y-4.567
X2.048Y-5.136
X2.049Y-2.557
X2.05Y-5.194
X2.051Y-3.534
X2.051Y-3.766
X2.056Y-3.608
X2.058Y-3.07
X2.06Y-3.67
X2.06Y-4.242
X2.064Y-3.24
X2.064Y-3.638
X2.068Y-4.538
X2.068Y-4.59
X2.07Y-3.31
X2.072Y-3.275
X2.072Y-3.347
X2.072Y-4.647
X2.073Y-5.049
X2.073Y-5.093
X2.082Y-2.594
X2.083Y-4.224
X2.085Y-4.256
X2.088Y-4.289
X2.094Y-4.324
X2.098Y-5.141
X2.101Y-5.075
X2.102Y-5.184
X2.117Y-2.556
X2.12Y-3.016
X2.12Y-4.257
X2.12Y-4.425
X2.121Y-4.299
X2.128Y-2.608
X2.128Y-2.674
X2.137Y-4.117
X2.138Y-5.14
X2.139Y-5.466
X2.143Y-4.278
X2.143Y-5.183
X2.146Y-4.502
X2.146Y-4.546
X2.146Y-4.606
X2.146Y-4.666
X2.146Y-4.726
X2.146Y-4.786
X2.146Y-4.846
X2.146Y-4.906
X2.146Y-4.966
X2.146Y-5.026
X2.146Y-5.086
X2.147Y-3.247
X2.147Y-3.363
X2.147Y-3.421
X2.147Y-3.479
X2.147Y-3.537
X2.147Y-3.595
X2.147Y-3.653
X2.147Y-3.711
X2.147Y-4.377
X2.148Y-3.305
X2.148Y-3.769
X2.155Y-4.425
X2.156Y-3.014
X2.157Y-4.247
X2.166Y-2.536
X2.17Y-4.502
X2.173Y-3.913
X2.18Y-5.139
X2.182Y-5.182
X2.183Y-4.247
X2.184Y-4.072
X2.185Y-4.337
X2.188Y-4.378
X2.19Y-3.978
X2.19Y-4.425
X2.194Y-3.016
X2.195Y-3.884
X2.202Y-3.846
X2.206Y-3.915
X2.207Y-3.951
X2.21Y-4.0
X2.21Y-4.498
X2.216Y-3.169
X2.22Y-3.828
X2.22Y-5.164
X2.222Y-5.516
X2.231Y-5.467
X2.242Y-4.508
X2.246Y-3.14
X2.258Y-4.536
X2.265Y-3.172
X2.266Y-2.782
X2.273Y-2.709
X2.274Y-4.564
X2.274Y-4.61
X2.28Y-3.14
X2.292Y-4.381
X2.292Y-5.52
X2.297Y-4.298
X2.3Y-4.34
X2.304Y-5.258
X2.316Y-3.14
X2.318Y-3.979
X2.324Y-3.897
X2.325Y-3.849
X2.329Y-4.612
X2.329Y-4.645
X2.335Y-4.799
X2.336Y-3.28
X2.337Y-4.573
X2.338Y-3.34
X2.338Y-3.457
X2.339Y-5.471
X2.341Y-4.763
X2.342Y-3.38
X2.343Y-3.172
X2.347Y-5.096
X2.3477Y-4.9426
X2.348Y-4.67
X2.352Y-5.134
X2.352Y-5.194
X2.354Y-4.973
X2.357Y-3.14
X2.3578Y-2.8022
X2.362Y-2.538
X2.363Y-4.111
X2.368Y-2.92
X2.37Y-3.38
X2.371Y-4.693
X2.374Y-4.338
X2.374Y-4.574
X2.376Y-5.248
X2.384Y-5.518
X2.386Y-4.379
X2.39Y-3.488
X2.391Y-3.846
X2.394Y-4.858
X2.396Y-3.156
X2.396Y-4.11
X2.396Y-4.287
X2.398Y-3.38
X2.408Y-4.978
X2.41Y-3.514
X2.412Y-3.414
X2.418Y-3.466
X2.429Y-3.198
X2.43Y-5.468
X2.433Y-5.268
X2.44Y-4.338
X2.44Y-4.992
X2.441Y-4.283
X2.448Y-3.418
X2.452Y-3.224
X2.456Y-3.3075
X2.4575Y-5.1285
X2.458Y-5.238
X2.462Y-3.964
X2.474Y-3.036
X2.476Y-3.199
X2.476Y-3.816
X2.478Y-4.473
X2.482Y-4.283
X2.486Y-5.048
X2.487Y-5.518
X2.493Y-3.799
X2.493Y-4.692
X2.494Y-3.938
X2.498Y-3.976
X2.499Y-2.527
X2.499Y-3.886
X2.507Y-3.857
X2.509Y-4.365
X2.514Y-3.3075
X2.516Y-4.668
X2.522Y-3.2
X2.525Y-3.475
X2.525Y-3.51
X2.528Y-3.557
X2.533Y-5.274
X2.536Y-4.644
X2.541Y-4.776
X2.541Y-4.815
X2.541Y-4.851
X2.542Y-5.467
X2.546Y-5.066
X2.558Y-2.904
X2.56Y-4.622
X2.574Y-3.8
X2.582Y-3.932
X2.584Y-2.534
X2.586Y-4.646
X2.588Y-5.519
X2.593Y-5.219
X2.594Y-4.322
X2.595Y-3.559
X2.599Y-2.774
X2.604Y-3.258
X2.604Y-4.188
X2.607Y-5.167
X2.609Y-4.787
X2.609Y-4.89
X2.61Y-2.55
X2.611Y-4.833
X2.611Y-4.937
X2.612Y-4.304
X2.62Y-3.136
X2.62Y-4.06
X2.626Y-2.983
X2.626Y-4.462
X2.626Y-4.49
X2.627Y-3.935
X2.627Y-3.973
X2.628Y-4.16
X2.631Y-5.467
X2.632Y-2.926
X2.6325Y-3.797
X2.635Y-2.534
X2.635Y-5.274
X2.64Y-2.774
X2.647Y-4.889
X2.649Y-4.938
X2.65Y-3.198
X2.65Y-4.0886
X2.653Y-3.008
X2.655Y-4.788
X2.657Y-2.958
X2.66Y-3.824
X2.671Y-3.503
X2.673Y-3.464
X2.673Y-4.613
X2.676Y-3.228
X2.677Y-3.561
X2.677Y-3.662
X2.681Y-3.622
X2.681Y-5.517
X2.682Y-2.986
X2.683Y-2.927
X2.685Y-2.529
X2.688Y-4.09
X2.69Y-3.796
X2.69Y-3.876
X2.692Y-3.198
X2.696Y-3.3075
X2.701Y-5.046
X2.702Y-3.912
X2.706Y-3.011
X2.707Y-2.959
X2.714Y-4.112
X2.722Y-3.938
X2.727Y-4.54
X2.728Y-3.834
X2.729Y-2.927
X2.729Y-5.022
X2.73Y-4.688
X2.731Y-2.987
X2.732Y-3.968
X2.733Y-4.511
X2.734Y-2.528
X2.735Y-3.869
X2.735Y-4.415
X2.735Y-5.468
X2.736Y-4.446
X2.736Y-5.273
X2.738Y-4.616
X2.74Y-4.481
X2.742Y-3.788
X2.748Y-4.182
X2.748Y-4.208
X2.749Y-4.245
X2.752Y-2.96
X2.754Y-3.204
X2.754Y-3.3195
X2.755Y-3.01
X2.757Y-4.645
X2.758Y-4.688
X2.76Y-2.549
X2.762Y-2.62
X2.762Y-2.658
X2.762Y-2.709
X2.766Y-3.768
X2.771Y-2.928
X2.772Y-3.424
X2.773Y-3.821
X2.774Y-3.456
X2.774Y-3.91
X2.778Y-2.989
X2.778Y-3.855
X2.779Y-4.615
X2.781Y-4.739
X2.783Y-2.529
X2.785Y-5.517
X2.786Y-4.688
X2.79Y-3.938
X2.79Y-4.918
X2.794Y-3.48
X2.794Y-3.55
X2.798Y-3.588
X2.8Y-3.512
X2.806Y-3.966
X2.806Y-4.798
X2.807Y-5.063
X2.808Y-3.373
X2.816Y-3.73
X2.817Y-3.822
X2.822Y-4.93
X2.83Y-2.5775
X2.83Y-2.62
X2.83Y-2.6625
X2.83Y-2.7025
X2.83Y-2.7425
X2.836Y-5.273
X2.838Y-3.708
X2.84Y-4.426
X2.84Y-4.536
X2.841Y-5.466
X2.842Y-4.478
X2.844Y-3.772
X2.844Y-4.958
X2.847Y-5.061
X2.848Y-3.372
X2.849Y-4.698
X2.858Y-4.258
X2.864Y-4.15
X2.864Y-4.2
X2.868Y-4.088
X2.87Y-4.978
X2.881Y-2.796
X2.881Y-2.823
X2.881Y-2.85
X2.882Y-3.102
X2.882Y-5.516
X2.884Y-4.028
X2.886Y-3.848
X2.886Y-3.98
X2.8878Y-5.0728
X2.902Y-4.478
X2.914Y-4.26
X2.921Y-3.228
X2.922Y-2.678
X2.922Y-2.724
X2.924Y-2.63
X2.926Y-2.538
X2.926Y-2.578
X2.926Y-2.776
X2.928Y-3.826
X2.928Y-4.998
X2.932Y-4.769
X2.934Y-5.466
X2.936Y-4.802
X2.936Y-5.275
X2.94Y-2.822
X2.949Y-3.258
X2.951Y-3.79
X2.953Y-5.516
X2.954Y-4.49
X2.966Y-3.674
X2.972Y-3.389
X2.976Y-2.844
X2.976Y-2.954
X2.982Y-4.078
X2.983Y-5.224
X2.996Y-4.5
X2.996Y-5.487
X2.999Y-3.674
X3.002Y-2.882
X3.002Y-3.821
X3.002Y-4.778
X3.002Y-5.064
X3.008Y-3.389
X3.012Y-2.948
X3.013Y-3.269
X3.016Y-5.224
X3.028Y-4.23
X3.032Y-3.223
X3.034Y-3.355
X3.034Y-5.363
X3.035Y-3.423
X3.039Y-5.452
X3.04Y-2.91
X3.04Y-5.512
X3.042Y-4.468
X3.044Y-3.39
X3.045Y-3.296
X3.046Y-4.316
X3.05Y-3.258
X3.053Y-5.33
X3.054Y-5.395
X3.0547Y-4.8413
X3.058Y-5.152
X3.059Y-3.765
X3.059Y-3.847
X3.059Y-5.27
X3.068Y-2.88
X3.068Y-2.952
X3.068Y-4.514
X3.07Y-4.66
X3.07Y-4.688
X3.07Y-4.724
X3.07Y-4.76
X3.07Y-4.796
X3.073Y-3.356
X3.074Y-4.224
X3.076Y-3.088
X3.077Y-3.218
X3.079Y-5.36
X3.079Y-5.48
X3.08Y-5.425
X3.082Y-3.528
X3.082Y-4.172
X3.082Y-5.301
X3.083Y-3.388
X3.084Y-3.598
X3.084Y-5.01
X3.085Y-3.805
X3.086Y-3.255
X3.086Y-3.668
X3.086Y-4.072
X3.086Y-4.126
X3.087Y-3.296
X3.088Y-2.916
X3.09Y-3.962
X3.09Y-4.43
X3.092Y-4.316
X3.092Y-5.082
X3.093Y-5.048
X3.104Y-5.23
X3.109Y-5.333
X3.111Y-5.27
X3.111Y-5.395
X3.113Y-3.766
X3.115Y-5.452
X3.116Y-2.876
X3.12Y-2.95
X3.12Y-3.847
X3.12Y-4.404
X3.13Y-5.516
X3.132Y-4.234
X3.134Y-5.302
X3.136Y-4.066
X3.137Y-3.806
X3.138Y-2.916
X3.138Y-5.361
X3.144Y-5.186
X3.147Y-5.419
X3.154Y-5.037
X3.158Y-3.256
X3.16Y-2.89
X3.161Y-4.495
X3.161Y-4.775
X3.162Y-5.228
X3.162Y-5.482
X3.164Y-5.27
X3.167Y-5.336
X3.168Y-2.946
X3.179Y-3.39
X3.185Y-3.806
X3.189Y-3.255
X3.192Y-5.521
X3.196Y-4.776
X3.196Y-5.184
X3.196Y-5.3
X3.197Y-4.495
X3.202Y-2.876
X3.218Y-4.226
X3.22Y-5.23
X3.222Y-4.074
X3.226Y-3.966
X3.23Y-5.272
X3.24Y-5.052
X3.242Y-5.148
X3.248Y-5.102
X3.262Y-5.002
X3.262Y-5.186
X3.264Y-4.954
X3.266Y-5.228
T2
X1.604Y-3.258
X1.612Y-5.088
X1.612Y-5.154
X1.646Y-3.322
X1.986Y-3.18
X2.306Y-3.208
X2.378Y-3.208
X2.46Y-2.548
X2.76Y-5.088
X2.762Y-5.155
X3.243Y-2.919
T3
X1.385Y-5.315
X1.385Y-5.415
X1.485Y-5.315
X1.485Y-5.415
X1.585Y-5.315
X1.585Y-5.415
X1.685Y-5.315
X1.685Y-5.415
X1.785Y-5.315
X1.785Y-5.415
X1.885Y-5.315
X1.885Y-5.415
X1.985Y-5.315
X1.985Y-5.415
X2.085Y-5.315
X2.085Y-5.415
X2.185Y-5.315
X2.185Y-5.415
X2.285Y-5.315
X2.285Y-5.415
X2.385Y-5.315
X2.385Y-5.415
X2.485Y-5.315
X2.485Y-5.415
X2.585Y-5.315
X2.585Y-5.415
X2.685Y-5.315
X2.685Y-5.415
X2.785Y-5.315
X2.785Y-5.415
X2.885Y-5.315
X2.885Y-5.415
X2.985Y-5.315
X2.985Y-5.415
T4
X1.192Y-3.0527
X1.192Y-3.1905
X1.192Y-3.3287
X1.192Y-3.4665
X1.192Y-3.6047
X1.192Y-3.7425
X1.192Y-3.8807
X1.192Y-4.0185
X1.192Y-4.1567
X1.192Y-4.2945
X1.192Y-4.4327
X1.192Y-4.5705
X1.192Y-4.7087
X1.192Y-4.8465
X1.192Y-4.9847
X1.192Y-5.1225
X1.3889Y-3.0527
X1.3889Y-3.1905
X1.3889Y-3.3287
X1.3889Y-3.4665
X1.3889Y-3.6047
X1.3889Y-3.7425
X1.3889Y-3.8807
X1.3889Y-4.0185
X1.3889Y-4.1567
X1.3889Y-4.2945
X1.3889Y-4.4327
X1.3889Y-4.5705
X1.3889Y-4.7087
X1.3889Y-4.8465
X1.3889Y-4.9847
X1.3889Y-5.1225
X1.572Y-2.6011
X1.572Y-2.7389
X1.7689Y-2.6011
X1.7689Y-2.7389
X2.9811Y-3.0475
X2.9811Y-3.1853
X2.9811Y-3.3235
X2.9811Y-3.4613
X2.9811Y-3.5995
X2.9811Y-3.7373
X2.9811Y-3.8755
X2.9811Y-4.0133
X2.9811Y-4.1515
X2.9811Y-4.2893
X2.9811Y-4.4275
X2.9811Y-4.5653
X2.9811Y-4.7035
X2.9811Y-4.8413
X2.9811Y-4.9795
X2.9811Y-5.1173
X3.178Y-3.0475
X3.178Y-3.1853
X3.178Y-3.3235
X3.178Y-3.4613
X3.178Y-3.5995
X3.178Y-3.7373
X3.178Y-3.8755
X3.178Y-4.0133
X3.178Y-4.1515
X3.178Y-4.2893
X3.178Y-4.4275
X3.178Y-4.5653
X3.178Y-4.7035
X3.178Y-4.8413
X3.178Y-4.9795
X3.178Y-5.1173
T0
M30
