G04 #@! TF.GenerationSoftware,KiCad,Pcbnew,(5.1.9)-1*
G04 #@! TF.CreationDate,2021-04-22T12:56:58-04:00*
G04 #@! TF.ProjectId,RoboRIO-IO-Link-Master,526f626f-5249-44f2-9d49-4f2d4c696e6b,rev?*
G04 #@! TF.SameCoordinates,Original*
G04 #@! TF.FileFunction,Paste,Top*
G04 #@! TF.FilePolarity,Positive*
%FSLAX46Y46*%
G04 Gerber Fmt 4.6, Leading zero omitted, Abs format (unit mm)*
G04 Created by KiCad (PCBNEW (5.1.9)-1) date 2021-04-22 12:56:58*
%MOMM*%
%LPD*%
G01*
G04 APERTURE LIST*
%ADD10C,0.152400*%
%ADD11R,1.100000X1.000000*%
%ADD12R,0.930000X0.910000*%
%ADD13R,1.000000X1.100000*%
%ADD14R,2.616200X1.219200*%
%ADD15C,0.100000*%
%ADD16R,0.505600X0.300000*%
%ADD17R,0.300000X0.505600*%
%ADD18R,1.498600X3.302000*%
%ADD19R,3.302000X1.498600*%
%ADD20R,1.066800X1.397000*%
%ADD21R,0.870000X0.930000*%
%ADD22R,0.930000X0.870000*%
%ADD23R,0.800000X0.655600*%
%ADD24R,0.655600X0.800000*%
%ADD25R,1.397000X5.308600*%
%ADD26R,0.762000X0.812800*%
%ADD27R,0.812800X0.762000*%
%ADD28R,0.812800X1.346200*%
%ADD29R,0.803200X1.450000*%
%ADD30R,1.450000X0.803200*%
%ADD31R,1.651000X0.558800*%
%ADD32R,1.371600X0.457200*%
%ADD33R,5.588000X5.588000*%
%ADD34R,0.203200X0.812800*%
%ADD35R,0.812800X0.203200*%
%ADD36R,1.900000X1.400000*%
%ADD37R,1.879600X3.251200*%
%ADD38R,3.251200X2.235200*%
G04 APERTURE END LIST*
D10*
X68861000Y-125195000D02*
X67664000Y-125195000D01*
X68861000Y-126392000D02*
X68861000Y-125195000D01*
X67664000Y-126392000D02*
X68861000Y-126392000D01*
X67664000Y-125195000D02*
X67664000Y-126392000D01*
X68861000Y-123798000D02*
X67664000Y-123798000D01*
X68861000Y-124995000D02*
X68861000Y-123798000D01*
X67664000Y-124995000D02*
X68861000Y-124995000D01*
X67664000Y-123798000D02*
X67664000Y-124995000D01*
X68861000Y-122401000D02*
X67664000Y-122401000D01*
X68861000Y-123598000D02*
X68861000Y-122401000D01*
X67664000Y-123598000D02*
X68861000Y-123598000D01*
X67664000Y-122401000D02*
X67664000Y-123598000D01*
X68861000Y-121004000D02*
X67664000Y-121004000D01*
X68861000Y-122201000D02*
X68861000Y-121004000D01*
X67664000Y-122201000D02*
X68861000Y-122201000D01*
X67664000Y-121004000D02*
X67664000Y-122201000D01*
X67464000Y-125195000D02*
X66267000Y-125195000D01*
X67464000Y-126392000D02*
X67464000Y-125195000D01*
X66267000Y-126392000D02*
X67464000Y-126392000D01*
X66267000Y-125195000D02*
X66267000Y-126392000D01*
X67464000Y-123798000D02*
X66267000Y-123798000D01*
X67464000Y-124995000D02*
X67464000Y-123798000D01*
X66267000Y-124995000D02*
X67464000Y-124995000D01*
X66267000Y-123798000D02*
X66267000Y-124995000D01*
X67464000Y-122401000D02*
X66267000Y-122401000D01*
X67464000Y-123598000D02*
X67464000Y-122401000D01*
X66267000Y-123598000D02*
X67464000Y-123598000D01*
X66267000Y-122401000D02*
X66267000Y-123598000D01*
X67464000Y-121004000D02*
X66267000Y-121004000D01*
X67464000Y-122201000D02*
X67464000Y-121004000D01*
X66267000Y-122201000D02*
X67464000Y-122201000D01*
X66267000Y-121004000D02*
X66267000Y-122201000D01*
X66067000Y-125195000D02*
X64870000Y-125195000D01*
X66067000Y-126392000D02*
X66067000Y-125195000D01*
X64870000Y-126392000D02*
X66067000Y-126392000D01*
X64870000Y-125195000D02*
X64870000Y-126392000D01*
X66067000Y-123798000D02*
X64870000Y-123798000D01*
X66067000Y-124995000D02*
X66067000Y-123798000D01*
X64870000Y-124995000D02*
X66067000Y-124995000D01*
X64870000Y-123798000D02*
X64870000Y-124995000D01*
X66067000Y-122401000D02*
X64870000Y-122401000D01*
X66067000Y-123598000D02*
X66067000Y-122401000D01*
X64870000Y-123598000D02*
X66067000Y-123598000D01*
X64870000Y-122401000D02*
X64870000Y-123598000D01*
X66067000Y-121004000D02*
X64870000Y-121004000D01*
X66067000Y-122201000D02*
X66067000Y-121004000D01*
X64870000Y-122201000D02*
X66067000Y-122201000D01*
X64870000Y-121004000D02*
X64870000Y-122201000D01*
X64670000Y-125195000D02*
X63473000Y-125195000D01*
X64670000Y-126392000D02*
X64670000Y-125195000D01*
X63473000Y-126392000D02*
X64670000Y-126392000D01*
X63473000Y-125195000D02*
X63473000Y-126392000D01*
X64670000Y-123798000D02*
X63473000Y-123798000D01*
X64670000Y-124995000D02*
X64670000Y-123798000D01*
X63473000Y-124995000D02*
X64670000Y-124995000D01*
X63473000Y-123798000D02*
X63473000Y-124995000D01*
X64670000Y-122401000D02*
X63473000Y-122401000D01*
X64670000Y-123598000D02*
X64670000Y-122401000D01*
X63473000Y-123598000D02*
X64670000Y-123598000D01*
X63473000Y-122401000D02*
X63473000Y-123598000D01*
X64670000Y-121004000D02*
X63473000Y-121004000D01*
X64670000Y-122201000D02*
X64670000Y-121004000D01*
X63473000Y-122201000D02*
X64670000Y-122201000D01*
X63473000Y-121004000D02*
X63473000Y-122201000D01*
X63346000Y-88952400D02*
X64543000Y-88952400D01*
X63346000Y-87755400D02*
X63346000Y-88952400D01*
X64543000Y-87755400D02*
X63346000Y-87755400D01*
X64543000Y-88952400D02*
X64543000Y-87755400D01*
X63346000Y-90349400D02*
X64543000Y-90349400D01*
X63346000Y-89152400D02*
X63346000Y-90349400D01*
X64543000Y-89152400D02*
X63346000Y-89152400D01*
X64543000Y-90349400D02*
X64543000Y-89152400D01*
X63346000Y-91746400D02*
X64543000Y-91746400D01*
X63346000Y-90549400D02*
X63346000Y-91746400D01*
X64543000Y-90549400D02*
X63346000Y-90549400D01*
X64543000Y-91746400D02*
X64543000Y-90549400D01*
X63346000Y-93143400D02*
X64543000Y-93143400D01*
X63346000Y-91946400D02*
X63346000Y-93143400D01*
X64543000Y-91946400D02*
X63346000Y-91946400D01*
X64543000Y-93143400D02*
X64543000Y-91946400D01*
X64743000Y-88952400D02*
X65940000Y-88952400D01*
X64743000Y-87755400D02*
X64743000Y-88952400D01*
X65940000Y-87755400D02*
X64743000Y-87755400D01*
X65940000Y-88952400D02*
X65940000Y-87755400D01*
X64743000Y-90349400D02*
X65940000Y-90349400D01*
X64743000Y-89152400D02*
X64743000Y-90349400D01*
X65940000Y-89152400D02*
X64743000Y-89152400D01*
X65940000Y-90349400D02*
X65940000Y-89152400D01*
X64743000Y-91746400D02*
X65940000Y-91746400D01*
X64743000Y-90549400D02*
X64743000Y-91746400D01*
X65940000Y-90549400D02*
X64743000Y-90549400D01*
X65940000Y-91746400D02*
X65940000Y-90549400D01*
X64743000Y-93143400D02*
X65940000Y-93143400D01*
X64743000Y-91946400D02*
X64743000Y-93143400D01*
X65940000Y-91946400D02*
X64743000Y-91946400D01*
X65940000Y-93143400D02*
X65940000Y-91946400D01*
X66140000Y-88952400D02*
X67337000Y-88952400D01*
X66140000Y-87755400D02*
X66140000Y-88952400D01*
X67337000Y-87755400D02*
X66140000Y-87755400D01*
X67337000Y-88952400D02*
X67337000Y-87755400D01*
X66140000Y-90349400D02*
X67337000Y-90349400D01*
X66140000Y-89152400D02*
X66140000Y-90349400D01*
X67337000Y-89152400D02*
X66140000Y-89152400D01*
X67337000Y-90349400D02*
X67337000Y-89152400D01*
X66140000Y-91746400D02*
X67337000Y-91746400D01*
X66140000Y-90549400D02*
X66140000Y-91746400D01*
X67337000Y-90549400D02*
X66140000Y-90549400D01*
X67337000Y-91746400D02*
X67337000Y-90549400D01*
X66140000Y-93143400D02*
X67337000Y-93143400D01*
X66140000Y-91946400D02*
X66140000Y-93143400D01*
X67337000Y-91946400D02*
X66140000Y-91946400D01*
X67337000Y-93143400D02*
X67337000Y-91946400D01*
X67537000Y-88952400D02*
X68734000Y-88952400D01*
X67537000Y-87755400D02*
X67537000Y-88952400D01*
X68734000Y-87755400D02*
X67537000Y-87755400D01*
X68734000Y-88952400D02*
X68734000Y-87755400D01*
X67537000Y-90349400D02*
X68734000Y-90349400D01*
X67537000Y-89152400D02*
X67537000Y-90349400D01*
X68734000Y-89152400D02*
X67537000Y-89152400D01*
X68734000Y-90349400D02*
X68734000Y-89152400D01*
X67537000Y-91746400D02*
X68734000Y-91746400D01*
X67537000Y-90549400D02*
X67537000Y-91746400D01*
X68734000Y-90549400D02*
X67537000Y-90549400D01*
X68734000Y-91746400D02*
X68734000Y-90549400D01*
X67537000Y-93143400D02*
X68734000Y-93143400D01*
X67537000Y-91946400D02*
X67537000Y-93143400D01*
X68734000Y-91946400D02*
X67537000Y-91946400D01*
X68734000Y-93143400D02*
X68734000Y-91946400D01*
X42467200Y-88977800D02*
X43664200Y-88977800D01*
X42467200Y-87780800D02*
X42467200Y-88977800D01*
X43664200Y-87780800D02*
X42467200Y-87780800D01*
X43664200Y-88977800D02*
X43664200Y-87780800D01*
X42467200Y-90374800D02*
X43664200Y-90374800D01*
X42467200Y-89177800D02*
X42467200Y-90374800D01*
X43664200Y-89177800D02*
X42467200Y-89177800D01*
X43664200Y-90374800D02*
X43664200Y-89177800D01*
X42467200Y-91771800D02*
X43664200Y-91771800D01*
X42467200Y-90574800D02*
X42467200Y-91771800D01*
X43664200Y-90574800D02*
X42467200Y-90574800D01*
X43664200Y-91771800D02*
X43664200Y-90574800D01*
X42467200Y-93168800D02*
X43664200Y-93168800D01*
X42467200Y-91971800D02*
X42467200Y-93168800D01*
X43664200Y-91971800D02*
X42467200Y-91971800D01*
X43664200Y-93168800D02*
X43664200Y-91971800D01*
X43864200Y-88977800D02*
X45061200Y-88977800D01*
X43864200Y-87780800D02*
X43864200Y-88977800D01*
X45061200Y-87780800D02*
X43864200Y-87780800D01*
X45061200Y-88977800D02*
X45061200Y-87780800D01*
X43864200Y-90374800D02*
X45061200Y-90374800D01*
X43864200Y-89177800D02*
X43864200Y-90374800D01*
X45061200Y-89177800D02*
X43864200Y-89177800D01*
X45061200Y-90374800D02*
X45061200Y-89177800D01*
X43864200Y-91771800D02*
X45061200Y-91771800D01*
X43864200Y-90574800D02*
X43864200Y-91771800D01*
X45061200Y-90574800D02*
X43864200Y-90574800D01*
X45061200Y-91771800D02*
X45061200Y-90574800D01*
X43864200Y-93168800D02*
X45061200Y-93168800D01*
X43864200Y-91971800D02*
X43864200Y-93168800D01*
X45061200Y-91971800D02*
X43864200Y-91971800D01*
X45061200Y-93168800D02*
X45061200Y-91971800D01*
X45261200Y-88977800D02*
X46458200Y-88977800D01*
X45261200Y-87780800D02*
X45261200Y-88977800D01*
X46458200Y-87780800D02*
X45261200Y-87780800D01*
X46458200Y-88977800D02*
X46458200Y-87780800D01*
X45261200Y-90374800D02*
X46458200Y-90374800D01*
X45261200Y-89177800D02*
X45261200Y-90374800D01*
X46458200Y-89177800D02*
X45261200Y-89177800D01*
X46458200Y-90374800D02*
X46458200Y-89177800D01*
X45261200Y-91771800D02*
X46458200Y-91771800D01*
X45261200Y-90574800D02*
X45261200Y-91771800D01*
X46458200Y-90574800D02*
X45261200Y-90574800D01*
X46458200Y-91771800D02*
X46458200Y-90574800D01*
X45261200Y-93168800D02*
X46458200Y-93168800D01*
X45261200Y-91971800D02*
X45261200Y-93168800D01*
X46458200Y-91971800D02*
X45261200Y-91971800D01*
X46458200Y-93168800D02*
X46458200Y-91971800D01*
X46658200Y-88977800D02*
X47855200Y-88977800D01*
X46658200Y-87780800D02*
X46658200Y-88977800D01*
X47855200Y-87780800D02*
X46658200Y-87780800D01*
X47855200Y-88977800D02*
X47855200Y-87780800D01*
X46658200Y-90374800D02*
X47855200Y-90374800D01*
X46658200Y-89177800D02*
X46658200Y-90374800D01*
X47855200Y-89177800D02*
X46658200Y-89177800D01*
X47855200Y-90374800D02*
X47855200Y-89177800D01*
X46658200Y-91771800D02*
X47855200Y-91771800D01*
X46658200Y-90574800D02*
X46658200Y-91771800D01*
X47855200Y-90574800D02*
X46658200Y-90574800D01*
X47855200Y-91771800D02*
X47855200Y-90574800D01*
X46658200Y-93168800D02*
X47855200Y-93168800D01*
X46658200Y-91971800D02*
X46658200Y-93168800D01*
X47855200Y-91971800D02*
X46658200Y-91971800D01*
X47855200Y-93168800D02*
X47855200Y-91971800D01*
X47842500Y-125195000D02*
X46645500Y-125195000D01*
X47842500Y-126392000D02*
X47842500Y-125195000D01*
X46645500Y-126392000D02*
X47842500Y-126392000D01*
X46645500Y-125195000D02*
X46645500Y-126392000D01*
X47842500Y-123798000D02*
X46645500Y-123798000D01*
X47842500Y-124995000D02*
X47842500Y-123798000D01*
X46645500Y-124995000D02*
X47842500Y-124995000D01*
X46645500Y-123798000D02*
X46645500Y-124995000D01*
X47842500Y-122401000D02*
X46645500Y-122401000D01*
X47842500Y-123598000D02*
X47842500Y-122401000D01*
X46645500Y-123598000D02*
X47842500Y-123598000D01*
X46645500Y-122401000D02*
X46645500Y-123598000D01*
X47842500Y-121004000D02*
X46645500Y-121004000D01*
X47842500Y-122201000D02*
X47842500Y-121004000D01*
X46645500Y-122201000D02*
X47842500Y-122201000D01*
X46645500Y-121004000D02*
X46645500Y-122201000D01*
X46445500Y-125195000D02*
X45248500Y-125195000D01*
X46445500Y-126392000D02*
X46445500Y-125195000D01*
X45248500Y-126392000D02*
X46445500Y-126392000D01*
X45248500Y-125195000D02*
X45248500Y-126392000D01*
X46445500Y-123798000D02*
X45248500Y-123798000D01*
X46445500Y-124995000D02*
X46445500Y-123798000D01*
X45248500Y-124995000D02*
X46445500Y-124995000D01*
X45248500Y-123798000D02*
X45248500Y-124995000D01*
X46445500Y-122401000D02*
X45248500Y-122401000D01*
X46445500Y-123598000D02*
X46445500Y-122401000D01*
X45248500Y-123598000D02*
X46445500Y-123598000D01*
X45248500Y-122401000D02*
X45248500Y-123598000D01*
X46445500Y-121004000D02*
X45248500Y-121004000D01*
X46445500Y-122201000D02*
X46445500Y-121004000D01*
X45248500Y-122201000D02*
X46445500Y-122201000D01*
X45248500Y-121004000D02*
X45248500Y-122201000D01*
X45048500Y-125195000D02*
X43851500Y-125195000D01*
X45048500Y-126392000D02*
X45048500Y-125195000D01*
X43851500Y-126392000D02*
X45048500Y-126392000D01*
X43851500Y-125195000D02*
X43851500Y-126392000D01*
X45048500Y-123798000D02*
X43851500Y-123798000D01*
X45048500Y-124995000D02*
X45048500Y-123798000D01*
X43851500Y-124995000D02*
X45048500Y-124995000D01*
X43851500Y-123798000D02*
X43851500Y-124995000D01*
X45048500Y-122401000D02*
X43851500Y-122401000D01*
X45048500Y-123598000D02*
X45048500Y-122401000D01*
X43851500Y-123598000D02*
X45048500Y-123598000D01*
X43851500Y-122401000D02*
X43851500Y-123598000D01*
X45048500Y-121004000D02*
X43851500Y-121004000D01*
X45048500Y-122201000D02*
X45048500Y-121004000D01*
X43851500Y-122201000D02*
X45048500Y-122201000D01*
X43851500Y-121004000D02*
X43851500Y-122201000D01*
X43651500Y-125195000D02*
X42454500Y-125195000D01*
X43651500Y-126392000D02*
X43651500Y-125195000D01*
X42454500Y-126392000D02*
X43651500Y-126392000D01*
X42454500Y-125195000D02*
X42454500Y-126392000D01*
X43651500Y-123798000D02*
X42454500Y-123798000D01*
X43651500Y-124995000D02*
X43651500Y-123798000D01*
X42454500Y-124995000D02*
X43651500Y-124995000D01*
X42454500Y-123798000D02*
X42454500Y-124995000D01*
X43651500Y-122401000D02*
X42454500Y-122401000D01*
X43651500Y-123598000D02*
X43651500Y-122401000D01*
X42454500Y-123598000D02*
X43651500Y-123598000D01*
X42454500Y-122401000D02*
X42454500Y-123598000D01*
X43651500Y-121004000D02*
X42454500Y-121004000D01*
X43651500Y-122201000D02*
X43651500Y-121004000D01*
X42454500Y-122201000D02*
X43651500Y-122201000D01*
X42454500Y-121004000D02*
X42454500Y-122201000D01*
D11*
X61518800Y-131876800D03*
X59818800Y-131876800D03*
X56286400Y-129184400D03*
X54586400Y-129184400D03*
X56337200Y-127660400D03*
X54637200Y-127660400D03*
D12*
X56184800Y-126136400D03*
X54664800Y-126136400D03*
X56184800Y-124612400D03*
X54664800Y-124612400D03*
D11*
X56272800Y-123088400D03*
X54572800Y-123088400D03*
X50292000Y-130556000D03*
X51992000Y-130556000D03*
X50292000Y-131876800D03*
X51992000Y-131876800D03*
X49885600Y-84836000D03*
X51585600Y-84836000D03*
X49885600Y-83362800D03*
X51585600Y-83362800D03*
X56183000Y-95732600D03*
X54483000Y-95732600D03*
X56157600Y-92786200D03*
X54457600Y-92786200D03*
D12*
X56079200Y-94259400D03*
X54559200Y-94259400D03*
X56079200Y-91313000D03*
X54559200Y-91313000D03*
D11*
X56183000Y-89839800D03*
X54483000Y-89839800D03*
X61010800Y-84836000D03*
X59310800Y-84836000D03*
X60983600Y-83362800D03*
X59283600Y-83362800D03*
X56157600Y-88366600D03*
X54457600Y-88366600D03*
X56183000Y-85420200D03*
X54483000Y-85420200D03*
D12*
X56079200Y-86893400D03*
X54559200Y-86893400D03*
X56079200Y-83947000D03*
X54559200Y-83947000D03*
D11*
X56184800Y-82473800D03*
X54484800Y-82473800D03*
X61518800Y-130556000D03*
X59818800Y-130556000D03*
X56235600Y-121564400D03*
X54535600Y-121564400D03*
X56235600Y-120040400D03*
X54535600Y-120040400D03*
D12*
X56134000Y-118516400D03*
X54614000Y-118516400D03*
X56134000Y-117043200D03*
X54614000Y-117043200D03*
D11*
X56184800Y-115519200D03*
X54484800Y-115519200D03*
D13*
X52171600Y-80795600D03*
X52171600Y-79095600D03*
X60960000Y-66165200D03*
X60960000Y-64465200D03*
D11*
X54762400Y-140106400D03*
X56462400Y-140106400D03*
D14*
X51650900Y-67564000D03*
X57061100Y-67564000D03*
D15*
G36*
X65406396Y-67620289D02*
G01*
X64840711Y-67054604D01*
X65304290Y-66591025D01*
X65869975Y-67156710D01*
X65406396Y-67620289D01*
G37*
G36*
X64235710Y-68790975D02*
G01*
X63670025Y-68225290D01*
X64133604Y-67761711D01*
X64699289Y-68327396D01*
X64235710Y-68790975D01*
G37*
G36*
X64444841Y-66400487D02*
G01*
X63457013Y-65412659D01*
X64211355Y-64658317D01*
X65199183Y-65646145D01*
X64444841Y-66400487D01*
G37*
G36*
X63169645Y-67675683D02*
G01*
X62181817Y-66687855D01*
X62936159Y-65933513D01*
X63923987Y-66921341D01*
X63169645Y-67675683D01*
G37*
D16*
X68068400Y-71780400D03*
X67262800Y-71780400D03*
D17*
X71424800Y-74672400D03*
X71424800Y-73866800D03*
D18*
X44704000Y-73888600D03*
X44704000Y-80797400D03*
D19*
X69748400Y-78676500D03*
X62839600Y-78676500D03*
D20*
X53746400Y-78587600D03*
X55549800Y-78587600D03*
D21*
X61061600Y-124053600D03*
X59501600Y-124053600D03*
D22*
X59436000Y-120987600D03*
X59436000Y-122547600D03*
D11*
X65190000Y-130048000D03*
X66890000Y-130048000D03*
D23*
X67894200Y-117180600D03*
X67894200Y-118836200D03*
D21*
X71069200Y-123748800D03*
X72629200Y-123748800D03*
D15*
G36*
X43292579Y-130664486D02*
G01*
X43999686Y-129957379D01*
X44777503Y-130735196D01*
X44070396Y-131442303D01*
X43292579Y-130664486D01*
G37*
G36*
X42090497Y-129462404D02*
G01*
X42797604Y-128755297D01*
X43575421Y-129533114D01*
X42868314Y-130240221D01*
X42090497Y-129462404D01*
G37*
D13*
X46024800Y-130478000D03*
X46024800Y-128778000D03*
D23*
X46431200Y-117180600D03*
X46431200Y-118836200D03*
D22*
X52476400Y-124848400D03*
X52476400Y-126408400D03*
D24*
X62011800Y-95351600D03*
X63667400Y-95351600D03*
D21*
X61130400Y-90220800D03*
X59570400Y-90220800D03*
X50070800Y-89763600D03*
X51630800Y-89763600D03*
D13*
X44246800Y-83732000D03*
X44246800Y-85432000D03*
D23*
X44424600Y-96992200D03*
X44424600Y-95336600D03*
D21*
X40251600Y-90170000D03*
X38691600Y-90170000D03*
D25*
X72809100Y-67564000D03*
X68414900Y-67564000D03*
D26*
X71945500Y-71983600D03*
X70396100Y-71983600D03*
D27*
X58775600Y-71386700D03*
X58775600Y-69837300D03*
D26*
X68948300Y-73050400D03*
X67398900Y-73050400D03*
D28*
X74409300Y-73761600D03*
X72707500Y-73761600D03*
D27*
X49072800Y-119087900D03*
X49072800Y-117538500D03*
D26*
X50076100Y-120497600D03*
X51625500Y-120497600D03*
X50380900Y-121970800D03*
X51930300Y-121970800D03*
X50076100Y-123444000D03*
X51625500Y-123444000D03*
D29*
X49796800Y-128473200D03*
X51600000Y-128473200D03*
D27*
X69951600Y-84315300D03*
X69951600Y-85864700D03*
X68478400Y-84010500D03*
X68478400Y-85559900D03*
X63855600Y-84010500D03*
X63855600Y-85559900D03*
X62382400Y-84010500D03*
X62382400Y-85559900D03*
D26*
X60464700Y-96113600D03*
X58915300Y-96113600D03*
X60464700Y-94640400D03*
X58915300Y-94640400D03*
X60464700Y-93167200D03*
X58915300Y-93167200D03*
X60464700Y-91694000D03*
X58915300Y-91694000D03*
D30*
X59385200Y-86880800D03*
X59385200Y-88684000D03*
D27*
X48310800Y-84010500D03*
X48310800Y-85559900D03*
X46837600Y-84010500D03*
X46837600Y-85559900D03*
D31*
X52235100Y-76581000D03*
X52235100Y-75311000D03*
X52235100Y-74041000D03*
X52235100Y-72771000D03*
X57492900Y-72771000D03*
X57492900Y-74041000D03*
X57492900Y-75311000D03*
X57492900Y-76581000D03*
D32*
X61175900Y-72475999D03*
X61175900Y-71826001D03*
X61175900Y-71175999D03*
X61175900Y-70526001D03*
X65570100Y-70526001D03*
X65570100Y-71175999D03*
X65570100Y-71826001D03*
X65570100Y-72475999D03*
D33*
X66167000Y-123698000D03*
D34*
X63417000Y-120243600D03*
X63916999Y-120243600D03*
X64417001Y-120243600D03*
X64917000Y-120243600D03*
X65416999Y-120243600D03*
X65917000Y-120243600D03*
X66417000Y-120243600D03*
X66917001Y-120243600D03*
X67417000Y-120243600D03*
X67916999Y-120243600D03*
X68417001Y-120243600D03*
X68917000Y-120243600D03*
D35*
X69621400Y-120948000D03*
X69621400Y-121447999D03*
X69621400Y-121948001D03*
X69621400Y-122448000D03*
X69621400Y-122947999D03*
X69621400Y-123448000D03*
X69621400Y-123948000D03*
X69621400Y-124448001D03*
X69621400Y-124948000D03*
X69621400Y-125447999D03*
X69621400Y-125948001D03*
X69621400Y-126448000D03*
D34*
X68917000Y-127152400D03*
X68417001Y-127152400D03*
X67916999Y-127152400D03*
X67417000Y-127152400D03*
X66917001Y-127152400D03*
X66417000Y-127152400D03*
X65917000Y-127152400D03*
X65416999Y-127152400D03*
X64917000Y-127152400D03*
X64417001Y-127152400D03*
X63916999Y-127152400D03*
X63417000Y-127152400D03*
D35*
X62712600Y-126448000D03*
X62712600Y-125948001D03*
X62712600Y-125447999D03*
X62712600Y-124948000D03*
X62712600Y-124448001D03*
X62712600Y-123948000D03*
X62712600Y-123448000D03*
X62712600Y-122947999D03*
X62712600Y-122448000D03*
X62712600Y-121948001D03*
X62712600Y-121447999D03*
X62712600Y-120948000D03*
D33*
X66040000Y-90449400D03*
D34*
X68790000Y-93903800D03*
X68290001Y-93903800D03*
X67789999Y-93903800D03*
X67290000Y-93903800D03*
X66790001Y-93903800D03*
X66290000Y-93903800D03*
X65790000Y-93903800D03*
X65289999Y-93903800D03*
X64790000Y-93903800D03*
X64290001Y-93903800D03*
X63789999Y-93903800D03*
X63290000Y-93903800D03*
D35*
X62585600Y-93199400D03*
X62585600Y-92699401D03*
X62585600Y-92199399D03*
X62585600Y-91699400D03*
X62585600Y-91199401D03*
X62585600Y-90699400D03*
X62585600Y-90199400D03*
X62585600Y-89699399D03*
X62585600Y-89199400D03*
X62585600Y-88699401D03*
X62585600Y-88199399D03*
X62585600Y-87699400D03*
D34*
X63290000Y-86995000D03*
X63789999Y-86995000D03*
X64290001Y-86995000D03*
X64790000Y-86995000D03*
X65289999Y-86995000D03*
X65790000Y-86995000D03*
X66290000Y-86995000D03*
X66790001Y-86995000D03*
X67290000Y-86995000D03*
X67789999Y-86995000D03*
X68290001Y-86995000D03*
X68790000Y-86995000D03*
D35*
X69494400Y-87699400D03*
X69494400Y-88199399D03*
X69494400Y-88699401D03*
X69494400Y-89199400D03*
X69494400Y-89699399D03*
X69494400Y-90199400D03*
X69494400Y-90699400D03*
X69494400Y-91199401D03*
X69494400Y-91699400D03*
X69494400Y-92199399D03*
X69494400Y-92699401D03*
X69494400Y-93199400D03*
D33*
X45161200Y-90474800D03*
D34*
X47911200Y-93929200D03*
X47411201Y-93929200D03*
X46911199Y-93929200D03*
X46411200Y-93929200D03*
X45911201Y-93929200D03*
X45411200Y-93929200D03*
X44911200Y-93929200D03*
X44411199Y-93929200D03*
X43911200Y-93929200D03*
X43411201Y-93929200D03*
X42911199Y-93929200D03*
X42411200Y-93929200D03*
D35*
X41706800Y-93224800D03*
X41706800Y-92724801D03*
X41706800Y-92224799D03*
X41706800Y-91724800D03*
X41706800Y-91224801D03*
X41706800Y-90724800D03*
X41706800Y-90224800D03*
X41706800Y-89724799D03*
X41706800Y-89224800D03*
X41706800Y-88724801D03*
X41706800Y-88224799D03*
X41706800Y-87724800D03*
D34*
X42411200Y-87020400D03*
X42911199Y-87020400D03*
X43411201Y-87020400D03*
X43911200Y-87020400D03*
X44411199Y-87020400D03*
X44911200Y-87020400D03*
X45411200Y-87020400D03*
X45911201Y-87020400D03*
X46411200Y-87020400D03*
X46911199Y-87020400D03*
X47411201Y-87020400D03*
X47911200Y-87020400D03*
D35*
X48615600Y-87724800D03*
X48615600Y-88224799D03*
X48615600Y-88724801D03*
X48615600Y-89224800D03*
X48615600Y-89724799D03*
X48615600Y-90224800D03*
X48615600Y-90724800D03*
X48615600Y-91224801D03*
X48615600Y-91724800D03*
X48615600Y-92224799D03*
X48615600Y-92724801D03*
X48615600Y-93224800D03*
D36*
X65192000Y-101250600D03*
X60792000Y-101250600D03*
X60792000Y-98850600D03*
X65192000Y-98850600D03*
D37*
X58420000Y-103187500D03*
X51435000Y-103187500D03*
X58420000Y-110236000D03*
X51435000Y-110236000D03*
D38*
X63246000Y-110185200D03*
X63246000Y-103555800D03*
D27*
X66421000Y-118783100D03*
X66421000Y-117233700D03*
X45923200Y-95389700D03*
X45923200Y-96939100D03*
D33*
X45148500Y-123698000D03*
D34*
X42398500Y-120243600D03*
X42898499Y-120243600D03*
X43398501Y-120243600D03*
X43898500Y-120243600D03*
X44398499Y-120243600D03*
X44898500Y-120243600D03*
X45398500Y-120243600D03*
X45898501Y-120243600D03*
X46398500Y-120243600D03*
X46898499Y-120243600D03*
X47398501Y-120243600D03*
X47898500Y-120243600D03*
D35*
X48602900Y-120948000D03*
X48602900Y-121447999D03*
X48602900Y-121948001D03*
X48602900Y-122448000D03*
X48602900Y-122947999D03*
X48602900Y-123448000D03*
X48602900Y-123948000D03*
X48602900Y-124448001D03*
X48602900Y-124948000D03*
X48602900Y-125447999D03*
X48602900Y-125948001D03*
X48602900Y-126448000D03*
D34*
X47898500Y-127152400D03*
X47398501Y-127152400D03*
X46898499Y-127152400D03*
X46398500Y-127152400D03*
X45898501Y-127152400D03*
X45398500Y-127152400D03*
X44898500Y-127152400D03*
X44398499Y-127152400D03*
X43898500Y-127152400D03*
X43398501Y-127152400D03*
X42898499Y-127152400D03*
X42398500Y-127152400D03*
D35*
X41694100Y-126448000D03*
X41694100Y-125948001D03*
X41694100Y-125447999D03*
X41694100Y-124948000D03*
X41694100Y-124448001D03*
X41694100Y-123948000D03*
X41694100Y-123448000D03*
X41694100Y-122947999D03*
X41694100Y-122448000D03*
X41694100Y-121948001D03*
X41694100Y-121447999D03*
X41694100Y-120948000D03*
M02*
